{"glyphs":{"0":{"ha":972,"x_min":56,"x_max":917,"o":"m 347 486 q 358 591 347 544 q 387 670 368 638 q 431 719 406 703 q 486 736 456 736 q 542 719 517 736 q 585 670 567 703 q 615 591 604 638 q 625 486 625 544 q 615 381 625 428 q 585 302 604 335 q 542 253 567 269 q 486 236 517 236 q 431 253 456 236 q 387 302 406 269 q 358 381 368 335 q 347 486 347 428 m 56 486 q 110 207 56 319 q 261 37 164 94 q 486 -21 358 -21 q 717 37 621 -21 q 865 207 814 94 q 917 486 917 319 q 865 765 917 653 q 717 935 814 878 q 486 993 621 993 q 261 935 358 993 q 110 765 164 878 q 56 486 56 653 z "},"1":{"ha":757,"x_min":83,"x_max":632,"o":"m 83 638 l 340 694 l 340 0 l 632 0 l 632 993 l 83 892 l 83 638 z "},"2":{"ha":985,"x_min":28,"x_max":936,"o":"m 28 0 l 936 0 l 936 278 l 579 278 l 754 413 q 861 526 821 464 q 901 668 901 588 q 874 789 901 731 q 795 894 847 847 q 667 967 743 940 q 496 994 592 994 q 259 938 354 994 q 117 792 164 882 q 69 597 69 701 l 368 597 q 383 668 368 636 q 424 719 397 700 q 485 738 450 738 q 530 730 511 738 q 561 710 549 722 q 579 681 574 697 q 585 646 585 664 q 568 575 585 608 q 520 506 551 542 q 446 424 489 471 l 28 0 z "},"3":{"ha":925,"x_min":56,"x_max":897,"o":"m 400 465 q 635 490 529 465 q 806 569 742 514 q 869 717 869 624 q 825 858 869 796 q 694 957 781 921 q 483 993 608 993 q 278 949 365 993 q 144 829 192 904 q 97 661 97 754 l 376 661 q 406 731 376 704 q 482 757 435 757 q 531 749 513 757 q 560 728 550 742 q 569 696 569 714 q 557 656 569 675 q 522 621 544 636 q 467 597 499 606 q 400 589 436 589 l 400 465 m 469 -28 q 703 11 608 -28 q 848 117 799 50 q 897 271 897 185 q 862 399 897 346 q 760 488 826 453 q 603 538 694 522 q 400 554 513 554 l 400 410 q 495 401 457 410 q 556 376 533 392 q 588 340 578 360 q 597 299 597 319 q 582 244 597 264 q 541 216 567 224 q 483 208 515 208 q 423 221 453 208 q 374 263 393 233 q 356 340 356 292 l 56 340 q 83 205 56 271 q 164 86 111 139 q 294 3 217 33 q 469 -28 371 -28 z "},"4":{"ha":1067,"x_min":14,"x_max":997,"o":"m 14 160 l 997 160 l 997 417 l 799 417 l 775 368 l 396 368 l 567 585 l 567 260 l 525 244 l 525 0 l 844 0 l 844 972 l 594 972 l 14 160 z "},"5":{"ha":964,"x_min":69,"x_max":908,"o":"m 908 306 q 864 479 908 410 q 751 583 819 549 q 610 618 683 618 q 512 612 558 618 q 425 586 465 606 l 474 708 l 878 708 l 878 972 l 253 972 l 113 385 q 217 414 163 404 q 320 427 271 424 q 401 431 369 431 q 479 424 440 431 q 544 401 518 418 q 571 347 571 383 q 550 292 571 313 q 492 265 529 272 q 401 257 454 257 q 338 263 376 257 q 252 285 299 269 q 156 328 206 300 l 69 58 q 184 19 122 38 q 321 -10 246 1 q 485 -21 396 -21 q 630 -3 556 -21 q 767 54 704 15 q 869 156 831 93 q 908 306 908 218 z "},"6":{"ha":1008,"x_min":69,"x_max":939,"o":"m 374 354 q 391 422 374 393 q 438 466 408 450 q 504 482 468 482 q 571 466 542 482 q 617 422 600 450 q 635 354 635 393 q 617 288 635 315 q 571 244 600 260 q 504 229 542 229 q 438 244 468 229 q 391 288 408 260 q 374 354 374 315 m 465 965 l 214 667 q 112 520 154 596 q 69 354 69 444 q 129 139 69 224 q 288 13 189 54 q 504 -28 386 -28 q 721 13 622 -28 q 879 139 819 54 q 939 354 939 224 q 910 491 939 432 q 836 590 882 550 q 736 651 790 631 q 631 671 682 671 q 540 659 575 671 q 460 607 506 647 l 532 644 l 853 965 l 465 965 z "},"7":{"ha":903,"x_min":42,"x_max":903,"o":"m 42 688 l 457 688 l 99 0 l 431 0 l 903 972 l 42 972 l 42 688 z "},"8":{"ha":939,"x_min":69,"x_max":869,"o":"m 104 738 q 138 613 104 665 q 227 528 172 561 q 346 481 282 496 q 469 465 410 465 q 593 481 529 465 q 712 528 657 496 q 801 613 767 561 q 835 738 835 665 q 784 885 835 828 q 650 972 733 943 q 469 1000 567 1000 q 289 972 372 1000 q 155 885 206 943 q 104 738 104 828 m 390 710 q 400 753 390 735 q 428 782 410 772 q 469 792 446 792 q 512 782 494 792 q 539 753 529 772 q 549 710 549 735 q 539 666 549 685 q 512 636 529 647 q 469 625 494 625 q 428 636 446 625 q 400 666 410 647 q 390 710 390 685 m 69 264 q 103 137 69 192 q 194 46 136 82 q 323 -9 251 10 q 469 -28 394 -28 q 616 -9 544 -28 q 745 46 688 10 q 836 137 803 82 q 869 264 869 192 q 831 403 869 347 q 730 492 792 458 q 599 541 668 526 q 469 556 529 556 q 340 541 410 556 q 209 492 271 526 q 108 403 147 458 q 69 264 69 347 m 376 313 q 388 358 376 338 q 421 391 400 379 q 469 403 442 403 q 518 391 497 403 q 551 358 539 379 q 563 313 563 338 q 551 259 563 281 q 518 226 539 238 q 469 215 497 215 q 421 226 442 215 q 388 259 400 238 q 376 313 376 281 z "},"9":{"ha":1008,"x_min":69,"x_max":939,"o":"m 635 618 q 617 551 635 579 q 571 506 600 522 q 504 490 542 490 q 438 506 468 490 q 391 551 408 522 q 374 618 374 579 q 391 685 374 657 q 438 728 408 713 q 504 743 468 743 q 571 728 542 743 q 617 685 600 713 q 635 618 635 657 m 543 7 l 794 306 q 897 452 854 376 q 939 618 939 528 q 879 834 939 750 q 721 959 819 918 q 504 1000 622 1000 q 288 959 386 1000 q 129 834 189 918 q 69 618 69 750 q 98 481 69 540 q 172 382 126 422 q 272 322 218 342 q 378 301 326 301 q 468 314 433 301 q 549 365 503 326 l 476 328 l 156 7 l 543 7 z "}," ":{"ha":417,"x_min":0,"x_max":0,"o":""}," ":{"ha":417,"x_min":0,"x_max":0,"o":""},"A":{"ha":1083,"x_min":-7,"x_max":1090,"o":"m 288 125 l 801 125 l 801 344 l 288 344 l 288 125 m 542 531 l 661 263 l 640 183 l 743 0 l 1090 0 l 542 1042 l -7 0 l 340 0 l 446 193 l 422 263 l 542 531 z "},"À":{"ha":1083,"x_min":-7,"x_max":1090,"o":"m 288 125 l 801 125 l 801 344 l 288 344 l 288 125 m 542 531 l 661 263 l 640 183 l 743 0 l 1090 0 l 542 1042 l -7 0 l 340 0 l 446 193 l 422 263 l 542 531 m 292 1333 l 542 1125 l 694 1194 l 486 1417 l 292 1333 z "},"Á":{"ha":1083,"x_min":-7,"x_max":1090,"o":"m 288 125 l 801 125 l 801 344 l 288 344 l 288 125 m 542 531 l 661 263 l 640 183 l 743 0 l 1090 0 l 542 1042 l -7 0 l 340 0 l 446 193 l 422 263 l 542 531 m 785 1333 l 590 1417 l 382 1194 l 535 1125 l 785 1333 z "},"Â":{"ha":1083,"x_min":-7,"x_max":1090,"o":"m 288 125 l 801 125 l 801 344 l 288 344 l 288 125 m 542 531 l 661 263 l 640 183 l 743 0 l 1090 0 l 542 1042 l -7 0 l 340 0 l 446 193 l 422 263 l 542 531 m 542 1236 l 653 1125 l 847 1250 l 542 1444 l 236 1250 l 431 1125 l 542 1236 z "},"Ã":{"ha":1083,"x_min":-7,"x_max":1090,"o":"m 288 125 l 801 125 l 801 344 l 288 344 l 288 125 m 542 531 l 661 263 l 640 183 l 743 0 l 1090 0 l 542 1042 l -7 0 l 340 0 l 446 193 l 422 263 l 542 531 m 243 1240 l 358 1133 q 363 1161 358 1144 q 382 1191 368 1178 q 421 1204 396 1204 q 490 1184 457 1204 q 558 1144 524 1164 q 631 1125 593 1125 q 723 1147 679 1125 q 798 1199 767 1168 q 840 1254 829 1229 l 721 1383 q 676 1328 700 1350 q 622 1306 653 1306 q 569 1317 592 1306 q 527 1344 547 1329 q 482 1370 507 1358 q 422 1382 457 1382 q 333 1360 371 1382 q 272 1307 294 1339 q 243 1240 250 1275 z "},"Ä":{"ha":1083,"x_min":-7,"x_max":1090,"o":"m 288 125 l 801 125 l 801 344 l 288 344 l 288 125 m 542 531 l 661 263 l 640 183 l 743 0 l 1090 0 l 542 1042 l -7 0 l 340 0 l 446 193 l 422 263 l 542 531 m 621 1136 q 665 1038 621 1075 q 771 1000 708 1000 q 877 1038 833 1000 q 921 1136 921 1075 q 877 1235 921 1197 q 771 1272 833 1272 q 665 1235 708 1272 q 621 1136 621 1197 m 149 1150 q 192 1051 149 1089 q 299 1014 236 1014 q 405 1051 361 1014 q 449 1150 449 1089 q 405 1249 449 1211 q 299 1286 361 1286 q 192 1249 236 1286 q 149 1150 149 1211 z "},"Å":{"ha":1083,"x_min":-7,"x_max":1090,"o":"m 288 125 l 801 125 l 801 344 l 288 344 l 288 125 m 542 531 l 661 263 l 640 183 l 743 0 l 1090 0 l 542 1042 l -7 0 l 340 0 l 446 193 l 422 263 l 542 531 m 349 1114 q 403 989 349 1038 q 540 940 457 940 q 679 989 624 940 q 735 1114 735 1038 q 679 1240 735 1192 q 540 1288 624 1288 q 403 1240 457 1288 q 349 1114 349 1192 m 481 1114 q 497 1160 481 1143 q 540 1176 514 1176 q 584 1160 567 1176 q 601 1114 601 1143 q 584 1069 601 1085 q 540 1053 567 1053 q 497 1069 514 1053 q 481 1114 481 1085 z "},"Ā":{"ha":1083,"x_min":-7,"x_max":1090,"o":"m 288 125 l 801 125 l 801 344 l 288 344 l 288 125 m 542 531 l 661 263 l 640 183 l 743 0 l 1090 0 l 542 1042 l -7 0 l 340 0 l 446 193 l 422 263 l 542 531 m 275 1125 l 808 1125 l 808 1354 l 275 1354 l 275 1125 z "},"Ă":{"ha":1083,"x_min":-7,"x_max":1090,"o":"m 288 125 l 801 125 l 801 344 l 288 344 l 288 125 m 542 531 l 661 263 l 640 183 l 743 0 l 1090 0 l 542 1042 l -7 0 l 340 0 l 446 193 l 422 263 l 542 531 m 308 1333 q 336 1225 308 1272 q 417 1151 364 1178 q 542 1125 469 1125 q 667 1151 615 1125 q 747 1225 719 1178 q 775 1333 775 1272 l 614 1333 q 601 1290 614 1306 q 572 1269 589 1275 q 542 1264 556 1264 q 511 1269 528 1264 q 482 1290 494 1275 q 469 1333 469 1306 l 308 1333 z "},"Ą":{"ha":1083,"x_min":-7,"x_max":1090,"o":"m 288 125 l 801 125 l 801 344 l 288 344 l 288 125 m 542 531 l 661 263 l 640 183 l 743 0 l 1090 0 l 542 1042 l -7 0 l 340 0 l 446 193 l 422 263 l 542 531 m 986 -139 q 953 -160 972 -153 q 917 -167 933 -167 q 887 -155 896 -167 q 878 -125 878 -143 q 888 -85 878 -106 q 921 -44 899 -65 q 979 0 943 -22 l 922 35 q 828 -19 874 10 q 754 -83 783 -47 q 725 -167 725 -118 q 749 -245 725 -214 q 808 -291 772 -276 q 882 -306 844 -306 q 982 -288 947 -306 q 1032 -250 1017 -271 l 986 -139 z "},"B":{"ha":1011,"x_min":97,"x_max":956,"o":"m 322 465 l 521 465 q 715 495 629 465 q 850 583 800 525 q 900 722 900 640 q 850 861 900 806 q 715 944 800 917 q 521 972 629 972 l 97 972 l 97 0 l 549 0 q 769 26 678 0 q 908 111 860 53 q 956 267 956 169 q 919 399 956 344 q 822 489 882 454 q 691 540 763 524 q 549 556 619 556 l 322 556 l 322 389 l 507 389 q 556 386 533 389 q 597 376 579 383 q 626 353 615 368 q 636 315 636 339 q 618 258 636 276 q 571 235 600 240 q 507 229 542 229 l 403 229 l 403 743 l 479 743 q 556 726 532 743 q 581 671 581 708 q 569 628 581 646 q 536 600 558 610 q 479 590 514 590 l 322 590 l 322 465 z "},"C":{"ha":986,"x_min":42,"x_max":903,"o":"m 378 486 q 412 612 378 561 q 502 688 446 663 q 626 713 558 713 q 746 695 696 713 q 834 650 796 678 q 903 593 872 622 l 903 907 q 778 974 846 947 q 604 1000 711 1000 q 374 964 478 1000 q 196 860 269 928 q 82 697 122 792 q 42 486 42 603 q 82 275 42 369 q 196 113 122 181 q 374 8 269 44 q 604 -28 478 -28 q 778 -1 711 -28 q 903 65 846 26 l 903 379 q 834 323 872 350 q 746 278 796 296 q 626 260 696 260 q 502 285 558 260 q 412 360 446 310 q 378 486 378 411 z "},"Ç":{"ha":986,"x_min":42,"x_max":903,"o":"m 378 486 q 412 612 378 561 q 502 688 446 663 q 626 713 558 713 q 746 695 696 713 q 834 650 796 678 q 903 593 872 622 l 903 907 q 778 974 846 947 q 604 1000 711 1000 q 374 964 478 1000 q 196 860 269 928 q 82 697 122 792 q 42 486 42 603 q 82 275 42 369 q 196 113 122 181 q 374 8 269 44 q 604 -28 478 -28 q 778 -1 711 -28 q 903 65 846 26 l 903 379 q 834 323 872 350 q 746 278 796 296 q 626 260 696 260 q 502 285 558 260 q 412 360 446 310 q 378 486 378 411 m 479 58 l 356 -235 q 440 -217 400 -219 q 490 -214 481 -214 q 552 -220 521 -214 q 583 -256 583 -226 q 562 -290 583 -281 q 504 -300 540 -300 q 447 -292 488 -300 q 376 -264 407 -285 l 303 -383 q 422 -427 364 -415 q 549 -439 479 -439 q 642 -421 596 -439 q 720 -366 689 -403 q 751 -275 751 -329 q 728 -187 751 -222 q 672 -136 706 -153 q 608 -119 639 -119 q 569 -121 588 -119 q 535 -128 551 -122 l 674 50 l 479 58 z "},"Ć":{"ha":986,"x_min":42,"x_max":903,"o":"m 378 486 q 412 612 378 561 q 502 688 446 663 q 626 713 558 713 q 746 695 696 713 q 834 650 796 678 q 903 593 872 622 l 903 907 q 778 974 846 947 q 604 1000 711 1000 q 374 964 478 1000 q 196 860 269 928 q 82 697 122 792 q 42 486 42 603 q 82 275 42 369 q 196 113 122 181 q 374 8 269 44 q 604 -28 478 -28 q 778 -1 711 -28 q 903 65 846 26 l 903 379 q 834 323 872 350 q 746 278 796 296 q 626 260 696 260 q 502 285 558 260 q 412 360 446 310 q 378 486 378 411 m 785 1292 l 590 1375 l 382 1153 l 535 1083 l 785 1292 z "},"Ĉ":{"ha":986,"x_min":42,"x_max":910,"o":"m 378 486 q 412 612 378 561 q 502 688 446 663 q 626 713 558 713 q 746 695 696 713 q 834 650 796 678 q 903 593 872 622 l 903 907 q 778 974 846 947 q 604 1000 711 1000 q 374 964 478 1000 q 196 860 269 928 q 82 697 122 792 q 42 486 42 603 q 82 275 42 369 q 196 113 122 181 q 374 8 269 44 q 604 -28 478 -28 q 778 -1 711 -28 q 903 65 846 26 l 903 379 q 834 323 872 350 q 746 278 796 296 q 626 260 696 260 q 502 285 558 260 q 412 360 446 310 q 378 486 378 411 m 604 1194 l 715 1083 l 910 1208 l 604 1403 l 299 1208 l 493 1083 l 604 1194 z "},"Ċ":{"ha":986,"x_min":42,"x_max":903,"o":"m 378 486 q 412 612 378 561 q 502 688 446 663 q 626 713 558 713 q 746 695 696 713 q 834 650 796 678 q 903 593 872 622 l 903 907 q 778 974 846 947 q 604 1000 711 1000 q 374 964 478 1000 q 196 860 269 928 q 82 697 122 792 q 42 486 42 603 q 82 275 42 369 q 196 113 122 181 q 374 8 269 44 q 604 -28 478 -28 q 778 -1 711 -28 q 903 65 846 26 l 903 379 q 834 323 872 350 q 746 278 796 296 q 626 260 696 260 q 502 285 558 260 q 412 360 446 310 q 378 486 378 411 m 399 1219 q 442 1121 399 1158 q 549 1083 486 1083 q 655 1121 611 1083 q 699 1219 699 1158 q 655 1318 699 1281 q 549 1356 611 1356 q 442 1318 486 1356 q 399 1219 399 1281 z "},"Č":{"ha":986,"x_min":42,"x_max":910,"o":"m 378 486 q 412 612 378 561 q 502 688 446 663 q 626 713 558 713 q 746 695 696 713 q 834 650 796 678 q 903 593 872 622 l 903 907 q 778 974 846 947 q 604 1000 711 1000 q 374 964 478 1000 q 196 860 269 928 q 82 697 122 792 q 42 486 42 603 q 82 275 42 369 q 196 113 122 181 q 374 8 269 44 q 604 -28 478 -28 q 778 -1 711 -28 q 903 65 846 26 l 903 379 q 834 323 872 350 q 746 278 796 296 q 626 260 696 260 q 502 285 558 260 q 412 360 446 310 q 378 486 378 411 m 604 1292 l 493 1403 l 299 1278 l 604 1083 l 910 1278 l 715 1403 l 604 1292 z "},"D":{"ha":1063,"x_min":97,"x_max":1021,"o":"m 97 972 l 97 0 l 415 0 l 415 972 l 97 972 m 479 0 q 770 58 649 0 q 956 226 892 117 q 1021 486 1021 335 q 956 747 1021 639 q 770 914 892 856 q 479 972 649 972 l 308 972 l 308 708 l 465 708 q 547 701 506 708 q 624 672 589 694 q 680 606 658 650 q 701 486 701 561 q 680 367 701 411 q 624 300 658 322 q 547 271 589 278 q 465 264 506 264 l 308 264 l 308 0 l 479 0 z "},"Ď":{"ha":1063,"x_min":97,"x_max":1021,"o":"m 97 972 l 97 0 l 415 0 l 415 972 l 97 972 m 479 0 q 770 58 649 0 q 956 226 892 117 q 1021 486 1021 335 q 956 747 1021 639 q 770 914 892 856 q 479 972 649 972 l 308 972 l 308 708 l 465 708 q 547 701 506 708 q 624 672 589 694 q 680 606 658 650 q 701 486 701 561 q 680 367 701 411 q 624 300 658 322 q 547 271 589 278 q 465 264 506 264 l 308 264 l 308 0 l 479 0 m 560 1292 l 449 1403 l 254 1278 l 560 1083 l 865 1278 l 671 1403 l 560 1292 z "},"E":{"ha":882,"x_min":97,"x_max":799,"o":"m 308 0 l 799 0 l 799 243 l 308 243 l 308 0 m 308 729 l 799 729 l 799 972 l 308 972 l 308 729 m 308 382 l 771 382 l 771 618 l 308 618 l 308 382 m 97 972 l 97 0 l 389 0 l 389 972 l 97 972 z "},"È":{"ha":882,"x_min":97,"x_max":799,"o":"m 308 0 l 799 0 l 799 243 l 308 243 l 308 0 m 308 729 l 799 729 l 799 972 l 308 972 l 308 729 m 308 382 l 771 382 l 771 618 l 308 618 l 308 382 m 97 972 l 97 0 l 389 0 l 389 972 l 97 972 m 197 1306 l 447 1097 l 600 1167 l 392 1389 l 197 1306 z "},"É":{"ha":882,"x_min":97,"x_max":799,"o":"m 308 0 l 799 0 l 799 243 l 308 243 l 308 0 m 308 729 l 799 729 l 799 972 l 308 972 l 308 729 m 308 382 l 771 382 l 771 618 l 308 618 l 308 382 m 97 972 l 97 0 l 389 0 l 389 972 l 97 972 m 692 1306 l 497 1389 l 289 1167 l 442 1097 l 692 1306 z "},"Ê":{"ha":882,"x_min":97,"x_max":799,"o":"m 308 0 l 799 0 l 799 243 l 308 243 l 308 0 m 308 729 l 799 729 l 799 972 l 308 972 l 308 729 m 308 382 l 771 382 l 771 618 l 308 618 l 308 382 m 97 972 l 97 0 l 389 0 l 389 972 l 97 972 m 447 1194 l 558 1083 l 753 1208 l 447 1403 l 142 1208 l 336 1083 l 447 1194 z "},"Ë":{"ha":882,"x_min":97,"x_max":799,"o":"m 308 0 l 799 0 l 799 243 l 308 243 l 308 0 m 308 729 l 799 729 l 799 972 l 308 972 l 308 729 m 308 382 l 771 382 l 771 618 l 308 618 l 308 382 m 97 972 l 97 0 l 389 0 l 389 972 l 97 972 m 486 1219 q 530 1121 486 1158 q 636 1083 574 1083 q 742 1121 699 1083 q 786 1219 786 1158 q 742 1318 786 1281 q 636 1356 699 1356 q 530 1318 574 1356 q 486 1219 486 1281 m 111 1219 q 155 1121 111 1158 q 261 1083 199 1083 q 367 1121 324 1083 q 411 1219 411 1158 q 367 1318 411 1281 q 261 1356 324 1356 q 155 1318 199 1356 q 111 1219 111 1281 z "},"Ē":{"ha":882,"x_min":97,"x_max":799,"o":"m 308 0 l 799 0 l 799 243 l 308 243 l 308 0 m 308 729 l 799 729 l 799 972 l 308 972 l 308 729 m 308 382 l 771 382 l 771 618 l 308 618 l 308 382 m 97 972 l 97 0 l 389 0 l 389 972 l 97 972 m 181 1083 l 715 1083 l 715 1313 l 181 1313 l 181 1083 z "},"Ĕ":{"ha":882,"x_min":97,"x_max":799,"o":"m 308 0 l 799 0 l 799 243 l 308 243 l 308 0 m 308 729 l 799 729 l 799 972 l 308 972 l 308 729 m 308 382 l 771 382 l 771 618 l 308 618 l 308 382 m 97 972 l 97 0 l 389 0 l 389 972 l 97 972 m 214 1292 q 242 1183 214 1231 q 322 1110 269 1136 q 447 1083 375 1083 q 573 1110 521 1083 q 653 1183 625 1136 q 681 1292 681 1231 l 519 1292 q 507 1249 519 1264 q 478 1228 494 1233 q 447 1222 461 1222 q 417 1228 433 1222 q 388 1249 400 1233 q 375 1292 375 1264 l 214 1292 z "},"Ė":{"ha":882,"x_min":97,"x_max":799,"o":"m 308 0 l 799 0 l 799 243 l 308 243 l 308 0 m 308 729 l 799 729 l 799 972 l 308 972 l 308 729 m 308 382 l 771 382 l 771 618 l 308 618 l 308 382 m 97 972 l 97 0 l 389 0 l 389 972 l 97 972 m 297 1219 q 341 1121 297 1158 q 447 1083 385 1083 q 553 1121 510 1083 q 597 1219 597 1158 q 553 1318 597 1281 q 447 1356 510 1356 q 341 1318 385 1356 q 297 1219 297 1281 z "},"Ę":{"ha":882,"x_min":97,"x_max":799,"o":"m 308 0 l 799 0 l 799 243 l 308 243 l 308 0 m 308 729 l 799 729 l 799 972 l 308 972 l 308 729 m 308 382 l 771 382 l 771 618 l 308 618 l 308 382 m 97 972 l 97 0 l 389 0 l 389 972 l 97 972 m 583 -139 q 550 -160 569 -153 q 514 -167 531 -167 q 484 -155 493 -167 q 475 -125 475 -143 q 485 -85 475 -106 q 518 -44 496 -65 q 576 0 540 -22 l 519 35 q 426 -19 471 10 q 351 -83 381 -47 q 322 -167 322 -118 q 346 -245 322 -214 q 406 -291 369 -276 q 479 -306 442 -306 q 579 -288 544 -306 q 629 -250 614 -271 l 583 -139 z "},"Ě":{"ha":882,"x_min":97,"x_max":799,"o":"m 308 0 l 799 0 l 799 243 l 308 243 l 308 0 m 308 729 l 799 729 l 799 972 l 308 972 l 308 729 m 308 382 l 771 382 l 771 618 l 308 618 l 308 382 m 97 972 l 97 0 l 389 0 l 389 972 l 97 972 m 447 1292 l 336 1403 l 142 1278 l 447 1083 l 753 1278 l 558 1403 l 447 1292 z "},"F":{"ha":813,"x_min":97,"x_max":743,"o":"m 308 715 l 743 715 l 743 972 l 308 972 l 308 715 m 308 340 l 729 340 l 729 576 l 308 576 l 308 340 m 97 972 l 97 0 l 389 0 l 389 972 l 97 972 z "},"G":{"ha":1164,"x_min":42,"x_max":1125,"o":"m 597 333 l 817 333 q 786 285 804 307 q 744 247 768 263 q 686 224 719 232 q 611 215 653 215 q 480 247 536 215 q 392 340 424 279 q 361 486 361 401 q 395 629 361 572 q 486 715 429 686 q 611 743 543 743 q 721 708 681 743 q 786 628 761 674 l 1071 756 q 958 878 1022 824 q 808 967 893 933 q 611 1000 722 1000 q 385 965 489 1000 q 205 863 282 929 q 85 701 128 796 q 42 486 42 606 q 83 269 42 367 q 198 103 124 172 q 374 -4 272 33 q 597 -42 475 -42 q 831 4 729 -42 q 999 132 932 50 q 1095 322 1065 214 q 1114 556 1125 431 l 597 556 l 597 333 z "},"Ĝ":{"ha":1164,"x_min":42,"x_max":1125,"o":"m 597 333 l 817 333 q 786 285 804 307 q 744 247 768 263 q 686 224 719 232 q 611 215 653 215 q 480 247 536 215 q 392 340 424 279 q 361 486 361 401 q 395 629 361 572 q 486 715 429 686 q 611 743 543 743 q 721 708 681 743 q 786 628 761 674 l 1071 756 q 958 878 1022 824 q 808 967 893 933 q 611 1000 722 1000 q 385 965 489 1000 q 205 863 282 929 q 85 701 128 796 q 42 486 42 606 q 83 269 42 367 q 198 103 124 172 q 374 -4 272 33 q 597 -42 475 -42 q 831 4 729 -42 q 999 132 932 50 q 1095 322 1065 214 q 1114 556 1125 431 l 597 556 l 597 333 m 611 1194 l 722 1083 l 917 1208 l 611 1403 l 306 1208 l 500 1083 l 611 1194 z "},"Ğ":{"ha":1164,"x_min":42,"x_max":1125,"o":"m 597 333 l 817 333 q 786 285 804 307 q 744 247 768 263 q 686 224 719 232 q 611 215 653 215 q 480 247 536 215 q 392 340 424 279 q 361 486 361 401 q 395 629 361 572 q 486 715 429 686 q 611 743 543 743 q 721 708 681 743 q 786 628 761 674 l 1071 756 q 958 878 1022 824 q 808 967 893 933 q 611 1000 722 1000 q 385 965 489 1000 q 205 863 282 929 q 85 701 128 796 q 42 486 42 606 q 83 269 42 367 q 198 103 124 172 q 374 -4 272 33 q 597 -42 475 -42 q 831 4 729 -42 q 999 132 932 50 q 1095 322 1065 214 q 1114 556 1125 431 l 597 556 l 597 333 m 378 1292 q 406 1183 378 1231 q 486 1110 433 1136 q 611 1083 539 1083 q 737 1110 685 1083 q 817 1183 789 1136 q 844 1292 844 1231 l 683 1292 q 671 1249 683 1264 q 642 1228 658 1233 q 611 1222 625 1222 q 581 1228 597 1222 q 551 1249 564 1233 q 539 1292 539 1264 l 378 1292 z "},"Ġ":{"ha":1164,"x_min":42,"x_max":1125,"o":"m 597 333 l 817 333 q 786 285 804 307 q 744 247 768 263 q 686 224 719 232 q 611 215 653 215 q 480 247 536 215 q 392 340 424 279 q 361 486 361 401 q 395 629 361 572 q 486 715 429 686 q 611 743 543 743 q 721 708 681 743 q 786 628 761 674 l 1071 756 q 958 878 1022 824 q 808 967 893 933 q 611 1000 722 1000 q 385 965 489 1000 q 205 863 282 929 q 85 701 128 796 q 42 486 42 606 q 83 269 42 367 q 198 103 124 172 q 374 -4 272 33 q 597 -42 475 -42 q 831 4 729 -42 q 999 132 932 50 q 1095 322 1065 214 q 1114 556 1125 431 l 597 556 l 597 333 m 461 1219 q 505 1121 461 1158 q 611 1083 549 1083 q 717 1121 674 1083 q 761 1219 761 1158 q 717 1318 761 1281 q 611 1356 674 1356 q 505 1318 549 1356 q 461 1219 461 1281 z "},"Ģ":{"ha":1164,"x_min":42,"x_max":1125,"o":"m 597 333 l 817 333 q 786 285 804 307 q 744 247 768 263 q 686 224 719 232 q 611 215 653 215 q 480 247 536 215 q 392 340 424 279 q 361 486 361 401 q 395 629 361 572 q 486 715 429 686 q 611 743 543 743 q 721 708 681 743 q 786 628 761 674 l 1071 756 q 958 878 1022 824 q 808 967 893 933 q 611 1000 722 1000 q 385 965 489 1000 q 205 863 282 929 q 85 701 128 796 q 42 486 42 606 q 83 269 42 367 q 198 103 124 172 q 374 -4 272 33 q 597 -42 475 -42 q 831 4 729 -42 q 999 132 932 50 q 1095 322 1065 214 q 1114 556 1125 431 l 597 556 l 597 333 m 454 -125 l 332 -485 l 538 -519 l 725 -172 l 454 -125 z "},"H":{"ha":1153,"x_min":97,"x_max":1056,"o":"m 163 368 l 940 368 l 940 639 l 163 639 l 163 368 m 750 972 l 750 0 l 1056 0 l 1056 972 l 750 972 m 97 972 l 97 0 l 403 0 l 403 972 l 97 972 z "},"Ĥ":{"ha":1153,"x_min":97,"x_max":1056,"o":"m 163 368 l 940 368 l 940 639 l 163 639 l 163 368 m 750 972 l 750 0 l 1056 0 l 1056 972 l 750 972 m 97 972 l 97 0 l 403 0 l 403 972 l 97 972 m 576 1194 l 688 1083 l 882 1208 l 576 1403 l 271 1208 l 465 1083 l 576 1194 z "},"I":{"ha":507,"x_min":97,"x_max":410,"o":"m 97 972 l 97 0 l 410 0 l 410 972 l 97 972 z "},"Ì":{"ha":507,"x_min":-11,"x_max":410,"o":"m 97 972 l 97 0 l 410 0 l 410 972 l 97 972 m -11 1306 l 239 1097 l 392 1167 l 183 1389 l -11 1306 z "},"Í":{"ha":507,"x_min":81,"x_max":483,"o":"m 97 972 l 97 0 l 410 0 l 410 972 l 97 972 m 483 1306 l 289 1389 l 81 1167 l 233 1097 l 483 1306 z "},"Î":{"ha":507,"x_min":-51,"x_max":560,"o":"m 97 972 l 97 0 l 410 0 l 410 972 l 97 972 m 254 1194 l 365 1083 l 560 1208 l 254 1403 l -51 1208 l 143 1083 l 254 1194 z "},"Ï":{"ha":507,"x_min":-83,"x_max":592,"o":"m 97 972 l 97 0 l 410 0 l 410 972 l 97 972 m 292 1219 q 335 1121 292 1158 q 442 1083 379 1083 q 548 1121 504 1083 q 592 1219 592 1158 q 548 1318 592 1281 q 442 1356 504 1356 q 335 1318 379 1356 q 292 1219 292 1281 m -83 1219 q -40 1121 -83 1158 q 67 1083 4 1083 q 173 1121 129 1083 q 217 1219 217 1158 q 173 1318 217 1281 q 67 1356 129 1356 q -40 1318 4 1356 q -83 1219 -83 1281 z "},"Ĩ":{"ha":507,"x_min":-44,"x_max":553,"o":"m 97 972 l 97 0 l 410 0 l 410 972 l 97 972 m -44 1199 l 69 1092 q 75 1119 69 1103 q 94 1149 81 1136 q 133 1163 108 1163 q 203 1142 169 1163 q 270 1103 236 1122 q 342 1083 304 1083 q 435 1105 390 1083 q 510 1157 479 1126 q 553 1213 542 1188 l 433 1342 q 388 1286 413 1308 q 333 1264 364 1264 q 281 1276 303 1264 q 238 1302 258 1288 q 193 1328 218 1317 q 133 1340 168 1340 q 44 1319 82 1340 q -15 1265 7 1297 q -44 1199 -37 1233 z "},"Ī":{"ha":507,"x_min":-14,"x_max":521,"o":"m 97 972 l 97 0 l 410 0 l 410 972 l 97 972 m -14 1083 l 521 1083 l 521 1313 l -14 1313 l -14 1083 z "},"Ĭ":{"ha":507,"x_min":19,"x_max":486,"o":"m 97 972 l 97 0 l 410 0 l 410 972 l 97 972 m 19 1292 q 47 1183 19 1231 q 128 1110 75 1136 q 253 1083 181 1083 q 378 1110 326 1083 q 458 1183 431 1136 q 486 1292 486 1231 l 325 1292 q 313 1249 325 1264 q 283 1228 300 1233 q 253 1222 267 1222 q 222 1228 239 1222 q 193 1249 206 1233 q 181 1292 181 1264 l 19 1292 z "},"Į":{"ha":507,"x_min":97,"x_max":410,"o":"m 97 972 l 97 0 l 410 0 l 410 972 l 97 972 m 358 -135 q 325 -156 344 -149 q 289 -162 306 -162 q 259 -151 268 -162 q 250 -121 250 -139 q 260 -81 250 -101 q 294 -40 271 -61 q 353 4 317 -18 l 294 39 q 201 -15 246 14 q 126 -78 156 -43 q 97 -162 97 -114 q 122 -241 97 -210 q 182 -287 146 -272 q 256 -301 218 -301 q 356 -284 321 -301 q 406 -246 390 -267 l 358 -135 z "},"İ":{"ha":507,"x_min":97,"x_max":410,"o":"m 97 972 l 97 0 l 410 0 l 410 972 l 97 972 m 103 1219 q 147 1121 103 1158 q 253 1083 190 1083 q 359 1121 315 1083 q 403 1219 403 1158 q 359 1318 403 1281 q 253 1356 315 1356 q 147 1318 190 1356 q 103 1219 103 1281 z "},"J":{"ha":535,"x_min":-272,"x_max":438,"o":"m -104 -54 l -272 -264 q -183 -303 -233 -285 q -72 -335 -132 -322 q 51 -347 -12 -347 q 196 -333 126 -347 q 319 -286 265 -318 q 406 -201 374 -254 q 438 -69 438 -147 l 438 972 l 97 972 l 97 7 q 69 -74 97 -51 q 10 -97 42 -97 q -48 -83 -17 -97 q -104 -54 -79 -69 z "},"Ĵ":{"ha":535,"x_min":-272,"x_max":572,"o":"m -104 -54 l -272 -264 q -183 -303 -233 -285 q -72 -335 -132 -322 q 51 -347 -12 -347 q 196 -333 126 -347 q 319 -286 265 -318 q 406 -201 374 -254 q 438 -69 438 -147 l 438 972 l 97 972 l 97 7 q 69 -74 97 -51 q 10 -97 42 -97 q -48 -83 -17 -97 q -104 -54 -79 -69 m 267 1194 l 378 1083 l 572 1208 l 267 1403 l -39 1208 l 156 1083 l 267 1194 z "},"K":{"ha":1085,"x_min":97,"x_max":1092,"o":"m 97 972 l 97 0 l 417 0 l 417 972 l 97 972 m 715 972 l 329 507 l 722 0 l 1092 0 l 692 517 l 1071 972 l 715 972 z "},"Ķ":{"ha":1085,"x_min":97,"x_max":1092,"o":"m 97 972 l 97 0 l 417 0 l 417 972 l 97 972 m 715 972 l 329 507 l 722 0 l 1092 0 l 692 517 l 1071 972 l 715 972 m 464 -83 l 342 -443 l 547 -478 l 736 -131 l 464 -83 z "},"L":{"ha":799,"x_min":97,"x_max":799,"o":"m 97 972 l 97 0 l 799 0 l 799 257 l 403 257 l 403 972 l 97 972 z "},"Ĺ":{"ha":799,"x_min":97,"x_max":799,"o":"m 97 972 l 97 0 l 799 0 l 799 257 l 403 257 l 403 972 l 97 972 m 699 1292 l 504 1375 l 296 1153 l 449 1083 l 699 1292 z "},"Ļ":{"ha":799,"x_min":97,"x_max":799,"o":"m 97 972 l 97 0 l 799 0 l 799 257 l 403 257 l 403 972 l 97 972 m 374 -83 l 251 -443 l 457 -478 l 644 -131 l 374 -83 z "},"Ľ":{"ha":799,"x_min":97,"x_max":914,"o":"m 97 972 l 97 0 l 799 0 l 799 257 l 403 257 l 403 972 l 97 972 m 643 1000 l 521 640 l 726 606 l 914 953 l 643 1000 z "},"M":{"ha":1306,"x_min":42,"x_max":1264,"o":"m 418 397 l 653 90 l 888 397 l 938 0 l 1264 0 l 1083 1021 l 653 496 l 222 1021 l 42 0 l 368 0 l 418 397 z "},"N":{"ha":1118,"x_min":97,"x_max":1021,"o":"m 729 972 l 729 532 l 97 1021 l 97 0 l 389 0 l 389 440 l 1021 -49 l 1021 972 l 729 972 z "},"Ñ":{"ha":1118,"x_min":97,"x_max":1021,"o":"m 729 972 l 729 532 l 97 1021 l 97 0 l 389 0 l 389 440 l 1021 -49 l 1021 972 l 729 972 m 201 1192 l 317 1085 q 322 1113 317 1096 q 340 1142 326 1129 q 379 1156 354 1156 q 449 1135 415 1156 q 517 1096 482 1115 q 589 1076 551 1076 q 681 1098 638 1076 q 756 1150 725 1119 q 799 1206 788 1181 l 679 1335 q 635 1279 658 1301 q 581 1257 611 1257 q 528 1269 550 1257 q 485 1295 506 1281 q 440 1322 465 1310 q 381 1333 415 1333 q 291 1312 329 1333 q 231 1258 253 1290 q 201 1192 208 1226 z "},"Ń":{"ha":1118,"x_min":97,"x_max":1021,"o":"m 729 972 l 729 532 l 97 1021 l 97 0 l 389 0 l 389 440 l 1021 -49 l 1021 972 l 729 972 m 750 1271 l 556 1354 l 347 1132 l 500 1063 l 750 1271 z "},"Ņ":{"ha":1118,"x_min":97,"x_max":1021,"o":"m 475 -90 l 353 -450 l 558 -485 l 744 -137 l 475 -90 m 729 972 l 729 532 l 97 1021 l 97 0 l 389 0 l 389 440 l 1021 -49 l 1021 972 l 729 972 z "},"Ň":{"ha":1118,"x_min":97,"x_max":1021,"o":"m 500 1271 l 389 1382 l 194 1257 l 500 1063 l 806 1257 l 611 1382 l 500 1271 m 729 972 l 729 532 l 97 1021 l 97 0 l 389 0 l 389 440 l 1021 -49 l 1021 972 l 729 972 z "},"O":{"ha":1167,"x_min":42,"x_max":1125,"o":"m 365 486 q 392 612 365 558 q 467 695 418 665 q 583 725 515 725 q 703 695 656 725 q 776 612 751 665 q 801 486 801 558 q 775 361 801 415 q 700 277 749 307 q 583 247 651 247 q 467 277 515 247 q 392 361 418 307 q 365 486 365 415 m 42 486 q 81 273 42 369 q 193 106 121 176 q 365 -3 265 35 q 583 -42 464 -42 q 802 -3 703 -42 q 974 106 901 35 q 1085 273 1046 176 q 1125 486 1125 369 q 1085 697 1125 603 q 971 860 1044 792 q 799 964 897 928 q 583 1000 700 1000 q 371 964 469 1000 q 199 860 272 928 q 83 697 125 792 q 42 486 42 603 z "},"Ò":{"ha":1167,"x_min":42,"x_max":1125,"o":"m 365 486 q 392 612 365 558 q 467 695 418 665 q 583 725 515 725 q 703 695 656 725 q 776 612 751 665 q 801 486 801 558 q 775 361 801 415 q 700 277 749 307 q 583 247 651 247 q 467 277 515 247 q 392 361 418 307 q 365 486 365 415 m 42 486 q 81 273 42 369 q 193 106 121 176 q 365 -3 265 35 q 583 -42 464 -42 q 802 -3 703 -42 q 974 106 901 35 q 1085 273 1046 176 q 1125 486 1125 369 q 1085 697 1125 603 q 971 860 1044 792 q 799 964 897 928 q 583 1000 700 1000 q 371 964 469 1000 q 199 860 272 928 q 83 697 125 792 q 42 486 42 603 m 354 1306 l 604 1097 l 757 1167 l 549 1389 l 354 1306 z "},"Ó":{"ha":1167,"x_min":42,"x_max":1125,"o":"m 365 486 q 392 612 365 558 q 467 695 418 665 q 583 725 515 725 q 703 695 656 725 q 776 612 751 665 q 801 486 801 558 q 775 361 801 415 q 700 277 749 307 q 583 247 651 247 q 467 277 515 247 q 392 361 418 307 q 365 486 365 415 m 42 486 q 81 273 42 369 q 193 106 121 176 q 365 -3 265 35 q 583 -42 464 -42 q 802 -3 703 -42 q 974 106 901 35 q 1085 273 1046 176 q 1125 486 1125 369 q 1085 697 1125 603 q 971 860 1044 792 q 799 964 897 928 q 583 1000 700 1000 q 371 964 469 1000 q 199 860 272 928 q 83 697 125 792 q 42 486 42 603 m 847 1306 l 653 1389 l 444 1167 l 597 1097 l 847 1306 z "},"Ô":{"ha":1167,"x_min":42,"x_max":1125,"o":"m 365 486 q 392 612 365 558 q 467 695 418 665 q 583 725 515 725 q 703 695 656 725 q 776 612 751 665 q 801 486 801 558 q 775 361 801 415 q 700 277 749 307 q 583 247 651 247 q 467 277 515 247 q 392 361 418 307 q 365 486 365 415 m 42 486 q 81 273 42 369 q 193 106 121 176 q 365 -3 265 35 q 583 -42 464 -42 q 802 -3 703 -42 q 974 106 901 35 q 1085 273 1046 176 q 1125 486 1125 369 q 1085 697 1125 603 q 971 860 1044 792 q 799 964 897 928 q 583 1000 700 1000 q 371 964 469 1000 q 199 860 272 928 q 83 697 125 792 q 42 486 42 603 m 604 1194 l 715 1083 l 910 1208 l 604 1403 l 299 1208 l 493 1083 l 604 1194 z "},"Õ":{"ha":1167,"x_min":42,"x_max":1125,"o":"m 365 486 q 392 612 365 558 q 467 695 418 665 q 583 725 515 725 q 703 695 656 725 q 776 612 751 665 q 801 486 801 558 q 775 361 801 415 q 700 277 749 307 q 583 247 651 247 q 467 277 515 247 q 392 361 418 307 q 365 486 365 415 m 42 486 q 81 273 42 369 q 193 106 121 176 q 365 -3 265 35 q 583 -42 464 -42 q 802 -3 703 -42 q 974 106 901 35 q 1085 273 1046 176 q 1125 486 1125 369 q 1085 697 1125 603 q 971 860 1044 792 q 799 964 897 928 q 583 1000 700 1000 q 371 964 469 1000 q 199 860 272 928 q 83 697 125 792 q 42 486 42 603 m 299 1192 l 414 1085 q 419 1113 414 1096 q 438 1142 424 1129 q 476 1156 451 1156 q 546 1135 513 1156 q 614 1096 579 1115 q 686 1076 649 1076 q 778 1098 735 1076 q 853 1150 822 1119 q 896 1206 885 1181 l 776 1335 q 732 1279 756 1301 q 678 1257 708 1257 q 625 1269 647 1257 q 583 1295 603 1281 q 538 1322 563 1310 q 478 1333 513 1333 q 388 1312 426 1333 q 328 1258 350 1290 q 299 1192 306 1226 z "},"Ö":{"ha":1167,"x_min":42,"x_max":1125,"o":"m 365 486 q 392 612 365 558 q 467 695 418 665 q 583 725 515 725 q 703 695 656 725 q 776 612 751 665 q 801 486 801 558 q 775 361 801 415 q 700 277 749 307 q 583 247 651 247 q 467 277 515 247 q 392 361 418 307 q 365 486 365 415 m 42 486 q 81 273 42 369 q 193 106 121 176 q 365 -3 265 35 q 583 -42 464 -42 q 802 -3 703 -42 q 974 106 901 35 q 1085 273 1046 176 q 1125 486 1125 369 q 1085 697 1125 603 q 971 860 1044 792 q 799 964 897 928 q 583 1000 700 1000 q 371 964 469 1000 q 199 860 272 928 q 83 697 125 792 q 42 486 42 603 m 621 1219 q 665 1121 621 1158 q 771 1083 708 1083 q 877 1121 833 1083 q 921 1219 921 1158 q 877 1318 921 1281 q 771 1356 833 1356 q 665 1318 708 1356 q 621 1219 621 1281 m 246 1219 q 290 1121 246 1158 q 396 1083 333 1083 q 502 1121 458 1083 q 546 1219 546 1158 q 502 1318 546 1281 q 396 1356 458 1356 q 290 1318 333 1356 q 246 1219 246 1281 z "},"Ō":{"ha":1167,"x_min":42,"x_max":1125,"o":"m 365 486 q 392 612 365 558 q 467 695 418 665 q 583 725 515 725 q 703 695 656 725 q 776 612 751 665 q 801 486 801 558 q 775 361 801 415 q 700 277 749 307 q 583 247 651 247 q 467 277 515 247 q 392 361 418 307 q 365 486 365 415 m 42 486 q 81 273 42 369 q 193 106 121 176 q 365 -3 265 35 q 583 -42 464 -42 q 802 -3 703 -42 q 974 106 901 35 q 1085 273 1046 176 q 1125 486 1125 369 q 1085 697 1125 603 q 971 860 1044 792 q 799 964 897 928 q 583 1000 700 1000 q 371 964 469 1000 q 199 860 272 928 q 83 697 125 792 q 42 486 42 603 m 317 1083 l 850 1083 l 850 1313 l 317 1313 l 317 1083 z "},"Ŏ":{"ha":1167,"x_min":42,"x_max":1125,"o":"m 365 486 q 392 612 365 558 q 467 695 418 665 q 583 725 515 725 q 703 695 656 725 q 776 612 751 665 q 801 486 801 558 q 775 361 801 415 q 700 277 749 307 q 583 247 651 247 q 467 277 515 247 q 392 361 418 307 q 365 486 365 415 m 42 486 q 81 273 42 369 q 193 106 121 176 q 365 -3 265 35 q 583 -42 464 -42 q 802 -3 703 -42 q 974 106 901 35 q 1085 273 1046 176 q 1125 486 1125 369 q 1085 697 1125 603 q 971 860 1044 792 q 799 964 897 928 q 583 1000 700 1000 q 371 964 469 1000 q 199 860 272 928 q 83 697 125 792 q 42 486 42 603 m 350 1292 q 378 1183 350 1231 q 458 1110 406 1136 q 583 1083 511 1083 q 709 1110 657 1083 q 789 1183 761 1136 q 817 1292 817 1231 l 656 1292 q 643 1249 656 1264 q 614 1228 631 1233 q 583 1222 597 1222 q 553 1228 569 1222 q 524 1249 536 1233 q 511 1292 511 1264 l 350 1292 z "},"Ő":{"ha":1167,"x_min":42,"x_max":1125,"o":"m 444 1083 l 654 1331 l 449 1381 l 282 1125 l 444 1083 m 722 1083 l 932 1331 l 726 1381 l 560 1125 l 722 1083 m 365 486 q 392 612 365 558 q 467 695 418 665 q 583 725 515 725 q 703 695 656 725 q 776 612 751 665 q 801 486 801 558 q 775 361 801 415 q 700 277 749 307 q 583 247 651 247 q 467 277 515 247 q 392 361 418 307 q 365 486 365 415 m 42 486 q 81 273 42 369 q 193 106 121 176 q 365 -3 265 35 q 583 -42 464 -42 q 802 -3 703 -42 q 974 106 901 35 q 1085 273 1046 176 q 1125 486 1125 369 q 1085 697 1125 603 q 971 860 1044 792 q 799 964 897 928 q 583 1000 700 1000 q 371 964 469 1000 q 199 860 272 928 q 83 697 125 792 q 42 486 42 603 z "},"P":{"ha":928,"x_min":97,"x_max":886,"o":"m 97 972 l 97 0 l 403 0 l 403 972 l 97 972 m 294 729 l 479 729 q 565 706 536 729 q 594 639 594 682 q 565 572 594 596 q 479 549 536 549 l 294 549 l 294 306 l 479 306 q 712 346 622 306 q 844 461 801 386 q 886 639 886 536 q 844 817 886 743 q 712 932 801 892 q 479 972 622 972 l 294 972 l 294 729 z "},"Q":{"ha":1261,"x_min":42,"x_max":1275,"o":"m 365 486 q 393 612 365 558 q 472 695 421 665 q 590 725 522 725 q 732 685 676 725 q 815 581 788 644 q 843 444 843 517 q 815 323 843 374 q 737 246 788 272 q 618 219 686 219 q 492 251 550 219 q 400 342 435 282 q 365 486 365 401 m 42 486 q 82 273 42 369 q 197 106 122 176 q 371 -3 271 35 q 590 -42 471 -42 q 808 -3 710 -42 q 977 106 906 35 q 1087 273 1049 176 q 1125 486 1125 369 q 1085 697 1125 603 q 974 860 1046 792 q 805 964 903 928 q 590 1000 707 1000 q 377 964 476 1000 q 202 860 278 928 q 84 697 126 792 q 42 486 42 603 m 476 417 l 963 -28 l 1275 -28 l 775 417 l 476 417 z "},"R":{"ha":972,"x_min":97,"x_max":972,"o":"m 382 417 l 618 0 l 972 0 l 694 417 l 382 417 m 97 972 l 97 0 l 403 0 l 403 972 l 97 972 m 294 715 l 479 715 q 543 705 518 715 q 581 674 568 694 q 594 625 594 654 q 581 576 594 597 q 543 545 568 556 q 479 535 518 535 l 294 535 l 294 306 l 507 306 q 740 349 650 306 q 872 467 829 392 q 914 639 914 543 q 872 811 914 736 q 740 929 829 886 q 507 972 650 972 l 294 972 l 294 715 z "},"Ŕ":{"ha":972,"x_min":97,"x_max":972,"o":"m 382 417 l 618 0 l 972 0 l 694 417 l 382 417 m 97 972 l 97 0 l 403 0 l 403 972 l 97 972 m 294 715 l 479 715 q 543 705 518 715 q 581 674 568 694 q 594 625 594 654 q 581 576 594 597 q 543 545 568 556 q 479 535 518 535 l 294 535 l 294 306 l 507 306 q 740 349 650 306 q 872 467 829 392 q 914 639 914 543 q 872 811 914 736 q 740 929 829 886 q 507 972 650 972 l 294 972 l 294 715 m 706 1292 l 511 1375 l 303 1153 l 456 1083 l 706 1292 z "},"Ŗ":{"ha":972,"x_min":97,"x_max":972,"o":"m 382 417 l 618 0 l 972 0 l 694 417 l 382 417 m 97 972 l 97 0 l 403 0 l 403 972 l 97 972 m 294 715 l 479 715 q 543 705 518 715 q 581 674 568 694 q 594 625 594 654 q 581 576 594 597 q 543 545 568 556 q 479 535 518 535 l 294 535 l 294 306 l 507 306 q 740 349 650 306 q 872 467 829 392 q 914 639 914 543 q 872 811 914 736 q 740 929 829 886 q 507 972 650 972 l 294 972 l 294 715 m 461 -83 l 339 -443 l 544 -478 l 731 -131 l 461 -83 z "},"Ř":{"ha":972,"x_min":97,"x_max":972,"o":"m 382 417 l 618 0 l 972 0 l 694 417 l 382 417 m 97 972 l 97 0 l 403 0 l 403 972 l 97 972 m 294 715 l 479 715 q 543 705 518 715 q 581 674 568 694 q 594 625 594 654 q 581 576 594 597 q 543 545 568 556 q 479 535 518 535 l 294 535 l 294 306 l 507 306 q 740 349 650 306 q 872 467 829 392 q 914 639 914 543 q 872 811 914 736 q 740 929 829 886 q 507 972 650 972 l 294 972 l 294 715 m 483 1292 l 372 1403 l 178 1278 l 483 1083 l 789 1278 l 594 1403 l 483 1292 z "},"Ȓ":{"ha":972,"x_min":97,"x_max":972,"o":"m 382 417 l 618 0 l 972 0 l 694 417 l 382 417 m 97 972 l 97 0 l 403 0 l 403 972 l 97 972 m 294 715 l 479 715 q 543 705 518 715 q 581 674 568 694 q 594 625 594 654 q 581 576 594 597 q 543 545 568 556 q 479 535 518 535 l 294 535 l 294 306 l 507 306 q 740 349 650 306 q 872 467 829 392 q 914 639 914 543 q 872 811 914 736 q 740 929 829 886 q 507 972 650 972 l 294 972 l 294 715 m 264 1083 q 292 1192 264 1146 q 372 1265 319 1239 q 497 1292 425 1292 q 623 1265 571 1292 q 703 1192 675 1239 q 731 1083 731 1146 l 569 1083 q 557 1127 569 1113 q 528 1147 544 1142 q 497 1153 511 1153 q 467 1147 483 1153 q 438 1127 450 1142 q 425 1083 425 1113 l 264 1083 z "},"S":{"ha":933,"x_min":42,"x_max":885,"o":"m 247 369 l 42 219 q 140 86 75 146 q 295 -8 206 26 q 489 -42 385 -42 q 635 -21 564 -42 q 762 40 706 0 q 851 142 818 81 q 885 285 885 204 q 868 388 885 342 q 819 472 851 435 q 740 538 786 510 q 636 588 694 567 q 532 624 579 608 q 456 659 485 640 q 428 707 428 678 q 448 742 428 731 q 500 753 468 753 q 554 743 526 753 q 609 713 582 733 q 658 658 636 693 l 885 783 q 808 883 858 833 q 678 967 757 933 q 490 1000 600 1000 q 304 967 389 1000 q 168 868 219 933 q 117 707 117 803 q 144 579 117 633 q 212 488 171 525 q 298 426 253 450 q 378 389 343 403 q 496 340 457 358 q 548 308 535 322 q 561 275 561 294 q 536 228 561 243 q 475 214 511 214 q 390 232 432 214 q 311 285 347 250 q 247 369 275 321 z "},"Ś":{"ha":933,"x_min":42,"x_max":885,"o":"m 247 369 l 42 219 q 137 81 72 140 q 288 -10 201 22 q 467 -42 374 -42 q 685 -7 592 -42 q 832 98 779 28 q 885 278 885 168 q 868 388 885 339 q 819 474 851 436 q 740 539 786 511 q 636 588 694 567 q 528 624 579 608 q 446 658 478 640 q 414 700 414 675 q 424 726 414 715 q 453 742 435 736 q 497 749 472 749 q 551 740 525 749 q 600 712 576 732 q 644 658 624 692 l 871 783 q 806 883 851 833 q 681 967 760 933 q 482 1000 603 1000 q 283 964 368 1000 q 150 862 197 928 q 103 708 103 796 q 132 578 103 632 q 205 487 161 524 q 296 427 249 450 q 378 389 343 404 q 474 351 433 367 q 538 320 515 336 q 561 276 561 304 q 551 243 561 256 q 520 225 540 231 q 472 219 500 219 q 408 228 438 219 q 351 255 378 236 q 300 302 325 274 q 247 369 275 331 m 732 1292 l 538 1375 l 329 1153 l 482 1083 l 732 1292 z "},"Ŝ":{"ha":933,"x_min":42,"x_max":885,"o":"m 247 369 l 42 219 q 137 81 72 140 q 288 -10 201 22 q 467 -42 374 -42 q 685 -7 592 -42 q 832 98 779 28 q 885 278 885 168 q 868 388 885 339 q 819 474 851 436 q 740 539 786 511 q 636 588 694 567 q 528 624 579 608 q 446 658 478 640 q 414 700 414 675 q 424 726 414 715 q 453 742 435 736 q 497 749 472 749 q 551 740 525 749 q 600 712 576 732 q 644 658 624 692 l 871 783 q 806 883 851 833 q 681 967 760 933 q 482 1000 603 1000 q 283 964 368 1000 q 150 862 197 928 q 103 708 103 796 q 132 578 103 632 q 205 487 161 524 q 296 427 249 450 q 378 389 343 404 q 474 351 433 367 q 538 320 515 336 q 561 276 561 304 q 551 243 561 256 q 520 225 540 231 q 472 219 500 219 q 408 228 438 219 q 351 255 378 236 q 300 302 325 274 q 247 369 275 331 m 482 1194 l 593 1083 l 788 1208 l 482 1403 l 176 1208 l 371 1083 l 482 1194 z "},"Ş":{"ha":933,"x_min":42,"x_max":885,"o":"m 247 369 l 42 219 q 137 81 72 140 q 288 -10 201 22 q 467 -42 374 -42 q 685 -7 592 -42 q 832 98 779 28 q 885 278 885 168 q 868 388 885 339 q 819 474 851 436 q 740 539 786 511 q 636 588 694 567 q 528 624 579 608 q 446 658 478 640 q 414 700 414 675 q 424 726 414 715 q 453 742 435 736 q 497 749 472 749 q 551 740 525 749 q 600 712 576 732 q 644 658 624 692 l 871 783 q 806 883 851 833 q 681 967 760 933 q 482 1000 603 1000 q 283 964 368 1000 q 150 862 197 928 q 103 708 103 796 q 132 578 103 632 q 205 487 161 524 q 296 427 249 450 q 378 389 343 404 q 474 351 433 367 q 538 320 515 336 q 561 276 561 304 q 551 243 561 256 q 520 225 540 231 q 472 219 500 219 q 408 228 438 219 q 351 255 378 236 q 300 302 325 274 q 247 369 275 331 m 397 86 l 274 -207 q 358 -189 318 -192 q 408 -186 399 -186 q 470 -192 439 -186 q 501 -228 501 -199 q 480 -262 501 -253 q 422 -272 458 -272 q 365 -265 406 -272 q 294 -236 325 -257 l 221 -356 q 340 -399 282 -387 q 467 -411 397 -411 q 560 -393 514 -411 q 638 -338 607 -375 q 669 -247 669 -301 q 647 -160 669 -194 q 590 -108 624 -125 q 526 -92 557 -92 q 488 -93 506 -92 q 453 -100 469 -94 l 592 78 l 397 86 z "},"Š":{"ha":933,"x_min":42,"x_max":885,"o":"m 247 369 l 42 219 q 137 81 72 140 q 288 -10 201 22 q 467 -42 374 -42 q 685 -7 592 -42 q 832 98 779 28 q 885 278 885 168 q 868 388 885 339 q 819 474 851 436 q 740 539 786 511 q 636 588 694 567 q 528 624 579 608 q 446 658 478 640 q 414 700 414 675 q 424 726 414 715 q 453 742 435 736 q 497 749 472 749 q 551 740 525 749 q 600 712 576 732 q 644 658 624 692 l 871 783 q 806 883 851 833 q 681 967 760 933 q 482 1000 603 1000 q 283 964 368 1000 q 150 862 197 928 q 103 708 103 796 q 132 578 103 632 q 205 487 161 524 q 296 427 249 450 q 378 389 343 404 q 474 351 433 367 q 538 320 515 336 q 561 276 561 304 q 551 243 561 256 q 520 225 540 231 q 472 219 500 219 q 408 228 438 219 q 351 255 378 236 q 300 302 325 274 q 247 369 275 331 m 482 1292 l 371 1403 l 176 1278 l 482 1083 l 788 1278 l 593 1403 l 482 1292 z "},"Ș":{"ha":933,"x_min":42,"x_max":885,"o":"m 247 369 l 42 219 q 137 81 72 140 q 288 -10 201 22 q 467 -42 374 -42 q 685 -7 592 -42 q 832 98 779 28 q 885 278 885 168 q 868 388 885 339 q 819 474 851 436 q 740 539 786 511 q 636 588 694 567 q 528 624 579 608 q 446 658 478 640 q 414 700 414 675 q 424 726 414 715 q 453 742 435 736 q 497 749 472 749 q 551 740 525 749 q 600 712 576 732 q 644 658 624 692 l 871 783 q 806 883 851 833 q 681 967 760 933 q 482 1000 603 1000 q 283 964 368 1000 q 150 862 197 928 q 103 708 103 796 q 132 578 103 632 q 205 487 161 524 q 296 427 249 450 q 378 389 343 404 q 474 351 433 367 q 538 320 515 336 q 561 276 561 304 q 551 243 561 256 q 520 225 540 231 q 472 219 500 219 q 408 228 438 219 q 351 255 378 236 q 300 302 325 274 q 247 369 275 331 m 336 -97 l 214 -457 l 419 -492 l 608 -144 l 336 -97 z "},"T":{"ha":861,"x_min":0,"x_max":861,"o":"m 0 701 l 278 701 l 278 0 l 583 0 l 583 701 l 861 701 l 861 972 l 0 972 l 0 701 z "},"Ţ":{"ha":861,"x_min":0,"x_max":861,"o":"m 333 17 l 210 -276 q 294 -258 254 -261 q 344 -256 335 -256 q 406 -262 375 -256 q 438 -297 438 -268 q 416 -332 438 -322 q 358 -342 394 -342 q 301 -334 342 -342 q 231 -306 261 -326 l 157 -425 q 276 -469 218 -457 q 403 -481 333 -481 q 497 -462 450 -481 q 574 -408 543 -444 q 606 -317 606 -371 q 583 -229 606 -264 q 526 -178 560 -194 q 463 -161 493 -161 q 424 -162 442 -161 q 389 -169 406 -164 l 528 8 l 333 17 m 0 701 l 278 701 l 278 0 l 583 0 l 583 701 l 861 701 l 861 972 l 0 972 l 0 701 z "},"Ť":{"ha":861,"x_min":0,"x_max":861,"o":"m 0 701 l 278 701 l 278 0 l 583 0 l 583 701 l 861 701 l 861 972 l 0 972 l 0 701 m 431 1292 l 319 1403 l 125 1278 l 431 1083 l 736 1278 l 542 1403 l 431 1292 z "},"Ț":{"ha":861,"x_min":0,"x_max":861,"o":"m 0 701 l 278 701 l 278 0 l 583 0 l 583 701 l 861 701 l 861 972 l 0 972 l 0 701 m 357 -83 l 235 -443 l 440 -478 l 628 -131 l 357 -83 z "},"U":{"ha":1036,"x_min":90,"x_max":946,"o":"m 90 972 l 90 319 q 124 144 90 215 q 218 28 158 72 q 355 -35 278 -15 q 518 -56 432 -56 q 681 -35 604 -56 q 818 28 758 -15 q 912 144 878 72 q 946 319 946 215 l 946 972 l 640 972 l 640 347 q 610 252 640 289 q 518 215 581 215 q 426 252 456 215 q 396 347 396 289 l 396 972 l 90 972 z "},"Ù":{"ha":1036,"x_min":90,"x_max":946,"o":"m 90 972 l 90 319 q 124 144 90 215 q 218 28 158 72 q 355 -35 278 -15 q 518 -56 432 -56 q 681 -35 604 -56 q 818 28 758 -15 q 912 144 878 72 q 946 319 946 215 l 946 972 l 640 972 l 640 347 q 610 252 640 289 q 518 215 581 215 q 426 252 456 215 q 396 347 396 289 l 396 972 l 90 972 m 268 1292 l 518 1083 l 671 1153 l 463 1375 l 268 1292 z "},"Ú":{"ha":1036,"x_min":90,"x_max":946,"o":"m 90 972 l 90 319 q 124 144 90 215 q 218 28 158 72 q 355 -35 278 -15 q 518 -56 432 -56 q 681 -35 604 -56 q 818 28 758 -15 q 912 144 878 72 q 946 319 946 215 l 946 972 l 640 972 l 640 347 q 610 252 640 289 q 518 215 581 215 q 426 252 456 215 q 396 347 396 289 l 396 972 l 90 972 m 768 1292 l 574 1375 l 365 1153 l 518 1083 l 768 1292 z "},"Û":{"ha":1036,"x_min":90,"x_max":946,"o":"m 90 972 l 90 319 q 124 144 90 215 q 218 28 158 72 q 355 -35 278 -15 q 518 -56 432 -56 q 681 -35 604 -56 q 818 28 758 -15 q 912 144 878 72 q 946 319 946 215 l 946 972 l 640 972 l 640 347 q 610 252 640 289 q 518 215 581 215 q 426 252 456 215 q 396 347 396 289 l 396 972 l 90 972 m 518 1194 l 629 1083 l 824 1208 l 518 1403 l 213 1208 l 407 1083 l 518 1194 z "},"Ü":{"ha":1036,"x_min":90,"x_max":946,"o":"m 90 972 l 90 319 q 124 144 90 215 q 218 28 158 72 q 355 -35 278 -15 q 518 -56 432 -56 q 681 -35 604 -56 q 818 28 758 -15 q 912 144 878 72 q 946 319 946 215 l 946 972 l 640 972 l 640 347 q 610 252 640 289 q 518 215 581 215 q 426 252 456 215 q 396 347 396 289 l 396 972 l 90 972 m 597 1219 q 641 1121 597 1158 q 747 1083 685 1083 q 853 1121 810 1083 q 897 1219 897 1158 q 853 1318 897 1281 q 747 1356 810 1356 q 641 1318 685 1356 q 597 1219 597 1281 m 139 1219 q 183 1121 139 1158 q 289 1083 226 1083 q 395 1121 351 1083 q 439 1219 439 1158 q 395 1318 439 1281 q 289 1356 351 1356 q 183 1318 226 1356 q 139 1219 139 1281 z "},"Ũ":{"ha":1036,"x_min":90,"x_max":946,"o":"m 90 972 l 90 319 q 124 144 90 215 q 218 28 158 72 q 355 -35 278 -15 q 518 -56 432 -56 q 681 -35 604 -56 q 818 28 758 -15 q 912 144 878 72 q 946 319 946 215 l 946 972 l 640 972 l 640 347 q 610 252 640 289 q 518 215 581 215 q 426 252 456 215 q 396 347 396 289 l 396 972 l 90 972 m 219 1199 l 335 1092 q 340 1119 335 1103 q 358 1149 344 1136 q 397 1163 372 1163 q 467 1142 433 1163 q 535 1103 500 1122 q 607 1083 569 1083 q 699 1105 656 1083 q 774 1157 743 1126 q 817 1213 806 1188 l 697 1342 q 653 1286 676 1308 q 599 1264 629 1264 q 546 1276 568 1264 q 503 1302 524 1288 q 458 1328 483 1317 q 399 1340 433 1340 q 309 1319 347 1340 q 249 1265 271 1297 q 219 1199 226 1233 z "},"Ū":{"ha":1036,"x_min":90,"x_max":946,"o":"m 90 972 l 90 319 q 124 144 90 215 q 218 28 158 72 q 355 -35 278 -15 q 518 -56 432 -56 q 681 -35 604 -56 q 818 28 758 -15 q 912 144 878 72 q 946 319 946 215 l 946 972 l 640 972 l 640 347 q 610 252 640 289 q 518 215 581 215 q 426 252 456 215 q 396 347 396 289 l 396 972 l 90 972 m 251 1083 l 786 1083 l 786 1313 l 251 1313 l 251 1083 z "},"Ŭ":{"ha":1036,"x_min":90,"x_max":946,"o":"m 90 972 l 90 319 q 124 144 90 215 q 218 28 158 72 q 355 -35 278 -15 q 518 -56 432 -56 q 681 -35 604 -56 q 818 28 758 -15 q 912 144 878 72 q 946 319 946 215 l 946 972 l 640 972 l 640 347 q 610 252 640 289 q 518 215 581 215 q 426 252 456 215 q 396 347 396 289 l 396 972 l 90 972 m 285 1292 q 313 1183 285 1231 q 393 1110 340 1136 q 518 1083 446 1083 q 644 1110 592 1083 q 724 1183 696 1136 q 751 1292 751 1231 l 590 1292 q 578 1249 590 1264 q 549 1228 565 1233 q 518 1222 532 1222 q 488 1228 504 1222 q 458 1249 471 1233 q 446 1292 446 1264 l 285 1292 z "},"Ů":{"ha":1036,"x_min":90,"x_max":946,"o":"m 90 972 l 90 319 q 124 144 90 215 q 218 28 158 72 q 355 -35 278 -15 q 518 -56 432 -56 q 681 -35 604 -56 q 818 28 758 -15 q 912 144 878 72 q 946 319 946 215 l 946 972 l 640 972 l 640 347 q 610 252 640 289 q 518 215 581 215 q 426 252 456 215 q 396 347 396 289 l 396 972 l 90 972 m 325 1257 q 379 1132 325 1181 q 517 1083 433 1083 q 656 1132 600 1083 q 711 1258 711 1181 q 656 1383 711 1335 q 517 1431 600 1431 q 379 1383 433 1431 q 325 1257 325 1335 m 457 1257 q 474 1303 457 1286 q 517 1319 490 1319 q 560 1303 543 1319 q 578 1257 578 1286 q 560 1212 578 1228 q 517 1196 543 1196 q 474 1212 490 1196 q 457 1257 457 1228 z "},"Ű":{"ha":1036,"x_min":90,"x_max":946,"o":"m 379 1083 l 589 1331 l 383 1381 l 217 1125 l 379 1083 m 657 1083 l 867 1331 l 661 1381 l 494 1125 l 657 1083 m 90 972 l 90 319 q 124 144 90 215 q 218 28 158 72 q 355 -35 278 -15 q 518 -56 432 -56 q 681 -35 604 -56 q 818 28 758 -15 q 912 144 878 72 q 946 319 946 215 l 946 972 l 640 972 l 640 347 q 610 252 640 289 q 518 215 581 215 q 426 252 456 215 q 396 347 396 289 l 396 972 l 90 972 z "},"Ų":{"ha":1036,"x_min":90,"x_max":946,"o":"m 582 -171 q 549 -192 568 -185 q 513 -199 529 -199 q 483 -187 492 -199 q 474 -157 474 -175 q 484 -117 474 -137 q 517 -76 494 -97 q 575 -32 539 -54 l 518 3 q 424 -51 469 -22 q 350 -115 379 -79 q 321 -199 321 -150 q 344 -277 321 -246 q 404 -323 368 -308 q 478 -337 440 -337 q 578 -320 543 -337 q 628 -282 613 -303 l 582 -171 m 90 972 l 90 319 q 124 144 90 215 q 218 28 158 72 q 355 -35 278 -15 q 518 -56 432 -56 q 681 -35 604 -56 q 818 28 758 -15 q 912 144 878 72 q 946 319 946 215 l 946 972 l 640 972 l 640 347 q 610 252 640 289 q 518 215 581 215 q 426 252 456 215 q 396 347 396 289 l 396 972 l 90 972 z "},"V":{"ha":1083,"x_min":-7,"x_max":1090,"o":"m 542 497 l 354 972 l -7 972 l 542 -69 l 1090 972 l 729 972 l 542 497 z "},"W":{"ha":1542,"x_min":0,"x_max":1542,"o":"m 1024 515 l 771 1021 l 518 515 l 368 972 l 0 972 l 444 -62 l 771 421 l 1097 -62 l 1542 972 l 1174 972 l 1024 515 z "},"Ŵ":{"ha":1542,"x_min":0,"x_max":1542,"o":"m 1038 488 l 771 1021 l 504 488 l 368 972 l 0 972 l 444 -62 l 771 421 l 1097 -62 l 1542 972 l 1174 972 l 1038 488 m 771 1215 l 882 1104 l 1076 1229 l 771 1424 l 465 1229 l 660 1104 l 771 1215 z "},"Ẁ":{"ha":1542,"x_min":0,"x_max":1542,"o":"m 771 1104 l 924 1174 l 715 1396 l 521 1313 l 771 1104 m 1024 515 l 771 1021 l 518 515 l 368 972 l 0 972 l 444 -62 l 771 421 l 1097 -62 l 1542 972 l 1174 972 l 1024 515 z "},"Ẃ":{"ha":1542,"x_min":0,"x_max":1542,"o":"m 771 1104 l 1021 1313 l 826 1396 l 618 1174 l 771 1104 m 1024 515 l 771 1021 l 518 515 l 368 972 l 0 972 l 444 -62 l 771 421 l 1097 -62 l 1542 972 l 1174 972 l 1024 515 z "},"Ẅ":{"ha":1542,"x_min":0,"x_max":1542,"o":"m 808 1240 q 852 1142 808 1179 q 958 1104 896 1104 q 1065 1142 1021 1104 q 1108 1240 1108 1179 q 1065 1339 1108 1301 q 958 1376 1021 1376 q 852 1339 896 1376 q 808 1240 808 1301 m 433 1240 q 477 1142 433 1179 q 583 1104 521 1104 q 690 1142 646 1104 q 733 1240 733 1179 q 690 1339 733 1301 q 583 1376 646 1376 q 477 1339 521 1376 q 433 1240 433 1301 m 1024 515 l 771 1021 l 518 515 l 368 972 l 0 972 l 444 -62 l 771 421 l 1097 -62 l 1542 972 l 1174 972 l 1024 515 z "},"Ẇ":{"ha":1542,"x_min":0,"x_max":1542,"o":"m 621 1240 q 665 1142 621 1179 q 771 1104 708 1104 q 877 1142 833 1104 q 921 1240 921 1179 q 877 1339 921 1301 q 771 1376 833 1376 q 665 1339 708 1376 q 621 1240 621 1301 m 1024 515 l 771 1021 l 518 515 l 368 972 l 0 972 l 444 -62 l 771 421 l 1097 -62 l 1542 972 l 1174 972 l 1024 515 z "},"Ẉ":{"ha":1542,"x_min":0,"x_max":1542,"o":"m 621 -282 q 665 -381 621 -343 q 771 -418 708 -418 q 877 -381 833 -418 q 921 -282 921 -343 q 877 -183 921 -221 q 771 -146 833 -146 q 665 -183 708 -146 q 621 -282 621 -221 m 1024 515 l 771 1021 l 518 515 l 368 972 l 0 972 l 444 -62 l 771 421 l 1097 -62 l 1542 972 l 1174 972 l 1024 515 z "},"X":{"ha":1063,"x_min":0,"x_max":1063,"o":"m 660 972 l 536 738 l 417 972 l 35 972 l 344 492 l 0 0 l 382 0 l 533 272 l 681 0 l 1063 0 l 726 492 l 1042 972 l 660 972 z "},"Y":{"ha":1000,"x_min":-7,"x_max":1007,"o":"m 653 972 l 500 658 l 347 972 l -7 972 l 344 379 l 344 0 l 657 0 l 657 382 l 1007 972 l 653 972 z "},"Ý":{"ha":1000,"x_min":-7,"x_max":1007,"o":"m 750 1292 l 556 1375 l 347 1153 l 500 1083 l 750 1292 m 653 972 l 500 658 l 347 972 l -7 972 l 344 379 l 344 0 l 657 0 l 657 382 l 1007 972 l 653 972 z "},"Ŷ":{"ha":1000,"x_min":-7,"x_max":1007,"o":"m 653 972 l 500 658 l 347 972 l -7 972 l 344 379 l 344 0 l 657 0 l 657 382 l 1007 972 l 653 972 m 500 1194 l 611 1083 l 806 1208 l 500 1403 l 194 1208 l 389 1083 l 500 1194 z "},"Ÿ":{"ha":1000,"x_min":-7,"x_max":1007,"o":"m 121 1243 q 165 1144 121 1182 q 271 1107 208 1107 q 377 1144 333 1107 q 421 1243 421 1182 q 377 1342 421 1304 q 271 1379 333 1379 q 165 1342 208 1379 q 121 1243 121 1304 m 579 1243 q 623 1144 579 1182 q 729 1107 667 1107 q 835 1144 792 1107 q 879 1243 879 1182 q 835 1342 879 1304 q 729 1379 792 1379 q 623 1342 667 1379 q 579 1243 579 1304 m 653 972 l 500 658 l 347 972 l -7 972 l 344 379 l 344 0 l 657 0 l 657 382 l 1007 972 l 653 972 z "},"Ỳ":{"ha":1000,"x_min":-7,"x_max":1007,"o":"m 500 1083 l 653 1153 l 444 1375 l 250 1292 l 500 1083 m 653 972 l 500 658 l 347 972 l -7 972 l 344 379 l 344 0 l 657 0 l 657 382 l 1007 972 l 653 972 z "},"Z":{"ha":924,"x_min":7,"x_max":910,"o":"m 97 701 l 425 701 l 7 0 l 847 0 l 847 257 l 482 257 l 910 972 l 97 972 l 97 701 z "},"Ź":{"ha":924,"x_min":7,"x_max":910,"o":"m 97 701 l 425 701 l 7 0 l 847 0 l 847 257 l 482 257 l 910 972 l 97 972 l 97 701 m 753 1292 l 558 1375 l 350 1153 l 503 1083 l 753 1292 z "},"Ż":{"ha":924,"x_min":7,"x_max":910,"o":"m 97 701 l 425 701 l 7 0 l 847 0 l 847 257 l 482 257 l 910 972 l 97 972 l 97 701 m 353 1219 q 397 1121 353 1158 q 503 1083 440 1083 q 609 1121 565 1083 q 653 1219 653 1158 q 609 1318 653 1281 q 503 1356 565 1356 q 397 1318 440 1356 q 353 1219 353 1281 z "},"Ž":{"ha":924,"x_min":7,"x_max":910,"o":"m 97 701 l 425 701 l 7 0 l 847 0 l 847 257 l 482 257 l 910 972 l 97 972 l 97 701 m 503 1292 l 392 1403 l 197 1278 l 503 1083 l 808 1278 l 614 1403 l 503 1292 z "},"Æ":{"ha":1611,"x_min":28,"x_max":1514,"o":"m 419 160 l 850 160 l 850 438 l 433 438 l 419 160 m 611 972 l 28 0 l 424 0 l 915 917 l 611 972 m 954 0 l 1514 0 l 1514 243 l 954 243 l 954 0 m 965 729 l 1514 729 l 1514 972 l 611 972 l 965 729 m 954 382 l 1486 382 l 1486 618 l 954 618 l 954 382 m 813 972 l 813 0 l 1146 0 l 1146 972 l 813 972 z "},"Ð":{"ha":1063,"x_min":8,"x_max":1021,"o":"m 8 414 l 536 414 l 536 574 l 8 574 l 8 414 m 97 972 l 97 0 l 415 0 l 415 972 l 97 972 m 479 0 q 770 58 649 0 q 956 226 892 117 q 1021 486 1021 335 q 956 747 1021 639 q 770 914 892 856 q 479 972 649 972 l 308 972 l 308 708 l 465 708 q 547 701 506 708 q 624 672 589 694 q 680 606 658 650 q 701 486 701 561 q 680 367 701 411 q 624 300 658 322 q 547 271 589 278 q 465 264 506 264 l 308 264 l 308 0 l 479 0 z "},"Ø":{"ha":1097,"x_min":42,"x_max":1125,"o":"m 365 486 q 392 615 365 561 q 467 697 418 668 q 583 725 515 725 q 700 697 651 725 q 775 615 749 668 q 801 486 801 561 q 775 358 801 411 q 700 276 749 304 q 583 247 651 247 q 467 276 515 247 q 392 358 418 304 q 365 486 365 411 m 42 486 q 82 273 42 369 q 196 106 122 176 q 368 -3 269 35 q 583 -42 467 -42 q 799 -3 700 -42 q 971 106 897 35 q 1085 273 1044 176 q 1125 486 1125 369 q 1085 697 1125 603 q 971 860 1044 792 q 799 964 897 928 q 583 1000 700 1000 q 368 964 467 1000 q 196 860 269 928 q 82 697 122 792 q 42 486 42 603 m 976 1056 l 76 0 l 185 -83 l 1086 972 l 976 1056 z "},"Þ":{"ha":903,"x_min":111,"x_max":872,"o":"m 111 972 l 111 0 l 368 0 l 368 972 l 111 972 m 281 590 l 465 590 q 545 582 514 590 q 592 553 576 574 q 608 493 608 532 q 592 433 608 454 q 545 404 576 413 q 465 396 514 396 l 281 396 l 281 167 l 465 167 q 698 205 608 167 q 830 317 788 243 q 872 493 872 390 q 830 670 872 597 q 698 781 788 743 q 465 819 608 819 l 281 819 l 281 590 z "},"Đ":{"ha":1063,"x_min":7,"x_max":1021,"o":"m 7 403 l 521 403 l 521 563 l 7 563 l 7 403 m 97 972 l 97 0 l 415 0 l 415 972 l 97 972 m 479 0 q 770 58 649 0 q 956 226 892 117 q 1021 486 1021 335 q 956 747 1021 639 q 770 914 892 856 q 479 972 649 972 l 308 972 l 308 708 l 465 708 q 547 701 506 708 q 624 672 589 694 q 680 606 658 650 q 701 486 701 561 q 680 367 701 411 q 624 300 658 322 q 547 271 589 278 q 465 264 506 264 l 308 264 l 308 0 l 479 0 z "},"Ħ":{"ha":1153,"x_min":7,"x_max":1146,"o":"m 163 368 l 940 368 l 940 639 l 163 639 l 163 368 m 750 972 l 750 0 l 1056 0 l 1056 972 l 750 972 m 97 972 l 97 0 l 403 0 l 403 972 l 97 972 m 7 743 l 1146 743 l 1146 917 l 7 917 l 7 743 z "},"Ĳ":{"ha":979,"x_min":97,"x_max":882,"o":"m 340 -54 l 172 -264 q 262 -303 211 -285 q 372 -335 313 -322 q 496 -347 432 -347 q 640 -333 571 -347 q 764 -286 710 -318 q 850 -201 818 -254 q 882 -69 882 -147 l 882 972 l 542 972 l 542 7 q 514 -74 542 -51 q 454 -97 486 -97 q 397 -83 428 -97 q 340 -54 365 -69 m 97 972 l 97 0 l 410 0 l 410 972 l 97 972 z "},"Ŀ":{"ha":799,"x_min":97,"x_max":835,"o":"m 97 972 l 97 0 l 799 0 l 799 257 l 403 257 l 403 972 l 97 972 m 507 611 q 553 499 507 546 q 671 451 599 451 q 790 499 744 451 q 835 611 835 546 q 790 724 835 676 q 671 771 744 771 q 553 724 599 771 q 507 611 507 676 z "},"Ł":{"ha":813,"x_min":-62,"x_max":799,"o":"m 7 403 l 590 806 l 521 924 l -62 521 l 7 403 m 97 972 l 97 0 l 799 0 l 799 257 l 403 257 l 403 972 l 97 972 z "},"Ŋ":{"ha":1118,"x_min":97,"x_max":1021,"o":"m 746 -294 q 892 -265 831 -294 q 988 -183 954 -236 q 1021 -58 1021 -131 l 1021 972 l 729 972 l 729 533 l 97 1021 l 97 0 l 389 0 l 389 439 l 764 150 l 764 18 q 756 -23 764 -6 q 733 -49 747 -40 q 697 -58 718 -58 q 665 -50 679 -58 q 635 -24 651 -42 l 536 -215 q 638 -276 590 -258 q 746 -294 686 -294 z "},"Œ":{"ha":1368,"x_min":42,"x_max":1349,"o":"m 781 382 l 1319 382 l 1319 618 l 781 618 l 781 382 m 646 931 l 646 42 l 938 42 l 938 931 l 646 931 m 1349 243 l 794 243 l 761 264 l 611 264 q 497 276 544 264 q 420 316 450 289 q 376 385 390 343 q 361 486 361 428 q 375 587 361 544 q 419 656 389 629 q 497 696 450 683 q 611 708 544 708 l 765 708 l 789 729 l 1347 729 l 1347 972 l 542 972 q 344 938 436 972 q 185 838 253 903 q 80 684 118 774 q 42 486 42 594 q 80 288 42 378 q 186 134 118 199 q 345 35 254 69 q 542 0 436 0 l 1349 0 l 1349 243 z "},"Ŧ":{"ha":861,"x_min":0,"x_max":861,"o":"m 147 354 l 717 354 l 717 583 l 147 583 l 147 354 m 0 701 l 278 701 l 278 0 l 583 0 l 583 701 l 861 701 l 861 972 l 0 972 l 0 701 z "},"ẞ":{"ha":1214,"x_min":111,"x_max":1153,"o":"m 850 -17 q 665 -4 763 -17 q 486 31 567 8 l 539 275 q 661 238 604 251 q 750 225 718 225 q 793 231 775 225 q 821 248 811 236 q 831 278 831 260 q 814 327 831 307 q 772 363 797 347 q 722 397 747 379 q 681 438 697 414 q 664 494 664 461 q 672 537 664 518 q 691 570 679 556 q 714 598 703 585 q 733 625 725 611 q 740 656 740 639 q 724 694 740 678 q 680 720 707 711 q 621 729 653 729 q 505 694 547 729 q 445 599 463 660 q 428 458 428 538 l 428 -3 l 111 -3 l 111 489 q 133 690 111 597 q 211 853 156 783 q 366 961 267 922 q 618 1000 465 1000 q 875 963 774 1000 q 1026 863 976 925 q 1075 731 1075 801 q 1067 665 1075 696 q 1049 609 1060 635 q 1026 562 1038 583 q 1006 524 1014 540 q 999 494 999 507 q 1014 463 999 478 q 1053 431 1029 449 q 1099 389 1076 414 q 1138 327 1122 364 q 1153 235 1153 290 q 1118 98 1153 154 q 1016 13 1083 42 q 850 -17 949 -17 z "},"Δ":{"ha":833,"x_min":25,"x_max":807,"o":"m 25 0 l 417 1111 l 807 0 l 25 0 m 300 193 l 532 193 l 417 600 l 300 193 z "},"Ω":{"ha":833,"x_min":92,"x_max":742,"o":"m 92 0 l 92 233 l 214 206 q 145 282 171 246 q 108 356 119 318 q 97 440 97 394 q 139 612 97 536 q 253 732 181 688 q 417 776 325 776 q 581 732 508 776 q 694 612 653 688 q 736 440 736 536 q 725 356 736 394 q 688 282 714 318 q 619 206 663 246 l 742 233 l 742 0 l 439 0 l 439 165 q 489 219 468 190 q 520 281 510 249 q 531 344 531 313 q 515 420 531 386 q 474 474 500 454 q 417 494 449 494 q 360 474 386 494 q 318 420 333 454 q 303 344 303 386 q 314 281 303 313 q 345 219 325 249 q 394 165 365 190 l 394 0 l 92 0 z "},"А":{"ha":1083,"x_min":-7,"x_max":1090,"o":"m 288 125 l 801 125 l 801 344 l 288 344 l 288 125 m 542 531 l 661 263 l 640 183 l 743 0 l 1090 0 l 542 1042 l -7 0 l 340 0 l 446 193 l 422 263 l 542 531 z "},"Б":{"ha":1039,"x_min":111,"x_max":983,"o":"m 176 382 l 569 382 q 626 375 604 382 q 660 353 649 368 q 671 313 671 338 q 660 272 671 288 q 626 250 649 257 q 569 243 604 243 l 176 243 l 176 0 l 653 0 q 822 41 747 0 q 940 153 896 82 q 983 313 983 224 q 940 472 983 403 q 822 579 896 540 q 653 618 747 618 l 176 618 l 176 382 m 111 972 l 111 0 l 424 0 l 424 729 l 910 729 l 910 972 l 111 972 z "},"В":{"ha":1011,"x_min":97,"x_max":956,"o":"m 322 465 l 521 465 q 715 495 629 465 q 850 583 800 525 q 900 722 900 640 q 850 861 900 806 q 715 944 800 917 q 521 972 629 972 l 97 972 l 97 0 l 549 0 q 769 26 678 0 q 908 111 860 53 q 956 267 956 169 q 919 399 956 344 q 822 489 882 454 q 691 540 763 524 q 549 556 619 556 l 322 556 l 322 389 l 507 389 q 556 386 533 389 q 597 376 579 383 q 626 353 615 368 q 636 315 636 339 q 618 258 636 276 q 571 235 600 240 q 507 229 542 229 l 403 229 l 403 743 l 479 743 q 556 726 532 743 q 581 671 581 708 q 569 628 581 646 q 536 600 558 610 q 479 590 514 590 l 322 590 l 322 465 z "},"Г":{"ha":764,"x_min":111,"x_max":750,"o":"m 111 972 l 111 0 l 417 0 l 417 701 l 750 701 l 750 972 l 111 972 z "},"Ѓ":{"ha":764,"x_min":111,"x_max":750,"o":"m 111 972 l 111 0 l 417 0 l 417 701 l 750 701 l 750 972 l 111 972 m 681 1292 l 486 1375 l 278 1153 l 431 1083 l 681 1292 z "},"Д":{"ha":1299,"x_min":56,"x_max":1236,"o":"m 646 503 l 806 42 l 1167 42 l 646 1021 l 125 42 l 486 42 l 646 503 m 924 0 l 924 -153 l 1236 -153 l 1236 257 l 56 257 l 56 -153 l 368 -153 l 368 0 l 924 0 z "},"Е":{"ha":882,"x_min":97,"x_max":799,"o":"m 308 0 l 799 0 l 799 243 l 308 243 l 308 0 m 308 729 l 799 729 l 799 972 l 308 972 l 308 729 m 308 382 l 771 382 l 771 618 l 308 618 l 308 382 m 97 972 l 97 0 l 389 0 l 389 972 l 97 972 z "},"Ѐ":{"ha":882,"x_min":97,"x_max":799,"o":"m 308 0 l 799 0 l 799 243 l 308 243 l 308 0 m 308 729 l 799 729 l 799 972 l 308 972 l 308 729 m 308 382 l 771 382 l 771 618 l 308 618 l 308 382 m 97 972 l 97 0 l 389 0 l 389 972 l 97 972 m 199 1292 l 449 1083 l 601 1153 l 393 1375 l 199 1292 z "},"Ё":{"ha":882,"x_min":97,"x_max":799,"o":"m 308 0 l 799 0 l 799 243 l 308 243 l 308 0 m 308 729 l 799 729 l 799 972 l 308 972 l 308 729 m 308 382 l 771 382 l 771 618 l 308 618 l 308 382 m 97 972 l 97 0 l 389 0 l 389 972 l 97 972 m 486 1219 q 530 1121 486 1158 q 636 1083 574 1083 q 742 1121 699 1083 q 786 1219 786 1158 q 742 1318 786 1281 q 636 1356 699 1356 q 530 1318 574 1356 q 486 1219 486 1281 m 111 1219 q 155 1121 111 1158 q 261 1083 199 1083 q 367 1121 324 1083 q 411 1219 411 1158 q 367 1318 411 1281 q 261 1356 324 1356 q 155 1318 199 1356 q 111 1219 111 1281 z "},"Ж":{"ha":1667,"x_min":-7,"x_max":1674,"o":"m 368 972 l 14 972 l 407 517 l -7 0 l 347 0 l 758 514 l 368 972 m 674 972 l 674 0 l 993 0 l 993 972 l 674 972 m 1285 972 l 908 514 l 1306 0 l 1674 0 l 1260 517 l 1653 972 l 1285 972 z "},"З":{"ha":981,"x_min":56,"x_max":953,"o":"m 442 465 q 625 478 538 465 q 780 521 713 492 q 886 599 847 550 q 925 717 925 647 q 879 858 925 796 q 742 957 833 921 q 511 993 650 993 q 281 949 372 993 q 143 829 189 904 q 97 661 97 754 l 376 661 q 391 712 376 690 q 435 745 406 733 q 510 757 465 757 q 573 747 547 757 q 612 721 599 738 q 625 682 625 704 q 606 633 625 654 q 545 600 586 611 q 442 589 504 589 l 442 465 m 525 -28 q 766 11 671 -28 q 907 117 861 50 q 953 271 953 185 q 888 433 953 371 q 707 525 822 496 q 442 554 592 554 l 442 410 q 571 394 525 410 q 635 353 617 378 q 653 299 653 328 q 610 227 653 246 q 511 208 568 208 q 438 221 474 208 q 378 263 401 233 q 356 340 356 292 l 56 340 q 82 205 56 271 q 165 86 108 139 q 311 3 222 33 q 525 -28 400 -28 z "},"И":{"ha":1118,"x_min":97,"x_max":1021,"o":"m 1014 660 l 1021 1021 l 104 313 l 97 -49 l 1014 660 m 389 972 l 97 972 l 97 -49 l 389 229 l 389 972 m 1021 1021 l 729 729 l 729 0 l 1021 0 l 1021 1021 z "},"Ѝ":{"ha":1118,"x_min":97,"x_max":1021,"o":"m 1014 660 l 1021 1021 l 104 313 l 97 -49 l 1014 660 m 389 972 l 97 972 l 97 -49 l 389 229 l 389 972 m 1021 1021 l 729 729 l 729 0 l 1021 0 l 1021 1021 m 340 1271 l 590 1063 l 743 1132 l 535 1354 l 340 1271 z "},"Й":{"ha":1118,"x_min":97,"x_max":1021,"o":"m 1014 660 l 1021 1021 l 104 313 l 97 -49 l 1014 660 m 389 972 l 97 972 l 97 -49 l 389 229 l 389 972 m 1021 1021 l 729 729 l 729 0 l 1021 0 l 1021 1021 m 357 1285 q 385 1176 357 1224 q 465 1103 413 1129 q 590 1076 518 1076 q 716 1103 664 1076 q 796 1176 768 1129 q 824 1285 824 1224 l 663 1285 q 650 1242 663 1257 q 621 1221 638 1226 q 590 1215 604 1215 q 560 1221 576 1215 q 531 1242 543 1226 q 518 1285 518 1257 l 357 1285 z "},"К":{"ha":1085,"x_min":97,"x_max":1092,"o":"m 97 972 l 97 0 l 417 0 l 417 972 l 97 972 m 715 972 l 329 507 l 722 0 l 1092 0 l 692 517 l 1071 972 l 715 972 z "},"Ќ":{"ha":1085,"x_min":97,"x_max":1092,"o":"m 97 972 l 97 0 l 417 0 l 417 972 l 97 972 m 715 972 l 329 507 l 722 0 l 1092 0 l 692 517 l 1071 972 l 715 972 m 835 1292 l 640 1375 l 432 1153 l 585 1083 l 835 1292 z "},"Л":{"ha":1164,"x_min":14,"x_max":1053,"o":"m 1053 972 l 171 972 l 171 419 q 160 350 171 381 q 128 299 149 319 q 79 267 108 278 q 14 257 50 257 l 14 0 q 287 45 183 0 q 437 192 390 90 q 483 458 483 293 l 483 701 l 740 701 l 740 0 l 1053 0 l 1053 972 z "},"М":{"ha":1306,"x_min":42,"x_max":1264,"o":"m 418 397 l 653 90 l 888 397 l 938 0 l 1264 0 l 1083 1021 l 653 496 l 222 1021 l 42 0 l 368 0 l 418 397 z "},"Н":{"ha":1153,"x_min":97,"x_max":1056,"o":"m 163 368 l 940 368 l 940 639 l 163 639 l 163 368 m 750 972 l 750 0 l 1056 0 l 1056 972 l 750 972 m 97 972 l 97 0 l 403 0 l 403 972 l 97 972 z "},"О":{"ha":1167,"x_min":42,"x_max":1125,"o":"m 365 486 q 392 612 365 558 q 467 695 418 665 q 583 725 515 725 q 703 695 656 725 q 776 612 751 665 q 801 486 801 558 q 775 361 801 415 q 700 277 749 307 q 583 247 651 247 q 467 277 515 247 q 392 361 418 307 q 365 486 365 415 m 42 486 q 81 273 42 369 q 193 106 121 176 q 365 -3 265 35 q 583 -42 464 -42 q 802 -3 703 -42 q 974 106 901 35 q 1085 273 1046 176 q 1125 486 1125 369 q 1085 697 1125 603 q 971 860 1044 792 q 799 964 897 928 q 583 1000 700 1000 q 371 964 469 1000 q 199 860 272 928 q 83 697 125 792 q 42 486 42 603 z "},"П":{"ha":1118,"x_min":111,"x_max":1007,"o":"m 694 701 l 694 0 l 1007 0 l 1007 972 l 111 972 l 111 0 l 424 0 l 424 701 l 694 701 z "},"Р":{"ha":928,"x_min":97,"x_max":886,"o":"m 97 972 l 97 0 l 403 0 l 403 972 l 97 972 m 294 729 l 479 729 q 565 706 536 729 q 594 639 594 682 q 565 572 594 596 q 479 549 536 549 l 294 549 l 294 306 l 479 306 q 712 346 622 306 q 844 461 801 386 q 886 639 886 536 q 844 817 886 743 q 712 932 801 892 q 479 972 622 972 l 294 972 l 294 729 z "},"С":{"ha":986,"x_min":42,"x_max":903,"o":"m 378 486 q 412 612 378 561 q 502 688 446 663 q 626 713 558 713 q 746 695 696 713 q 834 650 796 678 q 903 593 872 622 l 903 907 q 778 974 846 947 q 604 1000 711 1000 q 374 964 478 1000 q 196 860 269 928 q 82 697 122 792 q 42 486 42 603 q 82 275 42 369 q 196 113 122 181 q 374 8 269 44 q 604 -28 478 -28 q 778 -1 711 -28 q 903 65 846 26 l 903 379 q 834 323 872 350 q 746 278 796 296 q 626 260 696 260 q 502 285 558 260 q 412 360 446 310 q 378 486 378 411 z "},"Т":{"ha":861,"x_min":0,"x_max":861,"o":"m 0 701 l 278 701 l 278 0 l 583 0 l 583 701 l 861 701 l 861 972 l 0 972 l 0 701 z "},"У":{"ha":903,"x_min":-21,"x_max":924,"o":"m 924 972 l 611 972 l 375 438 l 493 438 l 313 972 l -21 972 l 296 301 l 161 0 l 467 0 l 924 972 z "},"Ў":{"ha":875,"x_min":-21,"x_max":896,"o":"m 896 972 l 597 972 l 361 438 l 479 438 l 299 972 l -21 972 l 282 301 l 147 0 l 439 0 l 896 972 m 204 1292 q 232 1183 204 1231 q 313 1110 260 1136 q 438 1083 365 1083 q 563 1110 511 1083 q 643 1183 615 1136 q 671 1292 671 1231 l 510 1292 q 497 1249 510 1264 q 468 1228 485 1233 q 438 1222 451 1222 q 407 1228 424 1222 q 378 1249 390 1233 q 365 1292 365 1264 l 204 1292 z "},"Ф":{"ha":1421,"x_min":56,"x_max":1365,"o":"m 554 972 l 554 0 l 867 0 l 867 972 l 554 972 m 1053 486 q 1027 410 1053 436 q 953 376 1001 385 q 838 368 906 368 l 583 368 q 467 376 515 368 q 394 410 419 385 q 368 486 368 436 q 394 563 368 538 q 467 596 419 588 q 583 604 515 604 l 838 604 q 953 596 906 604 q 1027 563 1001 588 q 1053 486 1053 538 m 1365 486 q 1304 688 1365 604 q 1139 816 1243 771 q 907 861 1035 861 l 514 861 q 282 816 386 861 q 117 688 178 771 q 56 486 56 604 q 117 285 56 369 q 282 156 178 201 q 514 111 386 111 l 907 111 q 1139 156 1035 111 q 1304 285 1243 201 q 1365 486 1365 369 z "},"Х":{"ha":1063,"x_min":0,"x_max":1063,"o":"m 660 972 l 536 738 l 417 972 l 35 972 l 344 492 l 0 0 l 382 0 l 533 272 l 681 0 l 1063 0 l 726 492 l 1042 972 l 660 972 z "},"Ц":{"ha":1278,"x_min":97,"x_max":1236,"o":"m 410 271 l 410 972 l 97 972 l 97 0 l 938 0 l 938 -208 l 1236 -208 l 1236 271 l 1063 271 l 1063 972 l 750 972 l 750 271 l 410 271 z "},"Ч":{"ha":1083,"x_min":97,"x_max":972,"o":"m 444 257 l 746 257 l 746 528 l 556 528 l 444 257 m 653 972 l 653 0 l 972 0 l 972 972 l 653 972 m 410 972 l 97 972 l 97 608 q 138 435 97 515 q 257 306 179 354 q 444 257 335 257 l 556 528 q 483 540 517 528 q 430 580 450 551 q 410 657 410 608 l 410 972 z "},"Ш":{"ha":1583,"x_min":111,"x_max":1472,"o":"m 1167 271 l 938 271 l 938 972 l 646 972 l 646 271 l 417 271 l 417 972 l 111 972 l 111 0 l 1472 0 l 1472 972 l 1167 972 l 1167 271 z "},"Щ":{"ha":1701,"x_min":111,"x_max":1646,"o":"m 1167 271 l 938 271 l 938 972 l 646 972 l 646 271 l 417 271 l 417 972 l 111 972 l 111 0 l 1347 0 l 1347 -208 l 1646 -208 l 1646 271 l 1472 271 l 1472 972 l 1167 972 l 1167 271 z "},"Ъ":{"ha":1088,"x_min":14,"x_max":1046,"o":"m 454 424 l 639 424 q 703 413 678 424 q 741 383 728 403 q 754 333 754 363 q 741 285 754 306 q 703 253 728 264 q 639 243 678 243 l 454 243 l 454 0 l 639 0 q 872 40 782 0 q 1003 156 961 81 q 1046 333 1046 231 q 1003 512 1046 438 q 872 626 961 586 q 639 667 782 667 l 454 667 l 454 424 m 264 703 l 264 0 l 569 0 l 569 972 l 14 972 l 14 703 l 264 703 z "},"Ы":{"ha":1382,"x_min":97,"x_max":1285,"o":"m 972 972 l 972 0 l 1285 0 l 1285 972 l 972 972 m 97 972 l 97 0 l 403 0 l 403 972 l 97 972 m 294 424 l 479 424 q 543 413 518 424 q 581 383 568 403 q 594 333 594 363 q 581 285 594 306 q 543 253 568 264 q 479 243 518 243 l 294 243 l 294 0 l 479 0 q 712 40 622 0 q 844 156 801 81 q 886 333 886 231 q 844 512 886 438 q 712 626 801 586 q 479 667 622 667 l 294 667 l 294 424 z "},"Ь":{"ha":928,"x_min":97,"x_max":886,"o":"m 97 972 l 97 0 l 403 0 l 403 972 l 97 972 m 294 424 l 479 424 q 543 413 518 424 q 581 383 568 403 q 594 333 594 363 q 581 285 594 306 q 543 253 568 264 q 479 243 518 243 l 294 243 l 294 0 l 479 0 q 712 40 622 0 q 844 156 801 81 q 886 333 886 231 q 844 512 886 438 q 712 626 801 586 q 479 667 622 667 l 294 667 l 294 424 z "},"Э":{"ha":986,"x_min":83,"x_max":944,"o":"m 194 368 l 671 368 l 671 604 l 194 604 l 194 368 m 650 486 q 606 358 650 411 q 494 275 561 304 q 360 246 428 246 q 238 263 292 246 q 145 301 183 279 q 83 338 107 322 l 83 65 q 208 -1 140 26 q 382 -28 276 -28 q 613 8 510 -28 q 790 113 717 44 q 904 275 864 181 q 944 486 944 369 q 904 697 944 603 q 790 860 864 792 q 613 964 717 928 q 382 1000 510 1000 q 208 974 276 1000 q 83 907 140 947 l 83 635 q 145 672 107 650 q 238 710 183 693 q 360 726 292 726 q 494 698 428 726 q 606 615 561 669 q 650 486 650 561 z "},"Ю":{"ha":1681,"x_min":97,"x_max":1639,"o":"m 163 368 l 732 368 l 732 639 l 163 639 l 163 368 m 97 972 l 97 0 l 403 0 l 403 972 l 97 972 m 879 486 q 906 612 879 558 q 981 695 932 665 q 1097 725 1029 725 q 1217 695 1169 725 q 1290 612 1265 665 q 1315 486 1315 558 q 1289 361 1315 415 q 1214 277 1263 307 q 1097 247 1165 247 q 981 277 1029 247 q 906 361 932 307 q 879 486 879 415 m 556 486 q 595 273 556 369 q 707 106 635 176 q 878 -3 779 35 q 1097 -42 978 -42 q 1316 -3 1217 -42 q 1488 106 1415 35 q 1599 273 1560 176 q 1639 486 1639 369 q 1599 697 1639 603 q 1485 860 1558 792 q 1313 964 1411 928 q 1097 1000 1214 1000 q 885 964 983 1000 q 713 860 786 928 q 597 697 639 792 q 556 486 556 603 z "},"Я":{"ha":972,"x_min":0,"x_max":875,"o":"m 590 417 l 278 417 l 0 0 l 354 0 l 590 417 m 875 972 l 569 972 l 569 0 l 875 0 l 875 972 m 678 715 l 678 972 l 465 972 q 233 929 324 972 q 101 811 143 886 q 58 639 58 736 q 101 467 58 543 q 233 349 143 392 q 465 306 324 306 l 678 306 l 678 535 l 493 535 q 430 545 456 535 q 391 576 404 556 q 378 625 378 597 q 391 674 378 654 q 430 705 404 694 q 493 715 456 715 l 678 715 z "},"a":{"ha":797,"x_min":28,"x_max":728,"o":"m 300 201 q 307 228 300 218 q 330 244 314 239 q 372 250 346 250 q 453 238 414 250 q 517 204 493 225 l 517 314 q 459 351 496 336 q 376 374 422 365 q 279 382 329 382 q 92 330 157 382 q 28 186 28 278 q 60 76 28 121 q 144 8 92 31 q 260 -14 197 -14 q 379 9 326 -14 q 463 76 432 32 q 493 181 493 119 l 471 264 q 455 197 471 222 q 415 159 439 171 q 364 147 390 147 q 333 153 347 147 q 309 172 318 160 q 300 201 300 183 m 160 414 q 206 433 172 421 q 282 453 239 444 q 364 463 325 463 q 414 456 393 463 q 447 438 435 450 q 465 411 460 426 q 471 378 471 396 l 471 0 l 728 0 l 728 444 q 685 562 728 514 q 568 635 642 610 q 404 660 494 660 q 228 638 313 660 q 78 589 144 615 l 160 414 z "},"à":{"ha":806,"x_min":28,"x_max":736,"o":"m 300 193 q 310 222 300 210 q 340 242 321 235 q 382 250 358 250 q 464 239 432 250 q 525 204 496 228 l 525 324 q 472 353 508 340 q 392 374 436 367 q 307 382 347 382 q 160 357 224 382 q 63 287 97 332 q 28 181 28 242 q 58 76 28 119 q 142 9 88 32 q 268 -14 196 -14 q 388 9 335 -14 q 471 76 440 32 q 501 181 501 119 l 479 264 q 463 193 479 218 q 419 158 446 168 q 365 147 393 147 q 333 152 349 147 q 309 167 318 157 q 300 193 300 176 m 168 414 q 216 433 183 422 q 291 453 249 444 q 379 463 333 463 q 456 438 432 463 q 479 378 479 414 l 479 0 l 736 0 l 736 444 q 693 562 736 514 q 576 635 650 610 q 407 660 501 660 q 237 638 321 660 q 86 589 153 615 l 168 414 m 157 951 l 407 743 l 560 813 l 351 1035 l 157 951 z "},"á":{"ha":806,"x_min":28,"x_max":736,"o":"m 300 193 q 310 222 300 210 q 340 242 321 235 q 382 250 358 250 q 464 239 432 250 q 525 204 496 228 l 525 324 q 472 353 508 340 q 392 374 436 367 q 307 382 347 382 q 160 357 224 382 q 63 287 97 332 q 28 181 28 242 q 58 76 28 119 q 142 9 88 32 q 268 -14 196 -14 q 388 9 335 -14 q 471 76 440 32 q 501 181 501 119 l 479 264 q 463 193 479 218 q 419 158 446 168 q 365 147 393 147 q 333 152 349 147 q 309 167 318 157 q 300 193 300 176 m 168 414 q 216 433 183 422 q 291 453 249 444 q 379 463 333 463 q 456 438 432 463 q 479 378 479 414 l 479 0 l 736 0 l 736 444 q 693 562 736 514 q 576 635 650 610 q 407 660 501 660 q 237 638 321 660 q 86 589 153 615 l 168 414 m 657 951 l 463 1035 l 254 813 l 407 743 l 657 951 z "},"â":{"ha":806,"x_min":28,"x_max":736,"o":"m 300 193 q 310 222 300 210 q 340 242 321 235 q 382 250 358 250 q 464 239 432 250 q 525 204 496 228 l 525 324 q 472 353 508 340 q 392 374 436 367 q 307 382 347 382 q 160 357 224 382 q 63 287 97 332 q 28 181 28 242 q 58 76 28 119 q 142 9 88 32 q 268 -14 196 -14 q 388 9 335 -14 q 471 76 440 32 q 501 181 501 119 l 479 264 q 463 193 479 218 q 419 158 446 168 q 365 147 393 147 q 333 152 349 147 q 309 167 318 157 q 300 193 300 176 m 168 414 q 216 433 183 422 q 291 453 249 444 q 379 463 333 463 q 456 438 432 463 q 479 378 479 414 l 479 0 l 736 0 l 736 444 q 693 562 736 514 q 576 635 650 610 q 407 660 501 660 q 237 638 321 660 q 86 589 153 615 l 168 414 m 407 854 l 518 743 l 713 868 l 407 1063 l 101 868 l 296 743 l 407 854 z "},"ã":{"ha":806,"x_min":28,"x_max":736,"o":"m 300 193 q 310 222 300 210 q 340 242 321 235 q 382 250 358 250 q 464 239 432 250 q 525 204 496 228 l 525 324 q 472 353 508 340 q 392 374 436 367 q 307 382 347 382 q 160 357 224 382 q 63 287 97 332 q 28 181 28 242 q 58 76 28 119 q 142 9 88 32 q 268 -14 196 -14 q 388 9 335 -14 q 471 76 440 32 q 501 181 501 119 l 479 264 q 463 193 479 218 q 419 158 446 168 q 365 147 393 147 q 333 152 349 147 q 309 167 318 157 q 300 193 300 176 m 168 414 q 216 433 183 422 q 291 453 249 444 q 379 463 333 463 q 456 438 432 463 q 479 378 479 414 l 479 0 l 736 0 l 736 444 q 693 562 736 514 q 576 635 650 610 q 407 660 501 660 q 237 638 321 660 q 86 589 153 615 l 168 414 m 108 858 l 224 751 q 228 779 224 763 q 247 809 233 796 q 286 822 261 822 q 356 802 322 822 q 424 763 389 782 q 496 743 458 743 q 588 765 544 743 q 663 817 632 786 q 706 872 694 847 l 586 1001 q 542 946 565 968 q 488 924 518 924 q 435 935 457 924 q 392 962 413 947 q 347 988 372 976 q 288 1000 322 1000 q 198 978 236 1000 q 138 925 160 957 q 108 858 115 893 z "},"ä":{"ha":806,"x_min":28,"x_max":744,"o":"m 300 193 q 310 222 300 210 q 340 242 321 235 q 382 250 358 250 q 464 239 432 250 q 525 204 496 228 l 525 324 q 472 353 508 340 q 392 374 436 367 q 307 382 347 382 q 160 357 224 382 q 63 287 97 332 q 28 181 28 242 q 58 76 28 119 q 142 9 88 32 q 268 -14 196 -14 q 388 9 335 -14 q 471 76 440 32 q 501 181 501 119 l 479 264 q 463 193 479 218 q 419 158 446 168 q 365 147 393 147 q 333 152 349 147 q 309 167 318 157 q 300 193 300 176 m 168 414 q 216 433 183 422 q 291 453 249 444 q 379 463 333 463 q 456 438 432 463 q 479 378 479 414 l 479 0 l 736 0 l 736 444 q 693 562 736 514 q 576 635 650 610 q 407 660 501 660 q 237 638 321 660 q 86 589 153 615 l 168 414 m 444 879 q 488 781 444 818 q 594 743 532 743 q 701 781 657 743 q 744 879 744 818 q 701 978 744 940 q 594 1015 657 1015 q 488 978 532 1015 q 444 879 444 940 m 69 879 q 113 781 69 818 q 219 743 157 743 q 326 781 282 743 q 369 879 369 818 q 326 978 369 940 q 219 1015 282 1015 q 113 978 157 1015 q 69 879 69 940 z "},"å":{"ha":806,"x_min":28,"x_max":736,"o":"m 300 193 q 310 222 300 210 q 340 242 321 235 q 382 250 358 250 q 464 239 432 250 q 525 204 496 228 l 525 324 q 472 353 508 340 q 392 374 436 367 q 307 382 347 382 q 160 357 224 382 q 63 287 97 332 q 28 181 28 242 q 58 76 28 119 q 142 9 88 32 q 268 -14 196 -14 q 388 9 335 -14 q 471 76 440 32 q 501 181 501 119 l 479 264 q 463 193 479 218 q 419 158 446 168 q 365 147 393 147 q 333 152 349 147 q 309 167 318 157 q 300 193 300 176 m 168 414 q 216 433 183 422 q 291 453 249 444 q 379 463 333 463 q 456 438 432 463 q 479 378 479 414 l 479 0 l 736 0 l 736 444 q 693 562 736 514 q 576 635 650 610 q 407 660 501 660 q 237 638 321 660 q 86 589 153 615 l 168 414 m 214 917 q 268 792 214 840 q 406 743 322 743 q 544 792 489 743 q 600 917 600 840 q 544 1042 600 994 q 406 1090 489 1090 q 268 1042 322 1090 q 214 917 214 994 m 346 917 q 363 963 346 946 q 406 979 379 979 q 449 963 432 979 q 467 917 467 946 q 449 872 467 888 q 406 856 432 856 q 363 872 379 856 q 346 917 346 888 z "},"ā":{"ha":806,"x_min":28,"x_max":736,"o":"m 300 193 q 310 222 300 210 q 340 242 321 235 q 382 250 358 250 q 464 239 432 250 q 525 204 496 228 l 525 324 q 472 353 508 340 q 392 374 436 367 q 307 382 347 382 q 160 357 224 382 q 63 287 97 332 q 28 181 28 242 q 58 76 28 119 q 142 9 88 32 q 268 -14 196 -14 q 388 9 335 -14 q 471 76 440 32 q 501 181 501 119 l 479 264 q 463 193 479 218 q 419 158 446 168 q 365 147 393 147 q 333 152 349 147 q 309 167 318 157 q 300 193 300 176 m 168 414 q 216 433 183 422 q 291 453 249 444 q 379 463 333 463 q 456 438 432 463 q 479 378 479 414 l 479 0 l 736 0 l 736 444 q 693 562 736 514 q 576 635 650 610 q 407 660 501 660 q 237 638 321 660 q 86 589 153 615 l 168 414 m 139 743 l 675 743 l 675 972 l 139 972 l 139 743 z "},"ă":{"ha":806,"x_min":28,"x_max":736,"o":"m 300 193 q 310 222 300 210 q 340 242 321 235 q 382 250 358 250 q 464 239 432 250 q 525 204 496 228 l 525 324 q 472 353 508 340 q 392 374 436 367 q 307 382 347 382 q 160 357 224 382 q 63 287 97 332 q 28 181 28 242 q 58 76 28 119 q 142 9 88 32 q 268 -14 196 -14 q 388 9 335 -14 q 471 76 440 32 q 501 181 501 119 l 479 264 q 463 193 479 218 q 419 158 446 168 q 365 147 393 147 q 333 152 349 147 q 309 167 318 157 q 300 193 300 176 m 168 414 q 216 433 183 422 q 291 453 249 444 q 379 463 333 463 q 456 438 432 463 q 479 378 479 414 l 479 0 l 736 0 l 736 444 q 693 562 736 514 q 576 635 650 610 q 407 660 501 660 q 237 638 321 660 q 86 589 153 615 l 168 414 m 174 951 q 201 843 174 890 q 282 769 229 796 q 407 743 335 743 q 533 769 481 743 q 613 843 585 796 q 640 951 640 890 l 479 951 q 467 908 479 924 q 438 888 454 893 q 407 882 421 882 q 376 888 393 882 q 347 908 360 893 q 335 951 335 924 l 174 951 z "},"ą":{"ha":806,"x_min":28,"x_max":736,"o":"m 300 193 q 310 222 300 210 q 340 242 321 235 q 382 250 358 250 q 464 239 432 250 q 525 204 496 228 l 525 324 q 472 353 508 340 q 392 374 436 367 q 307 382 347 382 q 160 357 224 382 q 63 287 97 332 q 28 181 28 242 q 58 76 28 119 q 142 9 88 32 q 268 -14 196 -14 q 388 9 335 -14 q 471 76 440 32 q 501 181 501 119 l 479 264 q 463 193 479 218 q 419 158 446 168 q 365 147 393 147 q 333 152 349 147 q 309 167 318 157 q 300 193 300 176 m 168 414 q 216 433 183 422 q 291 453 249 444 q 379 463 333 463 q 456 438 432 463 q 479 378 479 414 l 479 0 l 736 0 l 736 444 q 693 562 736 514 q 576 635 650 610 q 407 660 501 660 q 237 638 321 660 q 86 589 153 615 l 168 414 m 674 -139 q 640 -160 660 -153 q 604 -167 621 -167 q 574 -155 583 -167 q 565 -125 565 -143 q 576 -85 565 -106 q 608 -44 586 -65 q 667 0 631 -22 l 610 35 q 516 -19 561 10 q 442 -83 471 -47 q 413 -167 413 -118 q 436 -245 413 -214 q 496 -291 460 -276 q 569 -306 532 -306 q 669 -288 635 -306 q 719 -250 704 -271 l 674 -139 z "},"b":{"ha":896,"x_min":69,"x_max":854,"o":"m 340 1083 l 69 1083 l 69 0 l 340 0 l 340 1083 m 854 319 q 810 504 854 431 q 699 615 767 578 q 558 653 632 653 q 415 613 479 653 q 314 498 351 572 q 276 319 276 424 q 314 142 276 217 q 415 26 351 67 q 558 -14 479 -14 q 699 24 632 -14 q 810 135 767 61 q 854 319 854 210 m 568 319 q 553 256 568 285 q 512 211 538 228 q 454 194 486 194 q 400 210 426 194 q 357 253 374 225 q 340 319 340 281 q 357 386 340 358 q 400 429 374 414 q 454 444 426 444 q 512 428 486 444 q 553 383 538 411 q 568 319 568 356 z "},"c":{"ha":699,"x_min":42,"x_max":629,"o":"m 321 319 q 340 384 321 356 q 392 430 360 413 q 463 447 425 447 q 517 440 486 447 q 578 415 547 432 q 629 367 608 397 l 629 613 q 553 640 596 628 q 435 653 511 653 q 232 613 321 653 q 92 498 143 572 q 42 319 42 424 q 92 142 42 217 q 232 26 143 67 q 435 -14 321 -14 q 553 -1 511 -14 q 629 29 596 11 l 629 274 q 581 226 608 244 q 523 200 553 208 q 463 192 493 192 q 392 206 425 192 q 340 249 360 221 q 321 319 321 278 z "},"ç":{"ha":699,"x_min":42,"x_max":629,"o":"m 321 319 q 340 384 321 356 q 392 430 360 413 q 463 447 425 447 q 517 440 486 447 q 578 415 547 432 q 629 367 608 397 l 629 613 q 553 640 596 628 q 435 653 511 653 q 232 613 321 653 q 92 498 143 572 q 42 319 42 424 q 92 142 42 217 q 232 26 143 67 q 435 -14 321 -14 q 553 -1 511 -14 q 629 29 596 11 l 629 274 q 581 226 608 244 q 523 200 553 208 q 463 192 493 192 q 392 206 425 192 q 340 249 360 221 q 321 319 321 278 m 313 86 l 189 -207 q 274 -189 233 -192 q 324 -186 314 -186 q 385 -192 354 -186 q 417 -228 417 -199 q 395 -262 417 -253 q 338 -272 374 -272 q 281 -265 321 -272 q 210 -236 240 -257 l 136 -356 q 255 -399 197 -387 q 382 -411 313 -411 q 476 -393 429 -411 q 553 -338 522 -375 q 585 -247 585 -301 q 562 -160 585 -194 q 506 -108 539 -125 q 442 -92 472 -92 q 403 -93 421 -92 q 368 -100 385 -94 l 507 78 l 313 86 z "},"ć":{"ha":699,"x_min":42,"x_max":629,"o":"m 321 319 q 340 384 321 356 q 392 430 360 413 q 463 447 425 447 q 517 440 486 447 q 578 415 547 432 q 629 367 608 397 l 629 613 q 553 640 596 628 q 435 653 511 653 q 232 613 321 653 q 92 498 143 572 q 42 319 42 424 q 92 142 42 217 q 232 26 143 67 q 435 -14 321 -14 q 553 -1 511 -14 q 629 29 596 11 l 629 274 q 581 226 608 244 q 523 200 553 208 q 463 192 493 192 q 392 206 425 192 q 340 249 360 221 q 321 319 321 278 m 615 946 l 421 1029 l 213 807 l 365 738 l 615 946 z "},"ĉ":{"ha":699,"x_min":42,"x_max":671,"o":"m 321 319 q 340 384 321 356 q 392 430 360 413 q 463 447 425 447 q 517 440 486 447 q 578 415 547 432 q 629 367 608 397 l 629 613 q 553 640 596 628 q 435 653 511 653 q 232 613 321 653 q 92 498 143 572 q 42 319 42 424 q 92 142 42 217 q 232 26 143 67 q 435 -14 321 -14 q 553 -1 511 -14 q 629 29 596 11 l 629 274 q 581 226 608 244 q 523 200 553 208 q 463 192 493 192 q 392 206 425 192 q 340 249 360 221 q 321 319 321 278 m 365 849 l 476 738 l 671 863 l 365 1057 l 60 863 l 254 738 l 365 849 z "},"ċ":{"ha":699,"x_min":42,"x_max":629,"o":"m 321 319 q 340 384 321 356 q 392 430 360 413 q 463 447 425 447 q 517 440 486 447 q 578 415 547 432 q 629 367 608 397 l 629 613 q 553 640 596 628 q 435 653 511 653 q 232 613 321 653 q 92 498 143 572 q 42 319 42 424 q 92 142 42 217 q 232 26 143 67 q 435 -14 321 -14 q 553 -1 511 -14 q 629 29 596 11 l 629 274 q 581 226 608 244 q 523 200 553 208 q 463 192 493 192 q 392 206 425 192 q 340 249 360 221 q 321 319 321 278 m 229 888 q 273 789 229 826 q 379 751 317 751 q 485 789 442 751 q 529 888 529 826 q 485 986 529 949 q 379 1024 442 1024 q 273 986 317 1024 q 229 888 229 949 z "},"č":{"ha":699,"x_min":42,"x_max":671,"o":"m 321 319 q 340 384 321 356 q 392 430 360 413 q 463 447 425 447 q 517 440 486 447 q 578 415 547 432 q 629 367 608 397 l 629 613 q 553 640 596 628 q 435 653 511 653 q 232 613 321 653 q 92 498 143 572 q 42 319 42 424 q 92 142 42 217 q 232 26 143 67 q 435 -14 321 -14 q 553 -1 511 -14 q 629 29 596 11 l 629 274 q 581 226 608 244 q 523 200 553 208 q 463 192 493 192 q 392 206 425 192 q 340 249 360 221 q 321 319 321 278 m 365 946 l 254 1057 l 60 932 l 365 738 l 671 932 l 476 1057 l 365 946 z "},"d":{"ha":896,"x_min":42,"x_max":826,"o":"m 556 1083 l 556 0 l 826 0 l 826 1083 l 556 1083 m 42 319 q 85 135 42 210 q 197 24 129 61 q 338 -14 265 -14 q 481 26 418 -14 q 582 142 544 67 q 619 319 619 217 q 582 498 619 424 q 481 613 544 572 q 338 653 418 653 q 197 615 265 653 q 85 504 129 578 q 42 319 42 431 m 328 319 q 343 383 328 356 q 385 428 358 411 q 442 444 411 444 q 496 429 469 444 q 539 386 522 414 q 556 319 556 358 q 539 253 556 281 q 496 210 522 225 q 442 194 469 194 q 385 211 411 194 q 343 256 358 228 q 328 319 328 285 z "},"ď":{"ha":896,"x_min":42,"x_max":1261,"o":"m 556 1083 l 556 0 l 826 0 l 826 1083 l 556 1083 m 42 319 q 85 135 42 210 q 197 24 129 61 q 338 -14 265 -14 q 481 26 418 -14 q 582 142 544 67 q 619 319 619 217 q 582 498 619 424 q 481 613 544 572 q 338 653 418 653 q 197 615 265 653 q 85 504 129 578 q 42 319 42 431 m 328 319 q 343 383 328 356 q 385 428 358 411 q 442 444 411 444 q 496 429 469 444 q 539 386 522 414 q 556 319 556 358 q 539 253 556 281 q 496 210 522 225 q 442 194 469 194 q 385 211 411 194 q 343 256 358 228 q 328 319 328 285 m 990 1083 l 868 724 l 1074 689 l 1261 1036 l 990 1083 z "},"e":{"ha":846,"x_min":42,"x_max":808,"o":"m 442 -14 q 666 37 575 -14 q 808 190 757 88 l 561 229 q 511 183 544 199 q 428 167 478 167 q 365 185 390 167 q 326 237 339 203 q 314 319 313 271 q 325 415 314 378 q 360 469 336 451 q 421 486 383 486 q 469 474 449 486 q 500 438 489 461 q 511 381 511 414 q 506 357 511 371 q 492 331 500 343 l 544 394 l 189 394 l 189 264 l 796 264 q 799 297 799 279 q 799 332 799 314 q 756 508 799 436 q 631 616 714 579 q 428 653 549 653 q 219 613 306 653 q 88 499 133 574 q 42 319 42 425 q 90 141 42 215 q 227 26 138 67 q 442 -14 317 -14 z "},"è":{"ha":846,"x_min":42,"x_max":808,"o":"m 189 264 l 796 264 q 799 305 799 286 q 799 332 799 324 q 758 505 799 433 q 635 615 717 576 q 428 653 553 653 q 231 619 311 653 q 106 526 151 586 q 47 388 61 467 q 43 354 44 371 q 42 319 42 338 q 85 148 42 224 q 218 29 129 72 q 442 -14 307 -14 q 609 11 539 -14 q 728 82 679 36 q 808 190 776 128 l 561 229 q 531 194 550 208 q 487 174 513 181 q 428 167 461 167 q 374 180 400 167 q 331 226 347 193 q 314 319 314 260 l 317 347 q 328 424 317 393 q 363 471 340 456 q 421 486 386 486 q 467 476 449 486 q 495 447 485 467 q 510 394 506 426 l 189 394 l 189 264 m 178 946 l 428 738 l 581 807 l 372 1029 l 178 946 z "},"é":{"ha":846,"x_min":42,"x_max":808,"o":"m 189 264 l 796 264 q 799 305 799 286 q 799 332 799 324 q 758 505 799 433 q 635 615 717 576 q 428 653 553 653 q 231 619 311 653 q 106 526 151 586 q 47 388 61 467 q 43 354 44 371 q 42 319 42 338 q 85 148 42 224 q 218 29 129 72 q 442 -14 307 -14 q 609 11 539 -14 q 728 82 679 36 q 808 190 776 128 l 561 229 q 531 194 550 208 q 487 174 513 181 q 428 167 461 167 q 374 180 400 167 q 331 226 347 193 q 314 319 314 260 l 317 347 q 328 424 317 393 q 363 471 340 456 q 421 486 386 486 q 467 476 449 486 q 495 447 485 467 q 510 394 506 426 l 189 394 l 189 264 m 678 946 l 483 1029 l 275 807 l 428 738 l 678 946 z "},"ê":{"ha":846,"x_min":42,"x_max":808,"o":"m 189 264 l 796 264 q 799 305 799 286 q 799 332 799 324 q 758 505 799 433 q 635 615 717 576 q 428 653 553 653 q 231 619 311 653 q 106 526 151 586 q 47 388 61 467 q 43 354 44 371 q 42 319 42 338 q 85 148 42 224 q 218 29 129 72 q 442 -14 307 -14 q 609 11 539 -14 q 728 82 679 36 q 808 190 776 128 l 561 229 q 531 194 550 208 q 487 174 513 181 q 428 167 461 167 q 374 180 400 167 q 331 226 347 193 q 314 319 314 260 l 317 347 q 328 424 317 393 q 363 471 340 456 q 421 486 386 486 q 467 476 449 486 q 495 447 485 467 q 510 394 506 426 l 189 394 l 189 264 m 428 849 l 539 738 l 733 863 l 428 1057 l 122 863 l 317 738 l 428 849 z "},"ë":{"ha":846,"x_min":42,"x_max":808,"o":"m 189 264 l 796 264 q 799 305 799 286 q 799 332 799 324 q 758 505 799 433 q 635 615 717 576 q 428 653 553 653 q 231 619 311 653 q 106 526 151 586 q 47 388 61 467 q 43 354 44 371 q 42 319 42 338 q 85 148 42 224 q 218 29 129 72 q 442 -14 307 -14 q 609 11 539 -14 q 728 82 679 36 q 808 190 776 128 l 561 229 q 531 194 550 208 q 487 174 513 181 q 428 167 461 167 q 374 180 400 167 q 331 226 347 193 q 314 319 314 260 l 317 347 q 328 424 317 393 q 363 471 340 456 q 421 486 386 486 q 467 476 449 486 q 495 447 485 467 q 510 394 506 426 l 189 394 l 189 264 m 465 874 q 509 775 465 813 q 615 738 553 738 q 722 775 678 738 q 765 874 765 813 q 722 972 765 935 q 615 1010 678 1010 q 509 972 553 1010 q 465 874 465 935 m 90 874 q 134 775 90 813 q 240 738 178 738 q 347 775 303 738 q 390 874 390 813 q 347 972 390 935 q 240 1010 303 1010 q 134 972 178 1010 q 90 874 90 935 z "},"ē":{"ha":846,"x_min":42,"x_max":808,"o":"m 189 264 l 796 264 q 799 305 799 286 q 799 332 799 324 q 758 505 799 433 q 635 615 717 576 q 428 653 553 653 q 231 619 311 653 q 106 526 151 586 q 47 388 61 467 q 43 354 44 371 q 42 319 42 338 q 85 148 42 224 q 218 29 129 72 q 442 -14 307 -14 q 609 11 539 -14 q 728 82 679 36 q 808 190 776 128 l 561 229 q 531 194 550 208 q 487 174 513 181 q 428 167 461 167 q 374 180 400 167 q 331 226 347 193 q 314 319 314 260 l 317 347 q 328 424 317 393 q 363 471 340 456 q 421 486 386 486 q 467 476 449 486 q 495 447 485 467 q 510 394 506 426 l 189 394 l 189 264 m 161 738 l 696 738 l 696 967 l 161 967 l 161 738 z "},"ĕ":{"ha":846,"x_min":42,"x_max":808,"o":"m 189 264 l 796 264 q 799 305 799 286 q 799 332 799 324 q 758 505 799 433 q 635 615 717 576 q 428 653 553 653 q 231 619 311 653 q 106 526 151 586 q 47 388 61 467 q 43 354 44 371 q 42 319 42 338 q 85 148 42 224 q 218 29 129 72 q 442 -14 307 -14 q 609 11 539 -14 q 728 82 679 36 q 808 190 776 128 l 561 229 q 531 194 550 208 q 487 174 513 181 q 428 167 461 167 q 374 180 400 167 q 331 226 347 193 q 314 319 314 260 l 317 347 q 328 424 317 393 q 363 471 340 456 q 421 486 386 486 q 467 476 449 486 q 495 447 485 467 q 510 394 506 426 l 189 394 l 189 264 m 194 946 q 222 838 194 885 q 303 764 250 790 q 428 738 356 738 q 553 764 501 738 q 633 838 606 790 q 661 946 661 885 l 500 946 q 488 903 500 918 q 458 882 475 888 q 428 876 442 876 q 397 882 414 876 q 368 903 381 888 q 356 946 356 918 l 194 946 z "},"ė":{"ha":846,"x_min":42,"x_max":808,"o":"m 189 264 l 796 264 q 799 305 799 286 q 799 332 799 324 q 758 505 799 433 q 635 615 717 576 q 428 653 553 653 q 231 619 311 653 q 106 526 151 586 q 47 388 61 467 q 43 354 44 371 q 42 319 42 338 q 85 148 42 224 q 218 29 129 72 q 442 -14 307 -14 q 609 11 539 -14 q 728 82 679 36 q 808 190 776 128 l 561 229 q 531 194 550 208 q 487 174 513 181 q 428 167 461 167 q 374 180 400 167 q 331 226 347 193 q 314 319 314 260 l 317 347 q 328 424 317 393 q 363 471 340 456 q 421 486 386 486 q 467 476 449 486 q 495 447 485 467 q 510 394 506 426 l 189 394 l 189 264 m 278 874 q 322 775 278 813 q 428 738 365 738 q 534 775 490 738 q 578 874 578 813 q 534 972 578 935 q 428 1010 490 1010 q 322 972 365 1010 q 278 874 278 935 z "},"ę":{"ha":846,"x_min":42,"x_max":828,"o":"m 189 264 l 796 264 q 799 305 799 286 q 799 332 799 324 q 758 505 799 433 q 635 615 717 576 q 428 653 553 653 q 231 619 311 653 q 106 526 151 586 q 47 388 61 467 q 43 354 44 371 q 42 319 42 338 q 85 148 42 224 q 218 29 129 72 q 442 -14 307 -14 q 566 3 514 -14 q 658 49 618 19 q 734 115 699 78 q 808 190 769 151 l 561 229 q 531 194 550 208 q 487 174 513 181 q 428 167 461 167 q 374 180 400 167 q 331 226 347 193 q 314 319 314 260 l 317 347 q 328 424 317 393 q 363 471 340 456 q 421 486 386 486 q 467 476 449 486 q 495 447 485 467 q 510 394 506 426 l 189 394 l 189 264 m 782 -21 q 749 -42 768 -35 q 713 -49 729 -49 q 683 -37 692 -49 q 674 -7 674 -25 q 686 35 674 13 q 728 94 699 57 q 807 190 758 131 l 718 153 q 647 114 682 135 q 583 69 611 93 q 538 17 554 46 q 521 -49 521 -12 q 544 -127 521 -96 q 604 -173 568 -158 q 678 -187 640 -187 q 778 -170 743 -187 q 828 -132 813 -153 l 782 -21 z "},"ě":{"ha":846,"x_min":42,"x_max":808,"o":"m 189 264 l 796 264 q 799 305 799 286 q 799 332 799 324 q 758 505 799 433 q 635 615 717 576 q 428 653 553 653 q 231 619 311 653 q 106 526 151 586 q 47 388 61 467 q 43 354 44 371 q 42 319 42 338 q 85 148 42 224 q 218 29 129 72 q 442 -14 307 -14 q 609 11 539 -14 q 728 82 679 36 q 808 190 776 128 l 561 229 q 531 194 550 208 q 487 174 513 181 q 428 167 461 167 q 374 180 400 167 q 331 226 347 193 q 314 319 314 260 l 317 347 q 328 424 317 393 q 363 471 340 456 q 421 486 386 486 q 467 476 449 486 q 495 447 485 467 q 510 394 506 426 l 189 394 l 189 264 m 428 946 l 317 1057 l 122 932 l 428 738 l 733 932 l 539 1057 l 428 946 z "},"f":{"ha":526,"x_min":7,"x_max":582,"o":"m 7 639 l 7 424 l 514 424 l 514 639 l 7 639 m 483 840 l 582 1032 q 538 1065 565 1046 q 471 1097 511 1083 q 372 1111 431 1111 q 218 1081 279 1111 q 127 997 157 1050 q 97 875 97 944 l 97 0 l 354 0 l 354 799 q 363 841 354 824 q 385 867 371 858 q 421 875 400 875 q 455 865 440 875 q 483 840 469 856 z "},"g":{"ha":882,"x_min":42,"x_max":813,"o":"m 56 -49 q 106 -201 68 -135 q 224 -303 144 -267 q 439 -340 304 -340 q 631 -306 547 -340 q 764 -194 715 -272 q 813 14 813 -117 l 813 639 l 556 639 l 556 14 q 540 -65 556 -32 q 496 -115 525 -97 q 425 -132 467 -132 q 374 -126 397 -132 q 336 -101 351 -119 q 315 -49 321 -83 l 56 -49 m 42 333 q 85 153 42 224 q 197 48 129 82 q 338 14 265 14 q 481 51 418 14 q 582 159 544 88 q 619 333 619 231 q 582 508 619 438 q 481 616 544 579 q 338 653 418 653 q 197 619 265 653 q 85 515 129 585 q 42 333 42 444 m 328 333 q 343 394 328 369 q 385 431 358 418 q 442 444 411 444 q 483 438 463 444 q 519 418 503 432 q 546 383 536 404 q 556 333 556 363 q 539 270 556 294 q 496 234 522 246 q 442 222 469 222 q 385 235 411 222 q 343 274 358 249 q 328 333 328 299 z "},"ĝ":{"ha":882,"x_min":42,"x_max":813,"o":"m 56 -49 q 106 -201 68 -135 q 224 -303 144 -267 q 439 -340 304 -340 q 631 -306 547 -340 q 764 -194 715 -272 q 813 14 813 -117 l 813 639 l 556 639 l 556 14 q 540 -65 556 -32 q 496 -115 525 -97 q 425 -132 467 -132 q 374 -126 397 -132 q 336 -101 351 -119 q 315 -49 321 -83 l 56 -49 m 42 333 q 85 153 42 224 q 197 48 129 82 q 338 14 265 14 q 481 51 418 14 q 582 159 544 88 q 619 333 619 231 q 582 508 619 438 q 481 616 544 579 q 338 653 418 653 q 197 619 265 653 q 85 515 129 585 q 42 333 42 444 m 328 333 q 343 394 328 369 q 385 431 358 418 q 442 444 411 444 q 483 438 463 444 q 519 418 503 432 q 546 383 536 404 q 556 333 556 363 q 539 270 556 294 q 496 234 522 246 q 442 222 469 222 q 385 235 411 222 q 343 274 358 249 q 328 333 328 299 m 490 849 l 601 738 l 796 863 l 490 1057 l 185 863 l 379 738 l 490 849 z "},"ğ":{"ha":882,"x_min":42,"x_max":813,"o":"m 56 -49 q 106 -201 68 -135 q 224 -303 144 -267 q 439 -340 304 -340 q 631 -306 547 -340 q 764 -194 715 -272 q 813 14 813 -117 l 813 639 l 556 639 l 556 14 q 540 -65 556 -32 q 496 -115 525 -97 q 425 -132 467 -132 q 374 -126 397 -132 q 336 -101 351 -119 q 315 -49 321 -83 l 56 -49 m 42 333 q 85 153 42 224 q 197 48 129 82 q 338 14 265 14 q 481 51 418 14 q 582 159 544 88 q 619 333 619 231 q 582 508 619 438 q 481 616 544 579 q 338 653 418 653 q 197 619 265 653 q 85 515 129 585 q 42 333 42 444 m 328 333 q 343 394 328 369 q 385 431 358 418 q 442 444 411 444 q 483 438 463 444 q 519 418 503 432 q 546 383 536 404 q 556 333 556 363 q 539 270 556 294 q 496 234 522 246 q 442 222 469 222 q 385 235 411 222 q 343 274 358 249 q 328 333 328 299 m 257 946 q 285 838 257 885 q 365 764 313 790 q 490 738 418 738 q 616 764 564 738 q 696 838 668 790 q 724 946 724 885 l 563 946 q 550 903 563 918 q 521 882 538 888 q 490 876 504 876 q 460 882 476 876 q 431 903 443 888 q 418 946 418 918 l 257 946 z "},"ġ":{"ha":882,"x_min":42,"x_max":813,"o":"m 56 -49 q 106 -201 68 -135 q 224 -303 144 -267 q 439 -340 304 -340 q 631 -306 547 -340 q 764 -194 715 -272 q 813 14 813 -117 l 813 639 l 556 639 l 556 14 q 540 -65 556 -32 q 496 -115 525 -97 q 425 -132 467 -132 q 374 -126 397 -132 q 336 -101 351 -119 q 315 -49 321 -83 l 56 -49 m 42 333 q 85 153 42 224 q 197 48 129 82 q 338 14 265 14 q 481 51 418 14 q 582 159 544 88 q 619 333 619 231 q 582 508 619 438 q 481 616 544 579 q 338 653 418 653 q 197 619 265 653 q 85 515 129 585 q 42 333 42 444 m 328 333 q 343 394 328 369 q 385 431 358 418 q 442 444 411 444 q 483 438 463 444 q 519 418 503 432 q 546 383 536 404 q 556 333 556 363 q 539 270 556 294 q 496 234 522 246 q 442 222 469 222 q 385 235 411 222 q 343 274 358 249 q 328 333 328 299 m 299 874 q 342 775 299 813 q 449 738 386 738 q 555 775 511 738 q 599 874 599 813 q 555 972 599 935 q 449 1010 511 1010 q 342 972 386 1010 q 299 874 299 935 z "},"ģ":{"ha":792,"x_min":42,"x_max":813,"o":"m 56 -49 q 106 -201 68 -135 q 224 -303 144 -267 q 439 -340 304 -340 q 631 -306 547 -340 q 764 -194 715 -272 q 813 14 813 -117 l 813 639 l 556 639 l 556 14 q 540 -65 556 -32 q 496 -115 525 -97 q 425 -132 467 -132 q 374 -126 397 -132 q 336 -101 351 -119 q 315 -49 321 -83 l 56 -49 m 42 333 q 85 153 42 224 q 197 48 129 82 q 338 14 265 14 q 481 51 418 14 q 582 159 544 88 q 619 333 619 231 q 582 508 619 438 q 481 616 544 579 q 338 653 418 653 q 197 619 265 653 q 85 515 129 585 q 42 333 42 444 m 328 333 q 343 394 328 369 q 385 431 358 418 q 442 444 411 444 q 483 438 463 444 q 519 418 503 432 q 546 383 536 404 q 556 333 556 363 q 539 270 556 294 q 496 234 522 246 q 442 222 469 222 q 385 235 411 222 q 343 274 358 249 q 328 333 328 299 m 454 749 l 629 1085 l 432 1151 l 193 838 l 454 749 z "},"h":{"ha":826,"x_min":69,"x_max":757,"o":"m 340 1083 l 69 1083 l 69 0 l 340 0 l 340 1083 m 486 389 l 486 0 l 757 0 l 757 431 q 738 560 757 507 q 672 640 719 613 q 538 668 625 668 q 400 630 451 668 q 326 528 349 592 q 304 389 304 465 l 340 389 q 350 441 340 421 q 378 471 360 461 q 419 481 396 481 q 474 456 461 481 q 486 389 486 432 z "},"ĥ":{"ha":826,"x_min":-100,"x_max":757,"o":"m 340 1083 l 69 1083 l 69 0 l 340 0 l 340 1083 m 486 389 l 486 0 l 757 0 l 757 431 q 738 560 757 507 q 672 640 719 613 q 538 668 625 668 q 400 630 451 668 q 326 528 349 592 q 304 389 304 465 l 340 389 q 350 441 340 421 q 378 471 360 461 q 419 481 396 481 q 474 456 461 481 q 486 389 486 432 m 206 1278 l 317 1167 l 511 1292 l 206 1486 l -100 1292 l 94 1167 l 206 1278 z "},"i":{"ha":397,"x_min":49,"x_max":349,"o":"m 49 864 q 92 765 49 803 q 199 728 136 728 q 305 765 261 728 q 349 864 349 803 q 305 963 349 925 q 199 1000 261 1000 q 92 963 136 1000 q 49 864 49 925 m 68 639 l 68 0 l 328 0 l 328 639 l 68 639 z "},"ì":{"ha":397,"x_min":-69,"x_max":333,"o":"m 68 639 l 68 0 l 328 0 l 328 639 l 68 639 m -69 946 l 181 738 l 333 807 l 125 1029 l -69 946 z "},"í":{"ha":397,"x_min":44,"x_max":447,"o":"m 68 639 l 68 0 l 328 0 l 328 639 l 68 639 m 447 946 l 253 1029 l 44 807 l 197 738 l 447 946 z "},"î":{"ha":397,"x_min":-108,"x_max":503,"o":"m 68 639 l 68 0 l 328 0 l 328 639 l 68 639 m 197 849 l 308 738 l 503 863 l 197 1057 l -108 863 l 86 738 l 197 849 z "},"ï":{"ha":397,"x_min":-139,"x_max":536,"o":"m 68 639 l 68 0 l 328 0 l 328 639 l 68 639 m 236 874 q 280 775 236 813 q 386 738 324 738 q 492 775 449 738 q 536 874 536 813 q 492 972 536 935 q 386 1010 449 1010 q 280 972 324 1010 q 236 874 236 935 m -139 874 q -95 775 -139 813 q 11 738 -51 738 q 117 775 74 738 q 161 874 161 813 q 117 972 161 935 q 11 1010 74 1010 q -95 972 -51 1010 q -139 874 -139 935 z "},"ĩ":{"ha":397,"x_min":-100,"x_max":497,"o":"m 68 639 l 68 0 l 328 0 l 328 639 l 68 639 m -100 853 l 14 746 q 19 774 14 757 q 39 803 25 790 q 78 817 53 817 q 147 797 114 817 q 215 757 181 776 q 286 738 249 738 q 379 759 335 738 q 455 811 424 781 q 497 867 486 842 l 378 996 q 333 940 357 963 q 278 918 308 918 q 225 930 247 918 q 183 956 203 942 q 138 983 163 971 q 78 994 113 994 q -11 973 26 994 q -71 919 -49 951 q -100 853 -93 888 z "},"ī":{"ha":397,"x_min":-69,"x_max":465,"o":"m 68 639 l 68 0 l 328 0 l 328 639 l 68 639 m -69 738 l 465 738 l 465 967 l -69 967 l -69 738 z "},"ĭ":{"ha":397,"x_min":-36,"x_max":431,"o":"m 68 639 l 68 0 l 328 0 l 328 639 l 68 639 m -36 946 q -8 838 -36 885 q 72 764 19 790 q 197 738 125 738 q 323 764 271 738 q 403 838 375 790 q 431 946 431 885 l 269 946 q 257 903 269 918 q 228 882 244 888 q 197 876 211 876 q 167 882 183 876 q 138 903 150 888 q 125 946 125 918 l -36 946 z "},"į":{"ha":397,"x_min":18,"x_max":349,"o":"m 49 864 q 92 765 49 803 q 199 728 136 728 q 305 765 261 728 q 349 864 349 803 q 305 963 349 925 q 199 1000 261 1000 q 92 963 136 1000 q 49 864 49 925 m 68 639 l 68 0 l 328 0 l 328 639 l 68 639 m 279 -139 q 246 -160 265 -153 q 210 -167 226 -167 q 180 -155 189 -167 q 171 -125 171 -143 q 181 -85 171 -106 q 214 -44 192 -65 q 272 0 236 -22 l 215 35 q 122 -19 167 10 q 47 -83 76 -47 q 18 -167 18 -118 q 42 -245 18 -214 q 101 -291 65 -276 q 175 -306 138 -306 q 275 -288 240 -306 q 325 -250 310 -271 l 279 -139 z "},"j":{"ha":396,"x_min":-158,"x_max":349,"o":"m 49 864 q 92 765 49 803 q 199 728 136 728 q 305 765 261 728 q 349 864 349 803 q 305 963 349 925 q 199 1000 261 1000 q 92 963 136 1000 q 49 864 49 925 m -60 -76 l -158 -268 q -114 -301 -140 -282 q -47 -333 -87 -319 q 51 -347 -6 -347 q 206 -317 144 -347 q 297 -233 267 -286 q 326 -111 326 -179 l 326 639 l 69 639 l 69 -35 q 62 -76 69 -60 q 39 -102 54 -93 q 3 -111 24 -111 q -31 -101 -17 -111 q -60 -76 -46 -92 z "},"ĵ":{"ha":396,"x_min":-158,"x_max":503,"o":"m -60 -76 l -158 -268 q -114 -301 -140 -282 q -47 -333 -87 -319 q 51 -347 -6 -347 q 206 -317 144 -347 q 297 -233 267 -286 q 326 -111 326 -179 l 326 639 l 69 639 l 69 -35 q 62 -76 69 -60 q 39 -102 54 -93 q 3 -111 24 -111 q -31 -101 -17 -111 q -60 -76 -46 -92 m 197 849 l 308 738 l 503 863 l 197 1057 l -108 863 l 86 738 l 197 849 z "},"k":{"ha":917,"x_min":69,"x_max":903,"o":"m 69 1083 l 69 0 l 326 0 l 326 1083 l 69 1083 m 557 639 l 286 375 l 590 0 l 903 0 l 604 375 l 875 639 l 557 639 z "},"ķ":{"ha":917,"x_min":69,"x_max":903,"o":"m 69 1083 l 69 0 l 326 0 l 326 1083 l 69 1083 m 557 639 l 286 375 l 590 0 l 903 0 l 604 375 l 875 639 l 557 639 m 356 -83 l 233 -443 l 439 -478 l 628 -131 l 356 -83 z "},"l":{"ha":410,"x_min":69,"x_max":340,"o":"m 69 1083 l 69 0 l 340 0 l 340 1083 l 69 1083 z "},"ĺ":{"ha":410,"x_min":53,"x_max":456,"o":"m 69 1083 l 69 0 l 340 0 l 340 1083 l 69 1083 m 456 1375 l 261 1458 l 53 1236 l 206 1167 l 456 1375 z "},"ļ":{"ha":410,"x_min":8,"x_max":401,"o":"m 69 1083 l 69 0 l 340 0 l 340 1083 l 69 1083 m 131 -83 l 8 -443 l 214 -478 l 401 -131 l 131 -83 z "},"ľ":{"ha":410,"x_min":69,"x_max":803,"o":"m 69 1083 l 69 0 l 340 0 l 340 1083 l 69 1083 m 532 1083 l 410 724 l 615 689 l 803 1036 l 532 1083 z "},"m":{"ha":1174,"x_min":69,"x_max":1104,"o":"m 1104 417 q 1088 546 1104 493 q 1028 626 1071 599 q 906 654 986 654 q 788 628 840 654 q 699 557 735 601 q 638 630 681 606 q 517 654 596 654 q 400 624 447 654 q 326 543 353 593 l 326 639 l 69 639 l 69 0 l 326 0 l 326 389 q 335 441 326 421 q 357 471 343 461 q 388 481 371 481 q 432 456 419 481 q 444 389 444 432 l 444 0 l 715 0 l 715 389 q 724 441 715 421 q 746 471 732 461 q 776 481 760 481 q 821 456 808 481 q 833 389 833 432 l 833 0 l 1104 0 l 1104 417 z "},"n":{"ha":840,"x_min":69,"x_max":771,"o":"m 486 389 l 486 0 l 771 0 l 771 417 q 719 592 771 531 q 538 654 668 654 q 415 624 463 654 q 340 546 367 594 l 340 639 l 69 639 l 69 0 l 340 0 l 340 389 q 350 441 340 421 q 378 471 360 461 q 419 481 396 481 q 474 456 461 481 q 486 389 486 432 z "},"ñ":{"ha":840,"x_min":69,"x_max":771,"o":"m 340 639 l 69 639 l 69 0 l 340 0 l 340 639 m 486 389 l 486 0 l 771 0 l 771 417 q 719 592 771 531 q 538 654 668 654 q 400 616 451 654 q 326 515 349 578 q 304 375 304 451 l 340 389 q 350 441 340 421 q 378 471 360 461 q 419 481 396 481 q 474 456 461 481 q 486 389 486 432 m 122 853 l 236 746 q 242 774 236 757 q 261 803 247 790 q 300 817 275 817 q 369 797 336 817 q 437 757 403 776 q 508 738 471 738 q 601 759 557 738 q 677 811 646 781 q 719 867 708 842 l 600 996 q 555 940 579 963 q 500 918 531 918 q 447 930 469 918 q 405 956 425 942 q 360 983 385 971 q 300 994 335 994 q 211 973 249 994 q 151 919 174 951 q 122 853 129 888 z "},"ń":{"ha":840,"x_min":69,"x_max":771,"o":"m 340 639 l 69 639 l 69 0 l 340 0 l 340 639 m 486 389 l 486 0 l 771 0 l 771 417 q 719 592 771 531 q 538 654 668 654 q 400 616 451 654 q 326 515 349 578 q 304 375 304 451 l 340 389 q 350 441 340 421 q 378 471 360 461 q 419 481 396 481 q 474 456 461 481 q 486 389 486 432 m 669 946 l 475 1029 l 267 807 l 419 738 l 669 946 z "},"ņ":{"ha":840,"x_min":69,"x_max":771,"o":"m 340 639 l 69 639 l 69 0 l 340 0 l 340 639 m 486 389 l 486 0 l 771 0 l 771 417 q 719 592 771 531 q 538 654 668 654 q 400 616 451 654 q 326 515 349 578 q 304 375 304 451 l 340 389 q 350 441 340 421 q 378 471 360 461 q 419 481 396 481 q 474 456 461 481 q 486 389 486 432 m 346 -83 l 224 -443 l 429 -478 l 617 -131 l 346 -83 z "},"ň":{"ha":840,"x_min":69,"x_max":771,"o":"m 340 639 l 69 639 l 69 0 l 340 0 l 340 639 m 486 389 l 486 0 l 771 0 l 771 417 q 719 592 771 531 q 538 654 668 654 q 400 616 451 654 q 326 515 349 578 q 304 375 304 451 l 340 389 q 350 441 340 421 q 378 471 360 461 q 419 481 396 481 q 474 456 461 481 q 486 389 486 432 m 419 946 l 308 1057 l 114 932 l 419 738 l 725 932 l 531 1057 l 419 946 z "},"o":{"ha":856,"x_min":42,"x_max":814,"o":"m 42 319 q 92 142 42 217 q 229 26 142 67 q 428 -14 317 -14 q 626 26 539 -14 q 764 142 714 67 q 814 319 814 217 q 764 499 814 424 q 626 614 714 574 q 428 654 539 654 q 229 614 317 654 q 92 499 142 574 q 42 319 42 424 m 321 319 q 336 385 321 358 q 376 425 351 411 q 428 439 400 439 q 480 425 456 439 q 519 385 504 411 q 535 319 535 358 q 519 254 535 281 q 480 215 504 228 q 428 201 456 201 q 376 215 400 201 q 336 254 351 228 q 321 319 321 281 z "},"ò":{"ha":856,"x_min":42,"x_max":814,"o":"m 42 319 q 92 142 42 217 q 229 26 142 67 q 428 -14 317 -14 q 626 26 539 -14 q 764 142 714 67 q 814 319 814 217 q 764 499 814 424 q 626 614 714 574 q 428 654 539 654 q 229 614 317 654 q 92 499 142 574 q 42 319 42 424 m 321 319 q 336 385 321 358 q 376 425 351 411 q 428 439 400 439 q 480 425 456 439 q 519 385 504 411 q 535 319 535 358 q 519 254 535 281 q 480 215 504 228 q 428 201 456 201 q 376 215 400 201 q 336 254 351 228 q 321 319 321 281 m 206 946 l 456 738 l 608 807 l 400 1029 l 206 946 z "},"ó":{"ha":856,"x_min":42,"x_max":814,"o":"m 42 319 q 92 142 42 217 q 229 26 142 67 q 428 -14 317 -14 q 626 26 539 -14 q 764 142 714 67 q 814 319 814 217 q 764 499 814 424 q 626 614 714 574 q 428 654 539 654 q 229 614 317 654 q 92 499 142 574 q 42 319 42 424 m 321 319 q 336 385 321 358 q 376 425 351 411 q 428 439 400 439 q 480 425 456 439 q 519 385 504 411 q 535 319 535 358 q 519 254 535 281 q 480 215 504 228 q 428 201 456 201 q 376 215 400 201 q 336 254 351 228 q 321 319 321 281 m 650 946 l 456 1029 l 247 807 l 400 738 l 650 946 z "},"ô":{"ha":856,"x_min":42,"x_max":814,"o":"m 42 319 q 92 142 42 217 q 229 26 142 67 q 428 -14 317 -14 q 626 26 539 -14 q 764 142 714 67 q 814 319 814 217 q 764 499 814 424 q 626 614 714 574 q 428 654 539 654 q 229 614 317 654 q 92 499 142 574 q 42 319 42 424 m 321 319 q 336 385 321 358 q 376 425 351 411 q 428 439 400 439 q 480 425 456 439 q 519 385 504 411 q 535 319 535 358 q 519 254 535 281 q 480 215 504 228 q 428 201 456 201 q 376 215 400 201 q 336 254 351 228 q 321 319 321 281 m 428 849 l 539 738 l 733 863 l 428 1057 l 122 863 l 317 738 l 428 849 z "},"õ":{"ha":856,"x_min":42,"x_max":814,"o":"m 42 319 q 92 142 42 217 q 229 26 142 67 q 428 -14 317 -14 q 626 26 539 -14 q 764 142 714 67 q 814 319 814 217 q 764 499 814 424 q 626 614 714 574 q 428 654 539 654 q 229 614 317 654 q 92 499 142 574 q 42 319 42 424 m 321 319 q 336 385 321 358 q 376 425 351 411 q 428 439 400 439 q 480 425 456 439 q 519 385 504 411 q 535 319 535 358 q 519 254 535 281 q 480 215 504 228 q 428 201 456 201 q 376 215 400 201 q 336 254 351 228 q 321 319 321 281 m 129 853 l 244 746 q 249 774 244 757 q 268 803 254 790 q 307 817 282 817 q 376 797 343 817 q 444 757 410 776 q 517 738 479 738 q 609 759 565 738 q 684 811 653 781 q 726 867 715 842 l 607 996 q 563 940 586 963 q 508 918 539 918 q 456 930 478 918 q 413 956 433 942 q 368 983 393 971 q 308 994 343 994 q 219 973 257 994 q 158 919 181 951 q 129 853 136 888 z "},"ö":{"ha":856,"x_min":42,"x_max":814,"o":"m 42 319 q 92 142 42 217 q 229 26 142 67 q 428 -14 317 -14 q 626 26 539 -14 q 764 142 714 67 q 814 319 814 217 q 764 499 814 424 q 626 614 714 574 q 428 654 539 654 q 229 614 317 654 q 92 499 142 574 q 42 319 42 424 m 321 319 q 336 385 321 358 q 376 425 351 411 q 428 439 400 439 q 480 425 456 439 q 519 385 504 411 q 535 319 535 358 q 519 254 535 281 q 480 215 504 228 q 428 201 456 201 q 376 215 400 201 q 336 254 351 228 q 321 319 321 281 m 465 874 q 509 775 465 813 q 615 738 553 738 q 722 775 678 738 q 765 874 765 813 q 722 972 765 935 q 615 1010 678 1010 q 509 972 553 1010 q 465 874 465 935 m 90 874 q 134 775 90 813 q 240 738 178 738 q 347 775 303 738 q 390 874 390 813 q 347 972 390 935 q 240 1010 303 1010 q 134 972 178 1010 q 90 874 90 935 z "},"ō":{"ha":856,"x_min":42,"x_max":814,"o":"m 42 319 q 92 142 42 217 q 229 26 142 67 q 428 -14 317 -14 q 626 26 539 -14 q 764 142 714 67 q 814 319 814 217 q 764 499 814 424 q 626 614 714 574 q 428 654 539 654 q 229 614 317 654 q 92 499 142 574 q 42 319 42 424 m 321 319 q 336 385 321 358 q 376 425 351 411 q 428 439 400 439 q 480 425 456 439 q 519 385 504 411 q 535 319 535 358 q 519 254 535 281 q 480 215 504 228 q 428 201 456 201 q 376 215 400 201 q 336 254 351 228 q 321 319 321 281 m 161 738 l 694 738 l 694 967 l 161 967 l 161 738 z "},"ŏ":{"ha":856,"x_min":42,"x_max":814,"o":"m 42 319 q 92 142 42 217 q 229 26 142 67 q 428 -14 317 -14 q 626 26 539 -14 q 764 142 714 67 q 814 319 814 217 q 764 499 814 424 q 626 614 714 574 q 428 654 539 654 q 229 614 317 654 q 92 499 142 574 q 42 319 42 424 m 321 319 q 336 385 321 358 q 376 425 351 411 q 428 439 400 439 q 480 425 456 439 q 519 385 504 411 q 535 319 535 358 q 519 254 535 281 q 480 215 504 228 q 428 201 456 201 q 376 215 400 201 q 336 254 351 228 q 321 319 321 281 m 194 946 q 222 838 194 885 q 303 764 250 790 q 428 738 356 738 q 553 764 501 738 q 633 838 606 790 q 661 946 661 885 l 500 946 q 488 903 500 918 q 458 882 475 888 q 428 876 442 876 q 397 882 414 876 q 368 903 381 888 q 356 946 356 918 l 194 946 z "},"ő":{"ha":856,"x_min":42,"x_max":814,"o":"m 289 738 l 499 985 l 293 1035 l 126 779 l 289 738 m 567 738 l 776 985 l 571 1035 l 404 779 l 567 738 m 42 319 q 92 142 42 217 q 229 26 142 67 q 428 -14 317 -14 q 626 26 539 -14 q 764 142 714 67 q 814 319 814 217 q 764 499 814 424 q 626 614 714 574 q 428 654 539 654 q 229 614 317 654 q 92 499 142 574 q 42 319 42 424 m 321 319 q 336 385 321 358 q 376 425 351 411 q 428 439 400 439 q 480 425 456 439 q 519 385 504 411 q 535 319 535 358 q 519 254 535 281 q 480 215 504 228 q 428 201 456 201 q 376 215 400 201 q 336 254 351 228 q 321 319 321 281 z "},"p":{"ha":896,"x_min":69,"x_max":854,"o":"m 340 -306 l 340 639 l 69 639 l 69 -306 l 340 -306 m 854 319 q 810 514 854 438 q 699 628 767 590 q 558 667 632 667 q 412 623 472 667 q 321 501 351 579 q 290 319 290 424 q 321 138 290 217 q 412 16 351 60 q 558 -28 472 -28 q 699 10 632 -28 q 810 126 767 49 q 854 319 854 203 m 568 319 q 553 260 568 285 q 512 222 538 235 q 454 208 486 208 q 400 220 426 208 q 357 256 374 232 q 340 319 340 281 q 357 383 340 358 q 400 419 374 407 q 454 431 426 431 q 512 417 486 431 q 553 380 538 404 q 568 319 568 356 z "},"q":{"ha":896,"x_min":42,"x_max":826,"o":"m 556 -306 l 826 -306 l 826 639 l 556 639 l 556 -306 m 42 319 q 85 126 42 203 q 197 10 129 49 q 338 -28 265 -28 q 485 16 425 -28 q 575 138 544 60 q 606 319 606 217 q 575 501 606 424 q 485 623 544 579 q 338 667 425 667 q 197 628 265 667 q 85 514 129 590 q 42 319 42 438 m 328 319 q 343 380 328 356 q 385 417 358 404 q 442 431 411 431 q 496 419 469 431 q 539 383 522 407 q 556 319 556 358 q 539 256 556 281 q 496 220 522 232 q 442 208 469 208 q 385 222 411 208 q 343 260 358 235 q 328 319 328 285 z "},"r":{"ha":629,"x_min":69,"x_max":622,"o":"m 333 639 l 69 639 l 69 0 l 333 0 l 333 639 m 513 364 l 622 597 q 577 638 610 621 q 510 656 544 656 q 399 620 451 656 q 315 525 347 585 q 283 389 283 465 l 333 271 q 348 346 333 317 q 386 389 363 375 q 433 403 410 403 q 481 392 461 403 q 513 364 500 381 z "},"ŕ":{"ha":629,"x_min":69,"x_max":622,"o":"m 333 639 l 69 639 l 69 0 l 333 0 l 333 639 m 513 364 l 622 597 q 577 638 610 621 q 510 656 544 656 q 399 620 451 656 q 315 525 347 585 q 283 389 283 465 l 333 271 q 348 346 333 317 q 386 389 363 375 q 433 403 410 403 q 481 392 461 403 q 513 364 500 381 m 596 947 l 401 1031 l 193 808 l 346 739 l 596 947 z "},"ŗ":{"ha":629,"x_min":6,"x_max":622,"o":"m 333 639 l 69 639 l 69 0 l 333 0 l 333 639 m 513 364 l 622 597 q 577 638 610 621 q 510 656 544 656 q 399 620 451 656 q 315 525 347 585 q 283 389 283 465 l 333 271 q 348 346 333 317 q 386 389 363 375 q 433 403 410 403 q 481 392 461 403 q 513 364 500 381 m 128 -83 l 6 -443 l 211 -478 l 397 -131 l 128 -83 z "},"ř":{"ha":629,"x_min":40,"x_max":651,"o":"m 333 639 l 69 639 l 69 0 l 333 0 l 333 639 m 513 364 l 622 597 q 577 638 610 621 q 510 656 544 656 q 399 620 451 656 q 315 525 347 585 q 283 389 283 465 l 333 271 q 348 346 333 317 q 386 389 363 375 q 433 403 410 403 q 481 392 461 403 q 513 364 500 381 m 346 947 l 235 1058 l 40 933 l 346 739 l 651 933 l 457 1058 l 346 947 z "},"ȓ":{"ha":629,"x_min":69,"x_max":622,"o":"m 333 639 l 69 639 l 69 0 l 333 0 l 333 639 m 513 364 l 622 597 q 577 638 610 621 q 510 656 544 656 q 399 620 451 656 q 315 525 347 585 q 283 389 283 465 l 333 271 q 348 346 333 317 q 386 389 363 375 q 433 403 410 403 q 481 392 461 403 q 513 364 500 381 m 113 739 q 140 848 113 801 q 221 921 168 894 q 346 947 274 947 q 472 921 419 947 q 551 848 524 894 q 579 739 579 801 l 418 739 q 406 783 418 768 q 376 803 393 797 q 346 808 360 808 q 315 803 332 808 q 286 783 299 797 q 274 739 274 768 l 113 739 z "},"s":{"ha":678,"x_min":21,"x_max":650,"o":"m 108 254 l 21 64 q 138 11 79 33 q 260 -23 196 -11 q 396 -35 324 -35 q 585 16 519 -35 q 650 181 650 67 q 625 278 650 242 q 560 336 600 314 q 474 375 519 358 q 384 406 418 396 q 334 426 350 415 q 318 454 318 436 q 326 472 318 464 q 360 481 335 481 q 458 456 399 481 q 564 392 517 432 l 631 576 q 536 615 583 599 q 439 642 489 632 q 331 653 389 653 q 194 631 251 653 q 104 566 136 608 q 72 464 72 524 q 97 360 72 400 q 163 297 122 319 q 251 258 204 274 q 339 228 311 240 q 374 207 367 217 q 382 185 382 197 q 373 162 382 171 q 342 153 364 153 q 301 158 331 153 q 223 185 271 164 q 108 254 175 207 z "},"ś":{"ha":678,"x_min":21,"x_max":650,"o":"m 108 254 l 21 64 q 138 11 79 33 q 260 -23 196 -11 q 396 -35 324 -35 q 585 16 519 -35 q 650 181 650 67 q 625 278 650 242 q 560 336 600 314 q 474 375 519 358 q 392 402 431 392 q 328 424 353 413 q 304 450 304 435 q 315 466 304 461 q 353 471 325 471 q 417 462 379 471 q 494 435 454 453 q 564 392 533 418 l 631 576 q 536 615 583 599 q 439 642 489 632 q 331 653 389 653 q 187 632 251 653 q 85 567 122 611 q 47 457 47 524 q 67 364 47 400 q 122 303 88 328 q 196 258 156 279 q 277 230 233 240 q 351 210 321 219 q 382 182 382 200 q 372 165 382 168 q 347 163 361 163 q 306 167 336 163 q 228 192 276 172 q 108 254 179 211 m 581 946 l 386 1029 l 178 807 l 331 738 l 581 946 z "},"ŝ":{"ha":678,"x_min":21,"x_max":664,"o":"m 108 254 l 21 64 q 138 11 79 33 q 260 -23 196 -11 q 396 -35 324 -35 q 585 16 519 -35 q 650 181 650 67 q 625 278 650 242 q 560 336 600 314 q 474 375 519 358 q 392 402 431 392 q 328 424 353 413 q 304 450 304 435 q 315 466 304 461 q 353 471 325 471 q 417 462 379 471 q 494 435 454 453 q 564 392 533 418 l 631 576 q 536 615 583 599 q 439 642 489 632 q 331 653 389 653 q 187 632 251 653 q 85 567 122 611 q 47 457 47 524 q 67 364 47 400 q 122 303 88 328 q 196 258 156 279 q 277 230 233 240 q 351 210 321 219 q 382 182 382 200 q 372 165 382 168 q 347 163 361 163 q 306 167 336 163 q 228 192 276 172 q 108 254 179 211 m 358 849 l 469 738 l 664 863 l 358 1057 l 53 863 l 247 738 l 358 849 z "},"ş":{"ha":678,"x_min":21,"x_max":650,"o":"m 108 254 l 21 64 q 138 11 79 33 q 260 -23 196 -11 q 396 -35 324 -35 q 585 16 519 -35 q 650 181 650 67 q 625 278 650 242 q 560 336 600 314 q 474 375 519 358 q 395 401 431 392 q 339 422 360 411 q 318 454 318 433 q 328 472 318 464 q 367 481 339 481 q 461 456 406 481 q 564 392 517 432 l 631 576 q 488 631 560 608 q 331 653 417 653 q 194 631 251 653 q 104 566 136 608 q 72 464 72 524 q 98 360 72 400 q 165 298 124 321 q 251 258 206 275 q 317 238 288 247 q 364 216 346 228 q 382 185 382 204 q 373 162 382 171 q 347 153 364 153 q 306 158 336 153 q 228 183 276 163 q 108 254 179 204 m 313 93 l 189 -200 q 274 -182 233 -185 q 324 -179 314 -179 q 385 -185 354 -179 q 417 -221 417 -192 q 395 -256 417 -246 q 338 -265 374 -265 q 281 -258 321 -265 q 210 -229 240 -250 l 136 -349 q 255 -392 197 -381 q 382 -404 313 -404 q 476 -386 429 -404 q 553 -331 522 -368 q 585 -240 585 -294 q 562 -153 585 -187 q 506 -101 539 -118 q 442 -85 472 -85 q 403 -86 421 -85 q 368 -93 385 -87 l 507 85 l 313 93 z "},"š":{"ha":678,"x_min":21,"x_max":650,"o":"m 108 254 l 21 64 q 138 11 79 33 q 260 -23 196 -11 q 396 -35 324 -35 q 585 16 519 -35 q 650 181 650 67 q 625 278 650 242 q 560 336 600 314 q 474 375 519 358 q 392 402 431 392 q 328 424 353 413 q 304 450 304 435 q 315 466 304 461 q 353 471 325 471 q 417 462 379 471 q 494 435 454 453 q 564 392 533 418 l 631 576 q 536 615 583 599 q 439 642 489 632 q 331 653 389 653 q 187 632 251 653 q 85 567 122 611 q 47 457 47 524 q 67 364 47 400 q 122 303 88 328 q 196 258 156 279 q 277 230 233 240 q 351 210 321 219 q 382 182 382 200 q 372 165 382 168 q 347 163 361 163 q 306 167 336 163 q 228 192 276 172 q 108 254 179 211 m 331 918 l 219 1029 l 25 904 l 331 710 l 636 904 l 442 1029 l 331 918 z "},"ș":{"ha":678,"x_min":21,"x_max":650,"o":"m 108 254 l 21 64 q 138 11 79 33 q 260 -23 196 -11 q 396 -35 324 -35 q 585 16 519 -35 q 650 181 650 67 q 625 278 650 242 q 560 336 600 314 q 474 375 519 358 q 392 402 431 392 q 328 424 353 413 q 304 450 304 435 q 315 466 304 461 q 353 471 325 471 q 417 462 379 471 q 494 435 454 453 q 564 392 533 418 l 631 576 q 536 615 583 599 q 439 642 489 632 q 331 653 389 653 q 187 632 251 653 q 85 567 122 611 q 47 457 47 524 q 67 364 47 400 q 122 303 88 328 q 196 258 156 279 q 277 230 233 240 q 351 210 321 219 q 382 182 382 200 q 372 165 382 168 q 347 163 361 163 q 306 167 336 163 q 228 192 276 172 q 108 254 179 211 m 267 -90 l 144 -450 l 350 -485 l 536 -137 l 267 -90 z "},"t":{"ha":507,"x_min":7,"x_max":500,"o":"m 7 639 l 7 424 l 500 424 l 500 639 l 7 639 m 125 861 l 125 0 l 382 0 l 382 861 l 125 861 z "},"ţ":{"ha":507,"x_min":-19,"x_max":500,"o":"m 157 17 l 33 -276 q 118 -258 78 -261 q 168 -256 158 -256 q 230 -262 199 -256 q 261 -297 261 -268 q 240 -332 261 -322 q 182 -342 218 -342 q 125 -334 165 -342 q 54 -306 85 -326 l -19 -425 q 99 -469 42 -457 q 226 -481 157 -481 q 320 -462 274 -481 q 398 -408 367 -444 q 429 -317 429 -371 q 406 -229 429 -264 q 350 -178 383 -194 q 286 -161 317 -161 q 247 -162 265 -161 q 213 -169 229 -164 l 351 8 l 157 17 m 7 639 l 7 424 l 500 424 l 500 639 l 7 639 m 125 861 l 125 0 l 382 0 l 382 861 l 125 861 z "},"ť":{"ha":785,"x_min":7,"x_max":871,"o":"m 7 639 l 7 424 l 500 424 l 500 639 l 7 639 m 125 861 l 125 0 l 382 0 l 382 861 l 125 861 m 600 1072 l 478 713 l 683 678 l 871 1025 l 600 1072 z "},"ț":{"ha":507,"x_min":7,"x_max":500,"o":"m 7 639 l 7 424 l 500 424 l 500 639 l 7 639 m 125 861 l 125 0 l 382 0 l 382 861 l 125 861 m 179 -83 l 57 -443 l 263 -478 l 450 -131 l 179 -83 z "},"u":{"ha":840,"x_min":69,"x_max":771,"o":"m 354 250 l 354 639 l 69 639 l 69 222 q 121 47 69 108 q 303 -15 172 -15 q 426 15 378 -15 q 500 93 474 44 l 500 0 l 771 0 l 771 639 l 500 639 l 500 250 q 490 198 500 218 q 463 168 481 178 q 421 158 446 158 q 367 183 379 158 q 354 250 354 207 z "},"ù":{"ha":840,"x_min":69,"x_max":771,"o":"m 500 0 l 771 0 l 771 639 l 500 639 l 500 0 m 354 250 l 354 639 l 69 639 l 69 222 q 121 47 69 108 q 303 -15 172 -15 q 441 23 390 -15 q 514 125 492 61 q 536 264 536 189 l 500 250 q 490 198 500 218 q 463 168 481 178 q 421 158 446 158 q 367 183 379 158 q 354 250 354 207 m 197 946 l 447 738 l 600 807 l 392 1029 l 197 946 z "},"ú":{"ha":840,"x_min":69,"x_max":771,"o":"m 500 0 l 771 0 l 771 639 l 500 639 l 500 0 m 354 250 l 354 639 l 69 639 l 69 222 q 121 47 69 108 q 303 -15 172 -15 q 441 23 390 -15 q 514 125 492 61 q 536 264 536 189 l 500 250 q 490 198 500 218 q 463 168 481 178 q 421 158 446 158 q 367 183 379 158 q 354 250 354 207 m 642 946 l 447 1029 l 239 807 l 392 738 l 642 946 z "},"û":{"ha":840,"x_min":69,"x_max":771,"o":"m 500 0 l 771 0 l 771 639 l 500 639 l 500 0 m 354 250 l 354 639 l 69 639 l 69 222 q 121 47 69 108 q 303 -15 172 -15 q 441 23 390 -15 q 514 125 492 61 q 536 264 536 189 l 500 250 q 490 198 500 218 q 463 168 481 178 q 421 158 446 158 q 367 183 379 158 q 354 250 354 207 m 419 849 l 531 738 l 725 863 l 419 1057 l 114 863 l 308 738 l 419 849 z "},"ü":{"ha":840,"x_min":69,"x_max":771,"o":"m 500 0 l 771 0 l 771 639 l 500 639 l 500 0 m 354 250 l 354 639 l 69 639 l 69 222 q 121 47 69 108 q 303 -15 172 -15 q 441 23 390 -15 q 514 125 492 61 q 536 264 536 189 l 500 250 q 490 198 500 218 q 463 168 481 178 q 421 158 446 158 q 367 183 379 158 q 354 250 354 207 m 458 874 q 502 775 458 813 q 608 738 546 738 q 715 775 671 738 q 758 874 758 813 q 715 972 758 935 q 608 1010 671 1010 q 502 972 546 1010 q 458 874 458 935 m 83 874 q 127 775 83 813 q 233 738 171 738 q 340 775 296 738 q 383 874 383 813 q 340 972 383 935 q 233 1010 296 1010 q 127 972 171 1010 q 83 874 83 935 z "},"ũ":{"ha":840,"x_min":69,"x_max":771,"o":"m 500 0 l 771 0 l 771 639 l 500 639 l 500 0 m 354 250 l 354 639 l 69 639 l 69 222 q 121 47 69 108 q 303 -15 172 -15 q 441 23 390 -15 q 514 125 492 61 q 536 264 536 189 l 500 250 q 490 198 500 218 q 463 168 481 178 q 421 158 446 158 q 367 183 379 158 q 354 250 354 207 m 122 853 l 238 746 q 242 774 238 757 q 261 803 247 790 q 300 817 275 817 q 369 797 336 817 q 438 757 403 776 q 510 738 472 738 q 602 759 558 738 q 677 811 646 781 q 719 867 708 842 l 600 996 q 556 940 579 963 q 501 918 532 918 q 449 930 471 918 q 406 956 426 942 q 361 983 386 971 q 301 994 336 994 q 212 973 250 994 q 151 919 174 951 q 122 853 129 888 z "},"ū":{"ha":840,"x_min":69,"x_max":771,"o":"m 500 0 l 771 0 l 771 639 l 500 639 l 500 0 m 354 250 l 354 639 l 69 639 l 69 222 q 121 47 69 108 q 303 -15 172 -15 q 441 23 390 -15 q 514 125 492 61 q 536 264 536 189 l 500 250 q 490 198 500 218 q 463 168 481 178 q 421 158 446 158 q 367 183 379 158 q 354 250 354 207 m 153 738 l 688 738 l 688 967 l 153 967 l 153 738 z "},"ŭ":{"ha":840,"x_min":69,"x_max":771,"o":"m 500 0 l 771 0 l 771 639 l 500 639 l 500 0 m 354 250 l 354 639 l 69 639 l 69 222 q 121 47 69 108 q 303 -15 172 -15 q 441 23 390 -15 q 514 125 492 61 q 536 264 536 189 l 500 250 q 490 198 500 218 q 463 168 481 178 q 421 158 446 158 q 367 183 379 158 q 354 250 354 207 m 188 946 q 215 838 188 885 q 296 764 243 790 q 421 738 349 738 q 547 764 494 738 q 626 838 599 790 q 654 946 654 885 l 493 946 q 481 903 493 918 q 451 882 468 888 q 421 876 435 876 q 390 882 407 876 q 361 903 374 888 q 349 946 349 918 l 188 946 z "},"ů":{"ha":840,"x_min":69,"x_max":771,"o":"m 500 0 l 771 0 l 771 639 l 500 639 l 500 0 m 354 250 l 354 639 l 69 639 l 69 222 q 121 47 69 108 q 303 -15 172 -15 q 441 23 390 -15 q 514 125 492 61 q 536 264 536 189 l 500 250 q 490 198 500 218 q 463 168 481 178 q 421 158 446 158 q 367 183 379 158 q 354 250 354 207 m 228 911 q 282 786 228 835 q 419 738 336 738 q 558 786 503 738 q 614 911 614 835 q 558 1037 614 989 q 419 1085 503 1085 q 282 1037 336 1085 q 228 911 228 989 m 360 911 q 376 957 360 940 q 419 974 393 974 q 463 957 446 974 q 481 911 481 940 q 463 866 481 882 q 419 850 446 850 q 376 866 393 850 q 360 911 360 882 z "},"ű":{"ha":840,"x_min":69,"x_max":771,"o":"m 282 738 l 492 985 l 286 1035 l 119 779 l 282 738 m 560 738 l 769 985 l 564 1035 l 397 779 l 560 738 m 354 250 l 354 639 l 69 639 l 69 222 q 121 47 69 108 q 303 -15 172 -15 q 426 15 378 -15 q 500 93 474 44 l 500 0 l 771 0 l 771 639 l 500 639 l 500 250 q 490 198 500 218 q 463 168 481 178 q 421 158 446 158 q 367 183 379 158 q 354 250 354 207 z "},"ų":{"ha":840,"x_min":69,"x_max":801,"o":"m 756 -139 q 722 -160 742 -153 q 686 -167 703 -167 q 656 -155 665 -167 q 647 -125 647 -143 q 658 -85 647 -106 q 690 -44 668 -65 q 749 0 713 -22 l 692 35 q 598 -19 643 10 q 524 -83 553 -47 q 494 -167 494 -118 q 518 -245 494 -214 q 578 -291 542 -276 q 651 -306 614 -306 q 751 -288 717 -306 q 801 -250 786 -271 l 756 -139 m 354 250 l 354 639 l 69 639 l 69 222 q 121 47 69 108 q 303 -15 172 -15 q 426 15 378 -15 q 500 93 474 44 l 500 0 l 771 0 l 771 639 l 500 639 l 500 250 q 490 198 500 218 q 463 168 481 178 q 421 158 446 158 q 367 183 379 158 q 354 250 354 207 z "},"v":{"ha":806,"x_min":-7,"x_max":813,"o":"m -7 639 l 403 -90 l 813 639 l 528 639 l 403 343 l 278 639 l -7 639 z "},"w":{"ha":1125,"x_min":-21,"x_max":1146,"o":"m -21 639 l 340 -35 l 563 293 l 785 -35 l 1146 639 l 868 639 l 751 365 l 563 688 l 374 365 l 257 639 l -21 639 z "},"ŵ":{"ha":1125,"x_min":-21,"x_max":1146,"o":"m -21 639 l 340 -35 l 563 293 l 785 -35 l 1146 639 l 868 639 l 751 365 l 563 688 l 374 365 l 257 639 l -21 639 m 563 882 l 674 771 l 868 896 l 563 1090 l 257 896 l 451 771 l 563 882 z "},"ẁ":{"ha":1125,"x_min":-21,"x_max":1146,"o":"m 563 771 l 715 840 l 507 1063 l 313 979 l 563 771 m -21 639 l 340 -35 l 563 293 l 785 -35 l 1146 639 l 868 639 l 751 365 l 563 688 l 374 365 l 257 639 l -21 639 z "},"ẃ":{"ha":1125,"x_min":-21,"x_max":1146,"o":"m 563 771 l 813 979 l 618 1063 l 410 840 l 563 771 m -21 639 l 340 -35 l 563 293 l 785 -35 l 1146 639 l 868 639 l 751 365 l 563 688 l 374 365 l 257 639 l -21 639 z "},"ẅ":{"ha":1125,"x_min":-21,"x_max":1146,"o":"m 600 907 q 644 808 600 846 q 750 771 688 771 q 856 808 813 771 q 900 907 900 846 q 856 1006 900 968 q 750 1043 813 1043 q 644 1006 688 1043 q 600 907 600 968 m 225 907 q 269 808 225 846 q 375 771 313 771 q 481 808 438 771 q 525 907 525 846 q 481 1006 525 968 q 375 1043 438 1043 q 269 1006 313 1043 q 225 907 225 968 m -21 639 l 340 -35 l 563 293 l 785 -35 l 1146 639 l 868 639 l 751 365 l 563 688 l 374 365 l 257 639 l -21 639 z "},"ẇ":{"ha":1125,"x_min":-21,"x_max":1146,"o":"m 413 907 q 456 808 413 846 q 563 771 500 771 q 669 808 625 771 q 713 907 713 846 q 669 1006 713 968 q 563 1043 625 1043 q 456 1006 500 1043 q 413 907 413 968 m -21 639 l 340 -35 l 563 293 l 785 -35 l 1146 639 l 868 639 l 751 365 l 563 688 l 374 365 l 257 639 l -21 639 z "},"ẉ":{"ha":1125,"x_min":-21,"x_max":1146,"o":"m 413 -254 q 456 -353 413 -315 q 563 -390 500 -390 q 669 -353 625 -390 q 713 -254 713 -315 q 669 -156 713 -193 q 563 -118 625 -118 q 456 -156 500 -118 q 413 -254 413 -193 m -21 639 l 340 -35 l 563 293 l 785 -35 l 1146 639 l 868 639 l 751 365 l 563 688 l 374 365 l 257 639 l -21 639 z "},"x":{"ha":833,"x_min":0,"x_max":833,"o":"m 521 639 l 422 504 l 326 639 l 14 639 l 281 328 l 0 0 l 313 0 l 422 151 l 535 0 l 833 0 l 558 328 l 819 639 l 521 639 z "},"y":{"ha":792,"x_min":-21,"x_max":813,"o":"m 813 639 l 542 639 l 333 118 l 479 118 l 271 639 l -21 639 l 275 28 l 132 -306 l 396 -306 l 813 639 z "},"ý":{"ha":792,"x_min":-21,"x_max":813,"o":"m 813 639 l 542 639 l 333 118 l 479 118 l 271 639 l -21 639 l 275 28 l 132 -306 l 396 -306 l 813 639 m 646 946 l 451 1029 l 243 807 l 396 738 l 646 946 z "},"ÿ":{"ha":792,"x_min":-21,"x_max":813,"o":"m 813 639 l 542 639 l 333 118 l 479 118 l 271 639 l -21 639 l 275 28 l 132 -306 l 396 -306 l 813 639 m 433 874 q 477 775 433 813 q 583 738 521 738 q 690 775 646 738 q 733 874 733 813 q 690 972 733 935 q 583 1010 646 1010 q 477 972 521 1010 q 433 874 433 935 m 58 874 q 102 775 58 813 q 208 738 146 738 q 315 775 271 738 q 358 874 358 813 q 315 972 358 935 q 208 1010 271 1010 q 102 972 146 1010 q 58 874 58 935 z "},"ŷ":{"ha":792,"x_min":-21,"x_max":813,"o":"m 813 639 l 542 639 l 333 118 l 479 118 l 271 639 l -21 639 l 275 28 l 132 -306 l 396 -306 l 813 639 m 396 849 l 507 738 l 701 863 l 396 1057 l 90 863 l 285 738 l 396 849 z "},"ỳ":{"ha":792,"x_min":-21,"x_max":813,"o":"m 396 738 l 549 807 l 340 1029 l 146 946 l 396 738 m 813 639 l 542 639 l 333 118 l 479 118 l 271 639 l -21 639 l 275 28 l 132 -306 l 396 -306 l 813 639 z "},"z":{"ha":778,"x_min":21,"x_max":757,"o":"m 319 396 l 21 0 l 701 0 l 701 243 l 485 243 l 757 639 l 90 639 l 90 396 l 319 396 z "},"ź":{"ha":778,"x_min":21,"x_max":757,"o":"m 319 396 l 21 0 l 701 0 l 701 243 l 485 243 l 757 639 l 90 639 l 90 396 l 319 396 m 674 946 l 479 1029 l 271 807 l 424 738 l 674 946 z "},"ż":{"ha":778,"x_min":21,"x_max":757,"o":"m 319 396 l 21 0 l 701 0 l 701 243 l 485 243 l 757 639 l 90 639 l 90 396 l 319 396 m 274 874 q 317 775 274 813 q 424 738 361 738 q 530 775 486 738 q 574 874 574 813 q 530 972 574 935 q 424 1010 486 1010 q 317 972 361 1010 q 274 874 274 935 z "},"ž":{"ha":764,"x_min":21,"x_max":757,"o":"m 424 946 l 313 1056 l 118 931 l 424 736 l 729 931 l 535 1056 l 424 946 m 322 396 l 21 0 l 701 0 l 701 243 l 482 243 l 757 639 l 90 639 l 90 396 l 322 396 z "},"ß":{"ha":869,"x_min":42,"x_max":894,"o":"m 544 -17 q 671 6 608 -17 q 784 69 733 29 q 865 163 835 110 q 894 278 894 217 q 881 362 894 328 q 844 419 867 396 q 797 460 822 443 q 750 490 772 476 q 714 519 728 504 q 700 556 700 535 q 710 592 700 574 q 736 630 721 610 q 767 676 751 650 q 792 738 782 703 q 803 822 803 774 q 751 977 803 913 q 611 1076 699 1042 q 419 1110 524 1110 q 213 1066 297 1110 q 85 936 129 1022 q 42 721 42 850 l 43 -3 l 314 -3 l 311 733 q 323 810 311 781 q 359 855 335 840 q 419 869 383 869 q 476 857 453 869 q 510 822 499 844 q 522 764 522 799 q 512 704 522 731 q 486 656 501 678 q 456 613 471 633 q 430 570 440 592 q 419 524 419 549 q 433 475 419 496 q 469 438 447 454 q 517 408 492 422 q 564 376 542 393 q 600 338 586 360 q 614 285 614 315 q 601 236 614 257 q 566 203 589 215 q 511 192 543 192 q 468 196 492 192 q 422 207 444 200 q 381 222 399 214 l 354 15 q 408 -1 376 7 q 476 -12 440 -8 q 544 -17 511 -17 z "},"æ":{"ha":1304,"x_min":28,"x_max":1267,"o":"m 310 -14 q 510 25 431 -14 q 617 136 589 64 l 600 138 q 708 24 633 61 q 900 -14 782 -14 q 1124 36 1036 -14 q 1267 190 1213 86 l 1019 229 q 968 184 1006 201 q 886 167 931 167 q 828 179 851 167 q 791 219 804 192 q 774 289 778 246 l 747 264 l 1254 264 q 1256 292 1256 272 q 1257 332 1257 313 q 1219 508 1257 436 q 1108 616 1182 579 q 928 653 1035 653 q 798 636 857 653 q 694 586 739 619 q 617 503 649 553 l 635 503 q 569 622 625 585 q 407 660 514 660 q 258 642 335 660 q 86 589 181 625 l 168 414 q 232 438 194 426 q 309 456 269 449 q 379 463 349 463 q 454 441 429 463 q 479 378 479 419 l 479 306 l 600 306 q 435 365 500 349 q 307 382 369 382 q 160 357 224 382 q 63 287 97 332 q 28 181 28 242 q 101 37 28 88 q 310 -14 175 -14 m 365 147 q 316 159 332 147 q 300 193 300 171 q 320 236 300 222 q 382 250 340 250 q 453 240 418 250 q 519 211 489 231 l 478 249 l 483 200 l 481 253 q 450 175 481 203 q 365 147 419 147 m 772 325 q 784 415 772 379 q 819 468 796 450 q 879 486 843 486 q 930 473 910 486 q 960 434 950 460 q 971 369 971 408 q 971 361 971 364 q 968 347 971 358 l 1000 394 l 747 394 l 772 325 z "},"ð":{"ha":913,"x_min":69,"x_max":844,"o":"m 450 -28 q 652 22 563 -28 q 793 159 742 72 q 844 354 844 246 q 824 488 844 418 q 766 630 804 557 q 670 778 728 703 q 538 932 613 854 q 374 1086 464 1010 l 164 965 q 310 856 242 914 q 440 732 379 797 q 552 595 500 667 q 647 444 604 524 l 704 442 q 365 671 575 671 q 210 632 276 671 q 106 522 143 593 q 69 354 69 450 q 118 156 69 243 q 253 21 167 69 q 450 -28 339 -28 m 456 201 q 399 217 424 201 q 362 258 375 232 q 349 319 349 285 q 363 381 349 354 q 401 424 376 408 q 456 439 425 439 q 511 424 488 439 q 549 381 535 408 q 563 319 563 354 q 549 258 563 285 q 512 217 536 232 q 456 201 488 201 m 194 707 l 736 867 l 714 950 l 172 790 l 194 707 z "},"ø":{"ha":758,"x_min":42,"x_max":814,"o":"m 42 319 q 93 135 42 210 q 232 24 144 61 q 428 -14 319 -14 q 624 24 536 -14 q 763 135 711 61 q 814 319 814 210 q 763 504 814 431 q 624 615 711 578 q 428 653 536 653 q 232 615 319 653 q 93 504 144 578 q 42 319 42 431 m 293 319 q 313 388 293 358 q 363 435 332 418 q 428 451 393 451 q 493 435 463 451 q 543 388 524 418 q 563 319 563 358 q 543 244 563 274 q 493 201 524 215 q 428 188 463 188 q 363 201 393 188 q 313 244 332 215 q 293 319 293 274 m 646 708 l 104 -19 l 194 -75 l 736 653 l 646 708 z "},"þ":{"ha":896,"x_min":69,"x_max":854,"o":"m 340 -306 l 340 1083 l 69 1083 l 69 -306 l 340 -306 m 854 319 q 810 504 854 431 q 699 615 767 578 q 558 653 632 653 q 415 613 479 653 q 314 498 351 572 q 276 319 276 424 q 314 142 276 217 q 415 26 351 67 q 558 -14 479 -14 q 699 24 632 -14 q 810 135 767 61 q 854 319 854 210 m 568 319 q 553 256 568 285 q 512 211 538 228 q 454 194 486 194 q 400 210 426 194 q 357 253 374 225 q 340 319 340 281 q 357 386 340 358 q 400 429 374 414 q 454 444 426 444 q 512 428 486 444 q 553 383 538 411 q 568 319 568 356 z "},"đ":{"ha":896,"x_min":42,"x_max":951,"o":"m 410 764 l 951 764 l 951 924 l 410 924 l 410 764 m 556 1083 l 556 0 l 826 0 l 826 1083 l 556 1083 m 42 319 q 85 135 42 210 q 197 24 129 61 q 338 -14 265 -14 q 481 26 418 -14 q 582 142 544 67 q 619 319 619 217 q 582 498 619 424 q 481 613 544 572 q 338 653 418 653 q 197 615 265 653 q 85 504 129 578 q 42 319 42 431 m 328 319 q 343 383 328 356 q 385 428 358 411 q 442 444 411 444 q 483 436 463 444 q 519 411 503 428 q 546 372 536 394 q 556 319 556 349 q 546 267 556 290 q 519 228 536 244 q 483 203 503 211 q 442 194 463 194 q 385 211 411 194 q 343 256 358 228 q 328 319 328 285 z "},"ħ":{"ha":826,"x_min":7,"x_max":757,"o":"m 340 1083 l 69 1083 l 69 0 l 340 0 l 340 1083 m 486 389 l 486 0 l 757 0 l 757 431 q 738 560 757 507 q 672 640 719 613 q 538 668 625 668 q 400 630 451 668 q 326 528 349 592 q 304 389 304 465 l 340 389 q 350 441 340 421 q 378 471 360 461 q 419 481 396 481 q 474 456 461 481 q 486 389 486 432 m 7 806 l 483 806 l 483 1035 l 7 1035 l 7 806 z "},"ı":{"ha":397,"x_min":68,"x_max":328,"o":"m 68 639 l 68 0 l 328 0 l 328 639 l 68 639 z "},"ĳ":{"ha":786,"x_min":49,"x_max":738,"o":"m 438 864 q 481 765 438 803 q 588 728 525 728 q 694 765 650 728 q 738 864 738 803 q 694 963 738 925 q 588 1000 650 1000 q 481 963 525 1000 q 438 864 438 925 m 329 -76 l 231 -268 q 275 -301 249 -282 q 342 -333 301 -319 q 440 -347 383 -347 q 594 -317 533 -347 q 685 -233 656 -286 q 715 -111 715 -179 l 715 639 l 458 639 l 458 -35 q 451 -76 458 -60 q 428 -102 443 -93 q 392 -111 413 -111 q 358 -101 372 -111 q 329 -76 343 -92 m 49 864 q 92 765 49 803 q 199 728 136 728 q 305 765 261 728 q 349 864 349 803 q 305 963 349 925 q 199 1000 261 1000 q 92 963 136 1000 q 49 864 49 925 m 68 639 l 68 0 l 328 0 l 328 639 l 68 639 z "},"ĸ":{"ha":917,"x_min":69,"x_max":903,"o":"m 69 639 l 69 0 l 326 0 l 326 639 l 69 639 m 557 639 l 286 375 l 590 0 l 903 0 l 604 375 l 875 639 l 557 639 z "},"ŀ":{"ha":751,"x_min":69,"x_max":710,"o":"m 69 1083 l 69 0 l 340 0 l 340 1083 l 69 1083 m 382 563 q 428 450 382 497 q 546 403 474 403 q 665 450 619 403 q 710 563 710 497 q 665 675 710 628 q 546 722 619 722 q 428 675 474 722 q 382 563 382 628 z "},"ł":{"ha":410,"x_min":-90,"x_max":507,"o":"m -21 403 l 507 764 l 438 882 l -90 521 l -21 403 m 69 1083 l 69 0 l 340 0 l 340 1083 l 69 1083 z "},"ŉ":{"ha":1132,"x_min":69,"x_max":1063,"o":"m 632 639 l 361 639 l 361 0 l 632 0 l 632 639 m 778 389 l 778 0 l 1063 0 l 1063 417 q 1011 592 1063 531 q 829 654 960 654 q 692 616 743 654 q 618 515 640 578 q 596 375 596 451 l 632 389 q 642 441 632 421 q 669 471 651 461 q 711 481 688 481 q 765 456 753 481 q 778 389 778 432 m 139 972 l 69 597 l 264 597 l 410 972 l 139 972 z "},"ŋ":{"ha":840,"x_min":69,"x_max":771,"o":"m 468 -347 q 691 -285 611 -347 q 771 -111 771 -222 l 771 417 q 715 597 771 540 q 538 654 658 654 q 419 627 469 654 q 340 547 369 600 l 340 639 l 69 639 l 69 0 l 340 0 l 340 382 q 349 438 340 415 q 376 470 358 460 q 419 481 393 481 q 471 460 456 481 q 486 389 486 439 l 486 -35 q 469 -91 486 -71 q 419 -111 451 -111 q 357 -76 388 -111 l 258 -268 q 360 -328 311 -310 q 468 -347 410 -347 z "},"œ":{"ha":1250,"x_min":49,"x_max":1211,"o":"m 917 347 l 917 319 l 1197 264 q 1200 294 1199 272 q 1201 325 1201 317 q 1161 499 1201 426 q 1056 613 1121 572 q 914 653 990 653 q 766 619 832 653 q 658 526 700 586 q 603 388 617 467 q 599 354 600 371 q 597 319 597 338 q 633 148 597 224 q 735 29 669 72 q 886 -14 800 -14 q 1020 14 956 -14 q 1135 88 1085 42 q 1211 190 1186 135 l 967 231 q 913 180 942 200 q 836 160 885 160 q 776 178 801 160 q 738 231 751 196 q 724 319 724 267 l 726 361 q 741 435 726 407 q 779 474 756 463 q 831 486 803 486 q 878 471 858 486 q 907 424 897 456 q 917 347 917 393 m 668 264 l 1197 264 l 1172 393 l 668 393 l 668 264 m 49 319 q 92 142 49 217 q 207 26 135 67 q 365 -14 279 -14 q 516 26 453 -14 q 613 142 579 67 q 647 319 647 217 q 613 498 647 424 q 516 613 579 572 q 365 653 453 653 q 207 613 279 653 q 92 498 135 572 q 49 319 49 424 m 314 319 q 328 385 314 358 q 366 424 342 411 q 421 438 390 438 q 479 424 456 438 q 515 385 503 411 q 528 319 528 358 q 515 254 528 281 q 479 215 503 228 q 421 201 456 201 q 366 215 390 201 q 328 254 342 228 q 314 319 314 281 z "},"ŧ":{"ha":333,"x_min":7,"x_max":500,"o":"m 28 222 l 333 222 l 333 451 l 28 451 l 28 222 m 7 639 l 7 424 l 500 424 l 500 639 l 7 639 m 125 861 l 125 0 l 382 0 l 382 861 l 125 861 z "},"ȷ":{"ha":396,"x_min":-158,"x_max":326,"o":"m -60 -76 l -158 -268 q -114 -301 -140 -282 q -47 -333 -87 -319 q 51 -347 -6 -347 q 206 -317 144 -347 q 297 -233 267 -286 q 326 -111 326 -179 l 326 639 l 69 639 l 69 -35 q 62 -76 69 -60 q 39 -102 54 -93 q 3 -111 24 -111 q -31 -101 -17 -111 q -60 -76 -46 -92 z "},"μ":{"ha":829,"x_min":69,"x_max":771,"o":"m 354 639 l 69 639 l 69 -444 l 326 -444 l 326 28 q 372 5 354 10 q 408 0 390 0 q 463 19 440 0 q 500 65 486 39 l 500 0 l 771 0 l 771 639 l 500 639 l 500 306 q 490 253 500 274 q 463 224 481 233 q 421 214 446 214 q 367 238 379 214 q 354 306 354 263 l 354 639 z "},"π":{"ha":889,"x_min":42,"x_max":833,"o":"m 125 597 l 125 0 l 375 0 l 375 597 l 125 597 m 42 639 l 42 424 l 833 424 l 833 639 l 42 639 m 472 597 l 472 168 q 508 41 472 79 q 617 -5 544 3 q 796 -12 689 -12 l 796 182 q 758 187 775 182 q 732 213 742 192 q 722 279 722 233 l 722 597 l 472 597 z "},"а":{"ha":806,"x_min":28,"x_max":736,"o":"m 300 193 q 310 222 300 210 q 340 242 321 235 q 382 250 358 250 q 464 239 432 250 q 525 204 496 228 l 525 324 q 472 353 508 340 q 392 374 436 367 q 307 382 347 382 q 160 357 224 382 q 63 287 97 332 q 28 181 28 242 q 58 76 28 119 q 142 9 88 32 q 268 -14 196 -14 q 388 9 335 -14 q 471 76 440 32 q 501 181 501 119 l 479 264 q 463 193 479 218 q 419 158 446 168 q 365 147 393 147 q 333 152 349 147 q 309 167 318 157 q 300 193 300 176 m 168 414 q 216 433 183 422 q 291 453 249 444 q 379 463 333 463 q 456 438 432 463 q 479 378 479 414 l 479 0 l 736 0 l 736 444 q 693 562 736 514 q 576 635 650 610 q 407 660 501 660 q 237 638 321 660 q 86 589 153 615 l 168 414 z "},"б":{"ha":897,"x_min":49,"x_max":849,"o":"m 464 439 q 516 425 492 439 q 555 385 540 411 q 569 319 569 358 q 554 254 569 281 q 515 215 539 228 q 463 201 490 201 q 410 215 435 201 q 369 254 385 228 q 354 319 354 281 l 49 403 q 101 172 49 265 q 248 33 154 79 q 463 -14 342 -14 q 671 29 585 -14 q 803 148 757 72 q 849 319 849 224 q 804 492 849 417 q 679 610 760 567 q 490 653 599 653 l 464 439 m 235 319 l 354 319 q 363 371 354 349 q 385 408 371 393 q 420 431 400 424 q 464 439 440 439 l 490 653 q 383 630 431 653 q 303 564 336 607 q 252 459 269 521 q 235 319 235 397 m 49 403 l 340 315 l 285 472 q 304 598 285 542 q 372 699 324 654 q 503 779 419 744 q 640 858 579 811 q 738 964 700 906 q 782 1083 775 1022 l 525 1083 q 462 1001 515 1033 q 314 925 408 968 q 149 804 207 876 q 70 633 92 732 q 49 403 49 533 z "},"в":{"ha":789,"x_min":104,"x_max":747,"o":"m 260 333 l 260 247 l 444 247 q 470 243 460 247 q 486 233 481 239 q 494 218 492 226 q 497 201 497 210 q 487 169 497 185 q 444 153 476 153 l 260 153 l 260 0 l 542 0 q 699 51 651 0 q 747 174 747 101 q 717 271 747 236 q 633 319 686 306 q 514 333 581 333 l 260 333 m 260 306 l 500 306 q 609 323 560 306 q 689 376 658 340 q 719 465 719 411 q 689 566 719 528 q 609 622 658 604 q 500 639 560 639 l 260 639 l 260 486 l 431 486 q 460 472 450 486 q 469 442 469 458 q 467 426 469 433 q 459 412 464 418 q 447 402 454 406 q 431 399 440 399 l 260 399 l 260 306 m 104 639 l 104 0 l 361 0 l 361 639 l 104 639 z "},"г":{"ha":521,"x_min":69,"x_max":521,"o":"m 69 639 l 69 0 l 333 0 l 333 424 l 521 424 l 521 639 l 69 639 z "},"ѓ":{"ha":521,"x_min":69,"x_max":546,"o":"m 69 639 l 69 0 l 333 0 l 333 424 l 521 424 l 521 639 l 69 639 m 546 946 l 351 1029 l 143 807 l 296 738 l 546 946 z "},"д":{"ha":1021,"x_min":56,"x_max":958,"o":"m 507 350 l 639 42 l 889 111 l 507 688 l 125 111 l 375 42 l 507 350 m 708 0 l 708 -125 l 958 -125 l 958 201 l 56 201 l 56 -125 l 313 -125 l 313 0 l 708 0 z "},"е":{"ha":850,"x_min":42,"x_max":808,"o":"m 189 264 l 796 264 q 799 305 799 286 q 799 332 799 324 q 758 505 799 433 q 635 615 717 576 q 428 653 553 653 q 231 619 311 653 q 106 526 151 586 q 47 388 61 467 q 43 354 44 371 q 42 319 42 338 q 85 148 42 224 q 218 29 129 72 q 442 -14 307 -14 q 609 11 539 -14 q 728 82 679 36 q 808 190 776 128 l 561 229 q 531 194 550 208 q 487 174 513 181 q 428 167 461 167 q 374 180 400 167 q 331 226 347 193 q 314 319 314 260 l 317 347 q 328 424 317 393 q 363 471 340 456 q 421 486 386 486 q 467 476 449 486 q 495 447 485 467 q 510 394 506 426 l 189 394 l 189 264 z "},"ѐ":{"ha":850,"x_min":42,"x_max":808,"o":"m 189 264 l 796 264 q 799 305 799 286 q 799 332 799 324 q 758 505 799 433 q 635 615 717 576 q 428 653 553 653 q 231 619 311 653 q 106 526 151 586 q 47 388 61 467 q 43 354 44 371 q 42 319 42 338 q 85 148 42 224 q 218 29 129 72 q 442 -14 307 -14 q 609 11 539 -14 q 728 82 679 36 q 808 190 776 128 l 561 229 q 531 194 550 208 q 487 174 513 181 q 428 167 461 167 q 374 180 400 167 q 331 226 347 193 q 314 319 314 260 l 317 347 q 328 424 317 393 q 363 471 340 456 q 421 486 386 486 q 467 476 449 486 q 495 447 485 467 q 510 394 506 426 l 189 394 l 189 264 m 178 946 l 428 738 l 581 807 l 372 1029 l 178 946 z "},"ё":{"ha":850,"x_min":42,"x_max":808,"o":"m 189 264 l 796 264 q 799 305 799 286 q 799 332 799 324 q 758 505 799 433 q 635 615 717 576 q 428 653 553 653 q 231 619 311 653 q 106 526 151 586 q 47 388 61 467 q 43 354 44 371 q 42 319 42 338 q 85 148 42 224 q 218 29 129 72 q 442 -14 307 -14 q 609 11 539 -14 q 728 82 679 36 q 808 190 776 128 l 561 229 q 531 194 550 208 q 487 174 513 181 q 428 167 461 167 q 374 180 400 167 q 331 226 347 193 q 314 319 314 260 l 317 347 q 328 424 317 393 q 363 471 340 456 q 421 486 386 486 q 467 476 449 486 q 495 447 485 467 q 510 394 506 426 l 189 394 l 189 264 m 465 874 q 509 775 465 813 q 615 738 553 738 q 722 775 678 738 q 765 874 765 813 q 722 972 765 935 q 615 1010 678 1010 q 509 972 553 1010 q 465 874 465 935 m 90 874 q 134 775 90 813 q 240 738 178 738 q 347 775 303 738 q 390 874 390 813 q 347 972 390 935 q 240 1010 303 1010 q 134 972 178 1010 q 90 874 90 935 z "},"ж":{"ha":1396,"x_min":0,"x_max":1396,"o":"m 1063 639 l 785 375 l 1090 0 l 1396 0 l 1104 375 l 1368 639 l 1063 639 m 826 639 l 569 639 l 569 0 l 826 0 l 826 639 m 333 639 l 28 639 l 292 375 l 0 0 l 306 0 l 611 375 l 333 639 z "},"з":{"ha":800,"x_min":83,"x_max":738,"o":"m 407 319 q 639 351 568 310 q 710 463 710 392 q 672 561 710 518 q 568 628 633 604 q 418 653 503 653 q 262 624 328 653 q 160 541 196 594 q 125 411 125 488 l 363 411 q 372 446 364 433 q 394 464 381 458 q 421 469 407 469 q 455 457 440 469 q 469 425 469 444 q 454 391 469 404 q 407 378 439 378 l 407 319 m 415 -14 q 583 11 511 -14 q 697 81 656 36 q 738 186 738 126 q 653 321 738 269 q 407 361 568 372 l 407 275 q 453 269 435 275 q 480 251 471 263 q 489 221 489 239 q 479 191 489 203 q 452 173 469 179 q 414 167 435 167 q 369 179 393 167 q 335 229 346 192 l 83 229 q 179 51 94 115 q 415 -14 264 -14 z "},"и":{"ha":861,"x_min":69,"x_max":792,"o":"m 785 417 l 792 688 l 76 222 l 69 -49 l 785 417 m 326 639 l 69 639 l 69 -49 l 326 174 l 326 639 m 792 688 l 535 465 l 535 0 l 792 0 l 792 688 z "},"й":{"ha":861,"x_min":69,"x_max":792,"o":"m 785 417 l 792 688 l 76 222 l 69 -49 l 785 417 m 326 639 l 69 639 l 69 -49 l 326 174 l 326 639 m 792 688 l 535 465 l 535 0 l 792 0 l 792 688 m 211 965 q 239 857 211 904 q 319 783 267 810 q 444 757 372 757 q 570 783 518 757 q 650 857 622 810 q 678 965 678 904 l 517 965 q 504 922 517 938 q 475 901 492 907 q 444 896 458 896 q 414 901 431 896 q 385 922 397 907 q 372 965 372 938 l 211 965 z "},"ѝ":{"ha":861,"x_min":69,"x_max":792,"o":"m 785 417 l 792 688 l 76 222 l 69 -49 l 785 417 m 326 639 l 69 639 l 69 -49 l 326 174 l 326 639 m 792 688 l 535 465 l 535 0 l 792 0 l 792 688 m 194 979 l 444 771 l 597 840 l 389 1063 l 194 979 z "},"к":{"ha":917,"x_min":69,"x_max":903,"o":"m 69 639 l 69 0 l 326 0 l 326 639 l 69 639 m 557 639 l 286 375 l 590 0 l 903 0 l 604 375 l 875 639 l 557 639 z "},"ќ":{"ha":611,"x_min":69,"x_max":903,"o":"m 69 639 l 69 0 l 326 0 l 326 639 l 69 639 m 557 639 l 286 375 l 590 0 l 903 0 l 604 375 l 875 639 l 557 639 m 722 946 l 528 1029 l 319 807 l 472 738 l 722 946 z "},"л":{"ha":921,"x_min":14,"x_max":810,"o":"m 810 639 l 115 639 l 115 306 q 85 249 115 258 q 14 240 56 240 l 14 0 q 233 24 156 0 q 342 98 311 49 q 372 222 372 147 l 372 396 l 553 396 l 553 0 l 810 0 l 810 639 z "},"м":{"ha":954,"x_min":7,"x_max":947,"o":"m 683 0 l 947 0 l 739 688 l 607 396 l 683 0 m 433 235 l 475 -43 l 753 368 l 739 688 l 433 235 m 475 -43 l 517 235 l 215 688 l 201 368 l 475 -43 m 7 0 l 271 0 l 347 396 l 215 688 l 7 0 z "},"н":{"ha":896,"x_min":69,"x_max":826,"o":"m 135 243 l 676 243 l 676 431 l 135 431 l 135 243 m 569 639 l 569 0 l 826 0 l 826 639 l 569 639 m 69 639 l 69 0 l 326 0 l 326 639 l 69 639 z "},"о":{"ha":856,"x_min":42,"x_max":814,"o":"m 42 319 q 92 142 42 217 q 229 26 142 67 q 428 -14 317 -14 q 626 26 539 -14 q 764 142 714 67 q 814 319 814 217 q 764 499 814 424 q 626 614 714 574 q 428 654 539 654 q 229 614 317 654 q 92 499 142 574 q 42 319 42 424 m 321 319 q 336 385 321 358 q 376 425 351 411 q 428 439 400 439 q 480 425 456 439 q 519 385 504 411 q 535 319 535 358 q 519 254 535 281 q 480 215 504 228 q 428 201 456 201 q 376 215 400 201 q 336 254 351 228 q 321 319 321 281 z "},"п":{"ha":840,"x_min":69,"x_max":771,"o":"m 771 639 l 69 639 l 69 0 l 326 0 l 326 410 l 514 410 l 514 0 l 771 0 l 771 639 z "},"р":{"ha":896,"x_min":69,"x_max":854,"o":"m 340 -306 l 340 639 l 69 639 l 69 -306 l 340 -306 m 854 319 q 810 514 854 438 q 699 628 767 590 q 558 667 632 667 q 412 623 472 667 q 321 501 351 579 q 290 319 290 424 q 321 138 290 217 q 412 16 351 60 q 558 -28 472 -28 q 699 10 632 -28 q 810 126 767 49 q 854 319 854 203 m 568 319 q 553 260 568 285 q 512 222 538 235 q 454 208 486 208 q 400 220 426 208 q 357 256 374 232 q 340 319 340 281 q 357 383 340 358 q 400 419 374 407 q 454 431 426 431 q 512 417 486 431 q 553 380 538 404 q 568 319 568 356 z "},"с":{"ha":699,"x_min":42,"x_max":629,"o":"m 321 319 q 340 384 321 356 q 392 430 360 413 q 463 447 425 447 q 517 440 486 447 q 578 415 547 432 q 629 367 608 397 l 629 613 q 553 640 596 628 q 435 653 511 653 q 232 613 321 653 q 92 498 143 572 q 42 319 42 424 q 92 142 42 217 q 232 26 143 67 q 435 -14 321 -14 q 553 -1 511 -14 q 629 29 596 11 l 629 274 q 581 226 608 244 q 523 200 553 208 q 463 192 493 192 q 392 206 425 192 q 340 249 360 221 q 321 319 321 278 z "},"т":{"ha":507,"x_min":7,"x_max":500,"o":"m 7 639 l 7 424 l 500 424 l 500 639 l 7 639 m 125 611 l 125 0 l 382 0 l 382 611 l 125 611 z "},"у":{"ha":792,"x_min":-21,"x_max":813,"o":"m 813 639 l 542 639 l 333 118 l 479 118 l 271 639 l -21 639 l 275 28 l 132 -306 l 396 -306 l 813 639 z "},"ў":{"ha":611,"x_min":-21,"x_max":813,"o":"m 813 639 l 542 639 l 333 118 l 479 118 l 271 639 l -21 639 l 275 28 l 132 -306 l 396 -306 l 813 639 m 163 946 q 190 838 163 885 q 271 764 218 790 q 396 738 324 738 q 522 764 469 738 q 601 838 574 790 q 629 946 629 885 l 468 946 q 456 903 468 918 q 426 882 443 888 q 396 876 410 876 q 365 882 382 876 q 336 903 349 888 q 324 946 324 918 l 163 946 z "},"ф":{"ha":994,"x_min":42,"x_max":953,"o":"m 372 778 l 372 -139 l 622 -139 l 622 778 l 372 778 m 42 319 q 95 142 42 217 q 250 26 149 67 q 497 -14 351 -14 q 745 26 643 -14 q 900 142 847 67 q 953 319 953 217 q 900 499 953 424 q 745 614 847 574 q 497 654 643 654 q 250 614 351 654 q 95 499 149 574 q 42 319 42 424 m 279 319 q 299 385 279 358 q 366 425 318 411 q 497 439 414 439 q 628 425 581 439 q 695 385 675 411 q 715 319 715 358 q 695 254 715 281 q 628 215 675 228 q 497 201 581 201 q 366 215 414 201 q 299 254 318 228 q 279 319 279 281 z "},"х":{"ha":833,"x_min":0,"x_max":833,"o":"m 521 639 l 422 504 l 326 639 l 14 639 l 281 328 l 0 0 l 313 0 l 422 151 l 535 0 l 833 0 l 558 328 l 819 639 l 521 639 z "},"ц":{"ha":910,"x_min":69,"x_max":896,"o":"m 785 215 l 785 639 l 514 639 l 514 215 l 340 215 l 340 639 l 69 639 l 69 0 l 639 0 l 639 -153 l 896 -153 l 896 215 l 785 215 z "},"ч":{"ha":813,"x_min":69,"x_max":729,"o":"m 319 139 l 538 139 l 538 354 l 417 354 l 319 139 m 458 639 l 458 0 l 729 0 l 729 639 l 458 639 m 340 639 l 69 639 l 69 456 q 92 291 69 363 q 169 179 114 219 q 319 139 224 139 l 417 354 q 375 361 392 354 q 349 384 358 368 q 340 428 340 400 l 340 639 z "},"ш":{"ha":1210,"x_min":69,"x_max":1140,"o":"m 733 215 l 733 639 l 476 639 l 476 215 l 326 215 l 326 639 l 69 639 l 69 0 l 1140 0 l 1140 639 l 883 639 l 883 215 l 733 215 z "},"щ":{"ha":1264,"x_min":69,"x_max":1250,"o":"m 733 215 l 733 639 l 476 639 l 476 215 l 326 215 l 326 639 l 69 639 l 69 0 l 993 0 l 993 -153 l 1250 -153 l 1250 215 l 1139 215 l 1139 639 l 882 639 l 882 215 l 733 215 z "},"ъ":{"ha":879,"x_min":7,"x_max":817,"o":"m 385 279 l 524 279 q 555 268 543 279 q 567 240 567 257 q 561 220 567 229 q 546 206 556 211 q 524 201 536 201 l 385 201 l 385 0 l 583 0 q 703 31 650 0 q 786 117 756 63 q 817 240 817 172 q 749 391 817 343 q 583 439 682 439 l 385 439 l 385 279 m 181 424 l 181 0 l 424 0 l 424 639 l 7 639 l 7 424 l 181 424 z "},"ы":{"ha":1160,"x_min":69,"x_max":1090,"o":"m 819 639 l 819 0 l 1090 0 l 1090 639 l 819 639 m 69 639 l 69 0 l 340 0 l 340 639 l 69 639 m 294 279 l 433 279 q 465 268 453 279 q 476 240 476 257 q 471 220 476 229 q 456 206 465 211 q 433 201 446 201 l 294 201 l 294 0 l 493 0 q 613 31 560 0 q 696 117 665 63 q 726 240 726 172 q 659 391 726 343 q 493 439 592 439 l 294 439 l 294 279 z "},"ь":{"ha":810,"x_min":83,"x_max":740,"o":"m 83 639 l 83 0 l 354 0 l 354 639 l 83 639 m 308 279 l 447 279 q 478 268 467 279 q 490 240 490 257 q 485 220 490 229 q 469 206 479 211 q 447 201 460 201 l 308 201 l 308 0 l 507 0 q 626 31 574 0 q 710 117 679 63 q 740 240 740 172 q 673 391 740 343 q 507 439 606 439 l 308 439 l 308 279 z "},"э":{"ha":699,"x_min":69,"x_max":657,"o":"m 135 399 l 135 240 l 538 240 l 538 399 l 135 399 m 378 319 q 358 219 378 257 q 307 166 339 182 q 236 150 275 150 q 176 158 206 150 q 119 185 146 167 q 69 232 92 203 l 69 29 q 145 -1 103 11 q 264 -14 188 -14 q 467 26 379 -14 q 606 142 556 67 q 657 319 657 217 q 606 498 657 424 q 467 613 556 572 q 264 653 379 653 q 145 640 188 653 q 69 613 103 628 l 69 408 q 122 456 92 439 q 182 481 151 474 q 236 489 213 489 q 307 470 275 489 q 358 414 339 451 q 378 319 378 376 z "},"ю":{"ha":1203,"x_min":69,"x_max":1161,"o":"m 135 243 l 593 243 l 593 431 l 135 431 l 135 243 m 69 639 l 69 0 l 326 0 l 326 639 l 69 639 m 389 319 q 439 142 389 217 q 576 26 489 67 q 775 -14 664 -14 q 974 26 886 -14 q 1111 142 1061 67 q 1161 319 1161 217 q 1111 499 1161 424 q 974 614 1061 574 q 775 654 886 654 q 576 614 664 654 q 439 499 489 574 q 389 319 389 424 m 668 319 q 683 385 668 358 q 723 425 699 411 q 775 439 747 439 q 827 425 803 439 q 867 385 851 411 q 882 319 882 358 q 867 254 882 281 q 827 215 851 228 q 775 201 803 201 q 723 215 747 201 q 683 254 699 228 q 668 319 668 281 z "},"я":{"ha":810,"x_min":46,"x_max":761,"o":"m 321 0 l 460 264 l 213 264 l 46 0 l 321 0 m 761 0 l 761 639 l 490 639 l 490 0 l 761 0 m 578 381 l 428 381 q 395 382 408 381 q 375 389 382 383 q 368 406 368 394 q 375 422 368 417 q 395 429 382 428 q 428 431 408 431 l 578 431 l 578 639 l 379 639 q 250 619 314 639 q 145 554 186 599 q 104 433 104 510 q 145 310 104 358 q 250 238 186 261 q 379 214 314 214 l 578 214 l 578 381 z "},"ª":{"ha":403,"x_min":22,"x_max":375,"o":"m 158 735 q 169 756 158 747 q 199 764 181 764 q 240 758 224 764 q 269 740 256 751 l 269 801 q 224 822 257 814 q 161 829 192 829 q 60 802 99 829 q 22 729 22 775 q 55 658 22 683 q 142 632 88 632 q 225 658 192 632 q 258 729 258 683 l 247 771 q 229 724 247 736 q 190 713 211 713 q 168 717 178 713 q 158 735 158 722 m 92 850 q 133 866 103 857 q 197 875 163 875 q 235 861 224 875 q 247 828 247 847 l 247 639 l 375 639 l 375 872 q 328 952 375 925 q 211 979 282 979 q 126 968 168 979 q 50 944 83 957 l 92 850 z "},"º":{"ha":386,"x_min":25,"x_max":411,"o":"m 25 806 q 79 684 25 729 q 217 639 133 639 q 356 684 300 639 q 411 806 411 729 q 356 928 411 883 q 217 972 300 972 q 79 928 133 972 q 25 806 25 883 m 164 806 q 180 850 164 835 q 217 865 196 865 q 254 850 238 865 q 271 806 271 835 q 254 762 271 776 q 217 747 238 747 q 180 762 196 747 q 164 806 164 776 z "},"̀":{"ha":0,"x_min":0,"x_max":403,"o":"m 250 736 l 403 806 l 194 1028 l 0 944 l 250 736 z "},"́":{"ha":0,"x_min":21,"x_max":424,"o":"m 174 743 l 424 951 l 229 1035 l 21 813 l 174 743 z "},"̂":{"ha":0,"x_min":0,"x_max":510,"o":"m 114 765 l 281 899 l 228 899 l 396 765 l 510 911 l 256 1078 l 0 911 l 114 765 z "},"̃":{"ha":0,"x_min":0,"x_max":597,"o":"m 115 789 q 126 824 115 808 q 153 850 136 840 q 192 860 171 860 q 249 840 224 860 q 303 800 275 819 q 374 781 332 781 q 463 802 415 781 q 548 854 510 824 q 597 910 586 885 l 478 1039 q 428 983 454 1006 q 365 961 401 961 q 322 973 339 961 q 289 999 304 985 q 251 1026 274 1014 q 193 1038 229 1038 q 105 1016 146 1038 q 36 963 64 994 q 0 896 8 931 l 115 789 z "},"̄":{"ha":0,"x_min":0,"x_max":535,"o":"m 0 757 l 535 757 l 535 938 l 0 938 l 0 757 z "},"̆":{"ha":0,"x_min":0,"x_max":467,"o":"m 233 764 q 357 790 304 764 q 438 862 410 815 q 467 972 467 908 l 268 972 q 264 936 268 951 q 252 912 260 921 q 233 903 244 903 q 215 912 224 903 q 203 936 207 921 q 199 972 199 951 l 0 972 q 28 862 0 908 q 110 790 57 815 q 233 764 163 764 z "},"̇":{"ha":0,"x_min":0,"x_max":300,"o":"m 150 707 q 258 746 215 707 q 300 843 300 785 q 258 940 300 901 q 150 979 215 979 q 43 940 86 979 q 0 843 0 901 q 43 746 0 785 q 150 707 86 707 z "},"̈":{"ha":0,"x_min":0,"x_max":675,"o":"m 150 718 q 259 756 218 718 q 300 854 300 793 q 259 953 300 915 q 150 990 218 990 q 41 953 82 990 q 0 854 0 915 q 41 756 0 793 q 150 718 82 718 m 525 718 q 634 756 593 718 q 675 854 675 793 q 634 953 675 915 q 525 990 593 990 q 416 953 457 990 q 375 854 375 915 q 416 756 375 793 q 525 718 457 718 z "},"̊":{"ha":0,"x_min":0,"x_max":386,"o":"m 192 722 q 292 745 249 722 q 361 807 336 768 q 386 896 386 846 q 361 985 386 946 q 292 1047 336 1025 q 192 1069 249 1069 q 53 1021 107 1069 q 0 896 0 972 q 53 771 0 819 q 192 722 107 722 m 192 835 q 149 851 165 835 q 132 896 132 868 q 149 941 132 924 q 192 958 165 958 q 236 941 219 958 q 253 896 253 924 q 236 852 253 869 q 192 835 219 835 z "},"̋":{"ha":0,"x_min":0,"x_max":650,"o":"m 163 736 l 372 983 l 167 1033 l 0 778 l 163 736 m 440 736 l 650 983 l 444 1033 l 278 778 l 440 736 z "},"̌":{"ha":0,"x_min":0,"x_max":510,"o":"m 256 765 l 510 933 l 396 1078 l 228 944 l 281 944 l 114 1078 l 0 933 l 256 765 z "},"̒":{"ha":0,"x_min":0,"x_max":393,"o":"m 271 689 l 393 1049 l 188 1083 l 0 736 l 271 689 z "},"̦":{"ha":0,"x_min":0,"x_max":322,"o":"m 149 -275 l 322 -94 l 128 -31 l 0 -228 l 149 -275 z "},"̧":{"ha":0,"x_min":0,"x_max":375,"o":"m 206 -296 q 327 -252 279 -296 q 375 -142 375 -208 q 346 -60 375 -93 q 272 -28 317 -28 q 188 -33 231 -28 q 114 -39 146 -39 l 213 -67 l 286 101 l 147 108 l 61 -104 q 114 -102 89 -101 q 157 -103 139 -103 q 203 -110 189 -103 q 217 -136 217 -118 q 204 -169 217 -157 q 168 -181 192 -181 q 103 -173 139 -181 q 44 -156 68 -165 l 0 -256 q 97 -285 38 -274 q 206 -296 156 -296 z "},"̨":{"ha":0,"x_min":0,"x_max":307,"o":"m 157 -306 q 257 -288 222 -306 q 307 -250 292 -271 l 261 -139 q 228 -160 247 -153 q 192 -167 208 -167 q 162 -155 171 -167 q 153 -125 153 -143 q 163 -85 153 -106 q 196 -44 174 -65 q 254 0 218 -22 l 197 35 q 103 -19 149 10 q 29 -83 58 -47 q 0 -167 0 -118 q 24 -245 0 -214 q 83 -291 47 -276 q 157 -306 119 -306 z "},"０":{"ha":917,"x_min":26,"x_max":888,"o":"m 318 486 q 328 591 318 544 q 358 670 339 638 q 401 719 376 703 q 457 736 426 736 q 513 719 488 736 q 556 670 538 703 q 585 591 575 638 q 596 486 596 544 q 585 381 596 428 q 556 302 575 335 q 513 253 538 269 q 457 236 488 236 q 401 253 426 236 q 358 302 376 269 q 328 381 339 335 q 318 486 318 428 m 26 486 q 81 207 26 319 q 232 37 135 94 q 457 -21 329 -21 q 688 37 592 -21 q 836 207 785 94 q 888 486 888 319 q 836 765 888 653 q 688 935 785 878 q 457 993 592 993 q 232 935 329 993 q 81 765 135 878 q 26 486 26 653 z "},"１":{"ha":917,"x_min":146,"x_max":694,"o":"m 146 638 l 403 694 l 403 0 l 694 0 l 694 993 l 146 892 l 146 638 z "},"２":{"ha":917,"x_min":7,"x_max":915,"o":"m 7 0 l 915 0 l 915 278 l 558 278 l 733 413 q 840 526 800 464 q 881 668 881 588 q 853 789 881 731 q 774 894 826 847 q 647 967 722 940 q 475 994 571 994 q 238 938 333 994 q 96 792 143 882 q 49 597 49 701 l 347 597 q 362 668 347 636 q 403 719 376 700 q 464 738 429 738 q 509 730 490 738 q 540 710 528 722 q 558 681 553 697 q 564 646 564 664 q 547 575 564 608 q 499 506 531 542 q 425 424 468 471 l 7 0 z "},"３":{"ha":917,"x_min":38,"x_max":879,"o":"m 382 465 q 617 490 511 465 q 788 569 724 514 q 851 717 851 624 q 807 858 851 796 q 676 957 763 921 q 465 993 590 993 q 260 949 347 993 q 126 829 174 904 q 79 661 79 754 l 358 661 q 388 731 358 704 q 464 757 417 757 q 513 749 494 757 q 542 728 532 742 q 551 696 551 714 q 539 656 551 675 q 503 621 526 636 q 449 597 481 606 q 382 589 418 589 l 382 465 m 451 -28 q 685 11 590 -28 q 830 117 781 50 q 879 271 879 185 q 844 399 879 346 q 742 488 808 453 q 585 538 676 522 q 382 554 494 554 l 382 410 q 477 401 439 410 q 538 376 515 392 q 569 340 560 360 q 579 299 579 319 q 564 244 579 264 q 523 216 549 224 q 465 208 497 208 q 405 221 435 208 q 356 263 375 233 q 338 340 338 292 l 38 340 q 65 205 38 271 q 146 86 93 139 q 276 3 199 33 q 451 -28 353 -28 z "},"４":{"ha":917,"x_min":11,"x_max":897,"o":"m 11 160 l 897 160 l 897 417 l 650 417 l 626 368 l 261 368 l 11 160 m 289 271 l 494 585 l 494 225 l 453 210 l 453 0 l 772 0 l 772 972 l 522 972 l 11 160 l 289 271 z "},"５":{"ha":917,"x_min":31,"x_max":869,"o":"m 869 306 q 825 479 869 410 q 713 583 781 549 q 571 618 644 618 q 421 599 489 618 q 294 518 353 581 l 74 385 q 178 414 124 404 q 281 427 232 424 q 363 431 331 431 q 440 424 401 431 q 506 401 479 418 q 532 347 532 383 q 511 292 532 313 q 453 265 490 272 q 363 257 415 257 q 299 263 338 257 q 213 285 260 269 q 117 328 167 300 l 31 58 q 145 19 83 38 q 282 -10 207 1 q 446 -21 357 -21 q 591 -3 517 -21 q 728 54 665 15 q 831 156 792 93 q 869 306 869 218 m 435 708 l 839 708 l 839 972 l 214 972 l 74 385 l 350 496 l 435 708 z "},"６":{"ha":917,"x_min":22,"x_max":892,"o":"m 326 354 q 344 422 326 393 q 391 466 361 450 q 457 482 421 482 q 524 466 494 482 q 570 422 553 450 q 588 354 588 393 q 570 288 588 315 q 524 244 553 260 q 457 229 494 229 q 391 244 421 229 q 344 288 361 260 q 326 354 326 315 m 418 965 l 167 667 q 65 520 107 596 q 22 354 22 444 q 82 139 22 224 q 240 13 142 54 q 457 -28 339 -28 q 674 13 575 -28 q 832 139 772 54 q 892 354 892 224 q 863 491 892 432 q 789 590 835 550 q 689 651 743 631 q 583 671 635 671 q 493 659 528 671 q 413 607 458 647 l 485 644 l 806 965 l 418 965 z "},"７":{"ha":917,"x_min":38,"x_max":899,"o":"m 38 688 l 453 688 l 94 0 l 426 0 l 899 972 l 38 972 l 38 688 z "},"８":{"ha":917,"x_min":86,"x_max":886,"o":"m 121 738 q 155 613 121 665 q 244 528 189 561 q 363 481 299 496 q 486 465 426 465 q 610 481 546 465 q 728 528 674 496 q 817 613 783 561 q 851 738 851 665 q 801 885 851 828 q 667 972 750 943 q 486 1000 583 1000 q 306 972 389 1000 q 172 885 222 943 q 121 738 121 828 m 407 710 q 417 753 407 735 q 444 782 426 772 q 486 792 463 792 q 528 782 511 792 q 556 753 546 772 q 565 710 565 735 q 556 666 565 685 q 528 636 546 647 q 486 625 511 625 q 444 636 463 625 q 417 666 426 647 q 407 710 407 685 m 86 264 q 119 137 86 192 q 210 46 153 82 q 340 -9 268 10 q 486 -28 411 -28 q 633 -9 561 -28 q 762 46 704 10 q 853 137 819 82 q 886 264 886 192 q 847 403 886 347 q 747 492 808 458 q 615 541 685 526 q 486 556 546 556 q 357 541 426 556 q 226 492 288 526 q 125 403 164 458 q 86 264 86 347 m 393 313 q 405 358 393 338 q 438 391 417 379 q 486 403 458 403 q 535 391 514 403 q 567 358 556 379 q 579 313 579 338 q 567 259 579 281 q 535 226 556 238 q 486 215 514 215 q 438 226 458 215 q 405 259 417 238 q 393 313 393 281 z "},"９":{"ha":917,"x_min":22,"x_max":892,"o":"m 588 618 q 570 551 588 579 q 524 506 553 522 q 457 490 494 490 q 391 506 421 490 q 344 551 361 522 q 326 618 326 579 q 344 685 326 657 q 391 728 361 713 q 457 743 421 743 q 524 728 494 743 q 570 685 553 713 q 588 618 588 657 m 496 7 l 747 306 q 849 452 807 376 q 892 618 892 528 q 832 834 892 750 q 674 959 772 918 q 457 1000 575 1000 q 240 959 339 1000 q 82 834 142 918 q 22 618 22 750 q 51 481 22 540 q 125 382 79 422 q 225 322 171 342 q 331 301 279 301 q 421 314 386 301 q 501 365 456 326 l 429 328 l 108 7 l 496 7 z "},"¹":{"ha":681,"x_min":169,"x_max":499,"o":"m 169 763 l 324 797 l 324 381 l 499 381 l 499 976 l 169 915 l 169 763 z "},"²":{"ha":619,"x_min":35,"x_max":579,"o":"m 35 392 l 579 392 l 579 558 l 365 558 l 471 639 q 535 708 511 669 q 558 793 558 746 q 530 888 558 843 q 447 960 501 932 q 315 989 393 989 q 174 955 231 989 q 88 867 117 921 q 60 750 60 813 l 239 750 q 258 810 239 786 q 308 835 278 835 q 344 827 331 835 q 363 807 357 819 q 369 779 369 794 q 347 716 369 744 q 286 646 325 688 l 35 392 z "},"³":{"ha":551,"x_min":18,"x_max":524,"o":"m 225 668 q 367 683 303 668 q 469 731 431 697 q 507 819 507 764 q 447 938 507 890 q 275 985 388 985 q 106 927 169 985 q 43 786 43 869 l 211 786 q 228 828 211 813 q 274 843 246 843 q 314 833 301 843 q 326 807 326 824 q 313 775 326 790 q 277 751 300 760 q 225 742 254 742 l 225 668 m 267 372 q 458 424 392 372 q 524 551 524 475 q 486 649 524 611 q 382 703 449 686 q 225 721 315 721 l 225 635 q 297 625 271 635 q 333 601 322 615 q 343 568 343 586 q 323 525 343 536 q 275 514 303 514 q 223 531 247 514 q 199 593 199 549 l 18 593 q 47 487 18 538 q 132 404 76 436 q 267 372 188 372 z "},"¼":{"ha":1200,"x_min":28,"x_max":1163,"o":"m 886 972 l 164 0 l 324 0 l 1046 972 l 886 972 m 28 763 l 182 797 l 182 381 l 357 381 l 357 976 l 28 915 l 28 763 m 572 96 l 1163 96 l 1163 250 l 997 250 l 983 221 l 722 221 l 572 96 m 756 163 l 904 351 l 904 135 l 879 126 l 879 0 l 1071 0 l 1071 583 l 921 583 l 572 96 l 756 163 z "},"½":{"ha":1304,"x_min":28,"x_max":1257,"o":"m 886 972 l 164 0 l 324 0 l 1046 972 l 886 972 m 28 763 l 182 797 l 182 381 l 357 381 l 357 976 l 28 915 l 28 763 m 713 3 l 1257 3 l 1257 169 l 1043 169 l 1149 250 q 1213 319 1189 281 q 1236 404 1236 357 q 1208 499 1236 454 q 1125 572 1179 543 q 993 600 1071 600 q 851 566 908 600 q 766 478 794 532 q 738 361 738 424 l 917 361 q 936 422 917 397 q 986 446 956 446 q 1022 438 1008 446 q 1041 418 1035 431 q 1047 390 1047 406 q 1025 327 1047 356 q 964 257 1003 299 l 713 3 z "},"¾":{"ha":1271,"x_min":32,"x_max":1235,"o":"m 972 972 l 250 0 l 410 0 l 1132 972 l 972 972 m 239 668 q 381 683 317 668 q 483 731 444 697 q 521 819 521 764 q 461 938 521 890 q 289 985 401 985 q 120 927 183 985 q 57 786 57 869 l 225 786 q 242 828 225 813 q 288 843 260 843 q 328 833 315 843 q 340 807 340 824 q 327 775 340 790 q 291 751 314 760 q 239 742 268 742 l 239 668 m 281 372 q 472 424 406 372 q 538 551 538 475 q 500 649 538 611 q 396 703 463 686 q 239 721 329 721 l 239 635 q 310 625 285 635 q 347 601 336 615 q 357 568 357 586 q 337 525 357 536 q 289 514 317 514 q 237 531 261 514 q 213 593 213 549 l 32 593 q 61 487 32 538 q 146 404 90 436 q 281 372 201 372 m 644 96 l 1235 96 l 1235 250 l 1069 250 l 1056 221 l 794 221 l 644 96 m 828 163 l 976 351 l 976 135 l 951 126 l 951 0 l 1143 0 l 1143 583 l 993 583 l 644 96 l 828 163 z "},"⁰":{"ha":558,"x_min":21,"x_max":538,"o":"m 196 681 q 206 761 196 728 q 236 813 217 794 q 279 831 256 831 q 323 813 304 831 q 352 761 342 794 q 363 681 363 728 q 352 600 363 633 q 323 549 342 567 q 279 531 304 531 q 236 549 256 531 q 206 600 217 567 q 196 681 196 633 m 21 681 q 53 514 21 582 q 144 411 86 446 q 279 376 203 376 q 417 411 360 376 q 506 514 475 446 q 538 681 538 582 q 506 848 538 781 q 417 950 475 915 q 279 985 360 985 q 144 950 203 985 q 53 848 86 915 q 21 681 21 781 z "},"⁴":{"ha":626,"x_min":10,"x_max":600,"o":"m 10 485 l 600 485 l 600 639 l 435 639 l 421 610 l 160 610 l 10 485 m 193 551 l 342 740 l 342 524 l 317 515 l 317 389 l 508 389 l 508 972 l 358 972 l 10 485 l 193 551 z "},"⁵":{"ha":564,"x_min":28,"x_max":531,"o":"m 531 569 q 504 674 531 632 q 437 736 478 715 q 351 757 396 757 q 263 746 303 757 q 186 697 222 735 l 54 617 q 148 639 99 633 q 226 644 197 644 q 295 635 261 644 q 329 594 329 626 q 301 551 329 563 q 226 540 274 540 q 164 549 204 540 q 79 583 124 558 l 28 421 q 136 388 76 403 q 276 374 196 374 q 392 393 333 374 q 490 456 450 413 q 531 569 531 500 m 271 811 l 513 811 l 513 969 l 138 969 l 54 617 l 219 683 l 271 811 z "},"⁶":{"ha":564,"x_min":19,"x_max":542,"o":"m 201 599 q 212 640 201 622 q 240 666 222 657 q 281 675 258 675 q 320 666 303 675 q 348 640 338 657 q 358 599 358 622 q 336 544 358 564 q 281 524 314 524 q 224 544 247 524 q 201 599 201 564 m 257 965 l 106 786 q 45 698 71 743 q 19 599 19 653 q 56 469 19 521 q 151 394 92 418 q 281 369 210 369 q 411 394 351 369 q 506 469 471 418 q 542 599 542 521 q 513 703 542 661 q 440 767 483 746 q 356 789 397 789 q 302 781 322 789 q 254 750 282 774 l 297 772 l 489 965 l 257 965 z "},"⁷":{"ha":547,"x_min":26,"x_max":543,"o":"m 26 801 l 275 801 l 61 389 l 260 389 l 543 972 l 26 972 l 26 801 z "},"⁸":{"ha":536,"x_min":25,"x_max":506,"o":"m 46 832 q 81 738 46 775 q 167 685 115 701 q 265 668 218 668 q 365 685 314 668 q 450 738 415 701 q 485 832 485 775 q 454 921 485 886 q 374 972 424 956 q 265 989 324 989 q 157 972 207 989 q 76 921 107 956 q 46 832 46 886 m 218 815 q 231 851 218 839 q 265 864 243 864 q 300 851 288 864 q 313 815 313 839 q 307 788 313 800 q 291 770 301 776 q 265 764 281 764 q 240 770 251 764 q 224 788 229 776 q 218 815 218 800 m 25 547 q 60 451 25 490 q 150 392 94 411 q 265 372 206 372 q 381 392 326 372 q 471 451 436 411 q 506 547 506 490 q 482 631 506 597 q 422 684 458 664 q 343 713 385 704 q 265 722 301 722 q 188 713 229 722 q 109 684 146 704 q 49 631 72 664 q 25 547 25 597 m 210 576 q 217 604 210 592 q 236 624 224 617 q 265 631 249 631 q 294 624 282 631 q 314 604 307 617 q 321 576 321 592 q 306 533 321 547 q 265 518 290 518 q 225 533 240 518 q 210 576 210 547 z "},"⁹":{"ha":557,"x_min":17,"x_max":539,"o":"m 356 763 q 345 722 356 739 q 317 695 335 704 q 278 686 300 686 q 238 695 256 686 q 209 722 219 704 q 199 763 199 739 q 222 818 199 799 q 278 838 244 838 q 333 818 311 838 q 356 763 356 799 m 301 396 l 451 575 q 513 663 488 618 q 539 763 539 708 q 503 892 539 842 q 408 967 468 943 q 278 992 349 992 q 148 967 207 992 q 53 892 89 943 q 17 763 17 842 q 46 658 17 701 q 118 594 75 615 q 201 572 161 572 q 256 580 235 572 q 304 611 278 588 l 261 589 l 68 396 l 301 396 z "},"₀":{"ha":558,"x_min":21,"x_max":538,"o":"m 196 292 q 206 372 196 339 q 236 424 217 406 q 279 442 256 442 q 323 424 304 442 q 352 372 342 406 q 363 292 363 339 q 352 211 363 244 q 323 160 342 178 q 279 142 304 142 q 236 160 256 142 q 206 211 217 178 q 196 292 196 244 m 21 292 q 53 125 21 193 q 144 22 86 57 q 279 -12 203 -12 q 417 22 360 -12 q 506 125 475 57 q 538 292 538 193 q 506 459 538 392 q 417 561 475 526 q 279 596 360 596 q 144 561 203 596 q 53 459 86 526 q 21 292 21 392 z "},"₁":{"ha":540,"x_min":125,"x_max":454,"o":"m 125 383 l 279 418 l 279 1 l 454 1 l 454 597 l 125 536 l 125 383 z "},"₂":{"ha":625,"x_min":42,"x_max":586,"o":"m 42 3 l 586 3 l 586 169 l 372 169 l 478 250 q 542 319 518 281 q 565 404 565 357 q 537 499 565 454 q 454 572 508 543 q 322 600 400 600 q 181 566 238 600 q 95 478 124 532 q 67 361 67 424 l 246 361 q 265 422 246 397 q 315 446 285 446 q 351 438 338 446 q 370 418 364 431 q 376 390 376 406 q 354 327 376 356 q 293 257 332 299 l 42 3 z "},"₃":{"ha":567,"x_min":28,"x_max":533,"o":"m 235 279 q 376 294 313 279 q 478 342 440 308 q 517 431 517 375 q 457 549 517 501 q 285 596 397 596 q 116 538 179 596 q 53 397 53 481 l 221 397 q 238 439 221 424 q 283 454 256 454 q 324 444 311 454 q 336 418 336 435 q 323 386 336 401 q 287 362 310 371 q 235 353 264 353 l 235 279 m 276 -17 q 467 35 401 -17 q 533 163 533 86 q 496 260 533 222 q 392 315 458 297 q 235 332 325 332 l 235 246 q 306 236 281 246 q 342 212 332 226 q 353 179 353 197 q 333 136 353 147 q 285 125 313 125 q 233 142 257 125 q 208 204 208 160 l 28 204 q 57 98 28 149 q 142 15 86 47 q 276 -17 197 -17 z "},"₄":{"ha":638,"x_min":7,"x_max":597,"o":"m 7 96 l 597 96 l 597 250 l 432 250 l 418 221 l 157 221 l 7 96 m 190 163 l 339 351 l 339 135 l 314 126 l 314 0 l 506 0 l 506 583 l 356 583 l 7 96 l 190 163 z "},"₅":{"ha":583,"x_min":35,"x_max":538,"o":"m 538 181 q 511 285 538 243 q 444 347 485 326 q 358 368 403 368 q 269 357 310 368 q 193 308 229 346 l 61 228 q 155 250 106 244 q 233 256 204 256 q 302 247 268 256 q 336 206 336 238 q 308 163 336 174 q 233 151 281 151 q 171 160 211 151 q 86 194 131 169 l 35 32 q 143 -1 83 14 q 283 -15 203 -15 q 399 4 340 -15 q 497 67 457 24 q 538 181 538 111 m 278 422 l 519 422 l 519 581 l 144 581 l 61 228 l 226 294 l 278 422 z "},"₆":{"ha":589,"x_min":28,"x_max":550,"o":"m 210 210 q 220 251 210 233 q 249 277 231 268 q 289 286 267 286 q 328 277 311 286 q 356 251 346 268 q 367 210 367 233 q 344 155 367 175 q 289 135 322 135 q 233 155 256 135 q 210 210 210 175 m 265 576 l 114 397 q 53 309 79 354 q 28 210 28 264 q 64 81 28 132 q 159 5 100 29 q 289 -19 218 -19 q 419 5 360 -19 q 515 81 479 29 q 550 210 550 132 q 521 315 550 272 q 449 378 492 357 q 364 400 406 400 q 310 392 331 400 q 263 361 290 385 l 306 383 l 497 576 l 265 576 z "},"₇":{"ha":558,"x_min":35,"x_max":551,"o":"m 35 413 l 283 413 l 69 0 l 268 0 l 551 583 l 35 583 l 35 413 z "},"₈":{"ha":550,"x_min":35,"x_max":515,"o":"m 56 443 q 90 349 56 386 q 176 296 125 313 q 275 279 228 279 q 374 296 324 279 q 460 349 425 313 q 494 443 494 386 q 464 532 494 497 q 383 583 433 567 q 275 600 333 600 q 167 583 217 600 q 86 532 117 567 q 56 443 56 497 m 228 426 q 240 463 228 450 q 275 475 253 475 q 310 463 297 475 q 322 426 322 450 q 317 399 322 411 q 301 381 311 388 q 275 375 290 375 q 250 381 261 375 q 233 399 239 388 q 228 426 228 411 m 35 158 q 69 62 35 101 q 160 3 104 22 q 275 -17 215 -17 q 391 3 336 -17 q 481 62 446 22 q 515 158 515 101 q 492 242 515 208 q 431 295 468 275 q 353 324 394 315 q 275 333 311 333 q 197 324 239 333 q 119 295 156 315 q 58 242 82 275 q 35 158 35 208 m 219 188 q 226 215 219 203 q 246 235 233 228 q 275 242 258 242 q 304 235 292 242 q 324 215 317 228 q 331 188 331 203 q 315 144 331 158 q 275 129 300 129 q 235 144 250 129 q 219 188 219 158 z "},"₉":{"ha":597,"x_min":35,"x_max":557,"o":"m 374 374 q 363 333 374 350 q 335 306 353 315 q 296 297 318 297 q 256 306 274 297 q 227 333 238 315 q 217 374 217 350 q 240 429 217 410 q 296 449 263 449 q 351 429 329 449 q 374 374 374 410 m 319 7 l 469 186 q 531 274 506 229 q 557 374 557 319 q 522 503 557 453 q 426 578 486 554 q 296 603 367 603 q 166 578 225 603 q 71 503 107 554 q 35 374 35 453 q 64 269 35 313 q 136 205 93 226 q 219 183 179 183 q 274 191 253 183 q 322 222 296 199 l 279 200 l 86 7 l 319 7 z "},"⅐":{"ha":1392,"x_min":28,"x_max":1368,"o":"m 872 972 l 150 0 l 365 0 l 1088 972 l 872 972 m 28 763 l 182 797 l 182 381 l 357 381 l 357 976 l 28 915 l 28 763 m 851 413 l 1100 413 l 886 0 l 1085 0 l 1368 583 l 851 583 l 851 413 z "},"⅑":{"ha":1311,"x_min":28,"x_max":1276,"o":"m 858 972 l 136 0 l 351 0 l 1074 972 l 858 972 m 28 763 l 182 797 l 182 381 l 357 381 l 357 976 l 28 915 l 28 763 m 1093 374 q 1083 333 1093 350 q 1055 306 1072 315 q 1015 297 1038 297 q 975 306 993 297 q 947 333 957 315 q 936 374 936 350 q 959 429 936 410 q 1015 449 982 449 q 1071 429 1049 449 q 1093 374 1093 410 m 1039 7 l 1189 186 q 1251 274 1225 229 q 1276 374 1276 319 q 1241 503 1276 453 q 1146 578 1206 554 q 1015 603 1086 603 q 885 578 944 603 q 790 503 825 554 q 754 374 754 453 q 783 269 754 313 q 856 205 813 226 q 939 183 899 183 q 994 191 972 183 q 1042 222 1015 199 l 999 200 l 806 7 l 1039 7 z "},"⅒":{"ha":1792,"x_min":28,"x_max":1743,"o":"m 858 972 l 136 0 l 351 0 l 1074 972 l 858 972 m 28 763 l 182 797 l 182 381 l 357 381 l 357 976 l 28 915 l 28 763 m 817 383 l 971 418 l 971 1 l 1146 1 l 1146 597 l 817 536 l 817 383 m 1401 292 q 1412 372 1401 339 q 1442 424 1422 406 q 1485 442 1461 442 q 1528 424 1510 442 q 1558 372 1547 406 q 1568 292 1568 339 q 1558 211 1568 244 q 1528 160 1547 178 q 1485 142 1510 142 q 1442 160 1461 142 q 1412 211 1422 178 q 1401 292 1401 244 m 1226 292 q 1259 125 1226 193 q 1350 22 1292 57 q 1485 -12 1408 -12 q 1623 22 1565 -12 q 1712 125 1681 57 q 1743 292 1743 193 q 1712 459 1743 392 q 1623 561 1681 526 q 1485 596 1565 596 q 1350 561 1408 596 q 1259 459 1292 526 q 1226 292 1226 392 z "},"⅓":{"ha":1313,"x_min":28,"x_max":1281,"o":"m 857 972 l 135 0 l 350 0 l 1072 972 l 857 972 m 28 763 l 182 797 l 182 381 l 357 381 l 357 976 l 28 915 l 28 763 m 982 279 q 1124 294 1060 279 q 1226 342 1188 308 q 1264 431 1264 375 q 1204 549 1264 501 q 1032 596 1144 596 q 863 538 926 596 q 800 397 800 481 l 968 397 q 985 439 968 424 q 1031 454 1003 454 q 1071 444 1058 454 q 1083 418 1083 435 q 1070 386 1083 401 q 1034 362 1057 371 q 982 353 1011 353 l 982 279 m 1024 -17 q 1215 35 1149 -17 q 1281 163 1281 86 q 1243 260 1281 222 q 1139 315 1206 297 q 982 332 1072 332 l 982 246 q 1053 236 1028 246 q 1090 212 1079 226 q 1100 179 1100 197 q 1080 136 1100 147 q 1032 125 1060 125 q 980 142 1004 125 q 956 204 956 160 l 775 204 q 804 98 775 149 q 889 15 833 47 q 1024 -17 944 -17 z "},"⅔":{"ha":1503,"x_min":42,"x_max":1471,"o":"m 1076 972 l 354 0 l 569 0 l 1292 972 l 1076 972 m 42 392 l 586 392 l 586 558 l 372 558 l 478 639 q 542 708 518 669 q 565 793 565 746 q 537 888 565 843 q 454 960 508 932 q 322 989 400 989 q 181 955 238 989 q 95 867 124 921 q 67 750 67 813 l 246 750 q 265 810 246 786 q 315 835 285 835 q 351 827 338 835 q 370 807 364 819 q 376 779 376 794 q 354 716 376 744 q 293 646 332 688 l 42 392 m 1172 279 q 1314 294 1250 279 q 1416 342 1378 308 q 1454 431 1454 375 q 1394 549 1454 501 q 1222 596 1335 596 q 1053 538 1117 596 q 990 397 990 481 l 1158 397 q 1176 439 1158 424 q 1221 454 1193 454 q 1261 444 1249 454 q 1274 418 1274 435 q 1260 386 1274 401 q 1224 362 1247 371 q 1172 353 1201 353 l 1172 279 m 1214 -17 q 1405 35 1339 -17 q 1471 163 1471 86 q 1433 260 1471 222 q 1329 315 1396 297 q 1172 332 1263 332 l 1172 246 q 1244 236 1218 246 q 1280 212 1269 226 q 1290 179 1290 197 q 1270 136 1290 147 q 1222 125 1250 125 q 1170 142 1194 125 q 1146 204 1146 160 l 965 204 q 994 98 965 149 q 1079 15 1024 47 q 1214 -17 1135 -17 z "},"⅕":{"ha":1297,"x_min":28,"x_max":1271,"o":"m 858 972 l 136 0 l 351 0 l 1074 972 l 858 972 m 28 763 l 182 797 l 182 381 l 357 381 l 357 976 l 28 915 l 28 763 m 1271 181 q 1244 285 1271 243 q 1177 347 1218 326 q 1092 368 1136 368 q 1003 357 1043 368 q 926 308 963 346 l 794 228 q 888 250 839 244 q 967 256 938 256 q 1035 247 1001 256 q 1069 206 1069 238 q 1042 163 1069 174 q 967 151 1014 151 q 904 160 944 151 q 819 194 864 169 l 768 32 q 876 -1 817 14 q 1017 -15 936 -15 q 1132 4 1074 -15 q 1231 67 1190 24 q 1271 181 1271 111 m 1011 422 l 1253 422 l 1253 581 l 878 581 l 794 228 l 960 294 l 1011 422 z "},"⅖":{"ha":1508,"x_min":42,"x_max":1461,"o":"m 1076 972 l 354 0 l 569 0 l 1292 972 l 1076 972 m 42 392 l 586 392 l 586 558 l 372 558 l 478 639 q 542 708 518 669 q 565 793 565 746 q 537 888 565 843 q 454 960 508 932 q 322 989 400 989 q 181 955 238 989 q 95 867 124 921 q 67 750 67 813 l 246 750 q 265 810 246 786 q 315 835 285 835 q 351 827 338 835 q 370 807 364 819 q 376 779 376 794 q 354 716 376 744 q 293 646 332 688 l 42 392 m 1461 181 q 1435 285 1461 243 q 1367 347 1408 326 q 1282 368 1326 368 q 1193 357 1233 368 q 1117 308 1153 346 l 985 228 q 1078 250 1029 244 q 1157 256 1128 256 q 1226 247 1192 256 q 1260 206 1260 238 q 1232 163 1260 174 q 1157 151 1204 151 q 1094 160 1135 151 q 1010 194 1054 169 l 958 32 q 1067 -1 1007 14 q 1207 -15 1126 -15 q 1322 4 1264 -15 q 1421 67 1381 24 q 1461 181 1461 111 m 1201 422 l 1443 422 l 1443 581 l 1068 581 l 985 228 l 1150 294 l 1201 422 z "},"⅗":{"ha":1376,"x_min":25,"x_max":1322,"o":"m 951 972 l 229 0 l 444 0 l 1167 972 l 951 972 m 232 668 q 374 683 310 668 q 476 731 438 697 q 514 819 514 764 q 454 938 514 890 q 282 985 394 985 q 113 927 176 985 q 50 786 50 869 l 218 786 q 235 828 218 813 q 281 843 253 843 q 321 833 308 843 q 333 807 333 824 q 320 775 333 790 q 284 751 307 760 q 232 742 261 742 l 232 668 m 274 372 q 465 424 399 372 q 531 551 531 475 q 493 649 531 611 q 389 703 456 686 q 232 721 322 721 l 232 635 q 303 625 278 635 q 340 601 329 615 q 350 568 350 586 q 330 525 350 536 q 282 514 310 514 q 230 531 254 514 q 206 593 206 549 l 25 593 q 54 487 25 538 q 139 404 83 436 q 274 372 194 372 m 1322 181 q 1296 285 1322 243 q 1228 347 1269 326 q 1143 368 1188 368 q 1054 357 1094 368 q 978 308 1014 346 l 846 228 q 940 250 890 244 q 1018 256 989 256 q 1087 247 1053 256 q 1121 206 1121 238 q 1093 163 1121 174 q 1018 151 1065 151 q 956 160 996 151 q 871 194 915 169 l 819 32 q 928 -1 868 14 q 1068 -15 988 -15 q 1183 4 1125 -15 q 1282 67 1242 24 q 1322 181 1322 111 m 1063 422 l 1304 422 l 1304 581 l 929 581 l 846 228 l 1011 294 l 1063 422 z "},"⅘":{"ha":1536,"x_min":24,"x_max":1496,"o":"m 1056 971 l 333 -1 l 549 -1 l 1271 971 l 1056 971 m 24 485 l 614 485 l 614 639 l 449 639 l 435 610 l 174 610 l 24 485 m 207 551 l 356 740 l 356 524 l 331 515 l 331 389 l 522 389 l 522 972 l 372 972 l 24 485 l 207 551 m 1496 179 q 1469 283 1496 242 q 1402 346 1443 325 q 1317 367 1361 367 q 1228 356 1268 367 q 1151 307 1188 344 l 1019 226 q 1113 249 1064 243 q 1192 254 1163 254 q 1260 245 1226 254 q 1294 204 1294 236 q 1267 161 1294 172 q 1192 150 1239 150 q 1129 159 1169 150 q 1044 193 1089 168 l 993 31 q 1101 -2 1042 13 q 1242 -17 1161 -17 q 1357 3 1299 -17 q 1456 66 1415 22 q 1496 179 1496 110 m 1236 421 l 1478 421 l 1478 579 l 1103 579 l 1019 226 l 1185 293 l 1236 421 z "},"⅙":{"ha":1325,"x_min":28,"x_max":1283,"o":"m 900 972 l 178 0 l 393 0 l 1115 972 l 900 972 m 28 763 l 182 797 l 182 381 l 357 381 l 357 976 l 28 915 l 28 763 m 943 210 q 953 251 943 233 q 982 277 964 268 q 1022 286 1000 286 q 1062 277 1044 286 q 1090 251 1079 268 q 1100 210 1100 233 q 1078 155 1100 175 q 1022 135 1056 135 q 966 155 989 135 q 943 210 943 175 m 999 576 l 847 397 q 787 309 813 354 q 761 210 761 264 q 797 81 761 132 q 892 5 832 29 q 1022 -19 951 -19 q 1153 5 1093 -19 q 1248 81 1213 29 q 1283 210 1283 132 q 1254 315 1283 272 q 1182 378 1225 357 q 1097 400 1139 400 q 1044 392 1064 400 q 996 361 1024 385 l 1039 383 l 1231 576 l 999 576 z "},"⅚":{"ha":1356,"x_min":42,"x_max":1314,"o":"m 972 972 l 250 0 l 465 0 l 1188 972 l 972 972 m 544 569 q 518 674 544 632 q 451 736 492 715 q 365 757 410 757 q 276 746 317 757 q 200 697 236 735 l 68 617 q 162 639 113 633 q 240 644 211 644 q 309 635 275 644 q 343 594 343 626 q 315 551 343 563 q 240 540 288 540 q 178 549 218 540 q 93 583 138 558 l 42 421 q 150 388 90 403 q 290 374 210 374 q 406 393 347 374 q 504 456 464 413 q 544 569 544 500 m 285 811 l 526 811 l 526 969 l 151 969 l 68 617 l 233 683 l 285 811 m 974 210 q 984 251 974 233 q 1013 277 994 268 q 1053 286 1031 286 q 1092 277 1075 286 q 1120 251 1110 268 q 1131 210 1131 233 q 1108 155 1131 175 q 1053 135 1086 135 q 997 155 1019 135 q 974 210 974 175 m 1029 576 l 878 397 q 817 309 843 354 q 792 210 792 264 q 827 81 792 132 q 922 5 863 29 q 1053 -19 982 -19 q 1183 5 1124 -19 q 1278 81 1243 29 q 1314 210 1314 132 q 1285 315 1314 272 q 1213 378 1256 357 q 1128 400 1169 400 q 1074 392 1094 400 q 1026 361 1054 385 l 1069 383 l 1261 576 l 1029 576 z "},"⅛":{"ha":1347,"x_min":28,"x_max":1304,"o":"m 900 972 l 178 0 l 393 0 l 1115 972 l 900 972 m 28 763 l 182 797 l 182 381 l 357 381 l 357 976 l 28 915 l 28 763 m 844 443 q 879 349 844 386 q 965 296 914 313 q 1064 279 1017 279 q 1163 296 1113 279 q 1249 349 1214 313 q 1283 443 1283 386 q 1253 532 1283 497 q 1172 583 1222 567 q 1064 600 1122 600 q 956 583 1006 600 q 875 532 906 567 q 844 443 844 497 m 1017 426 q 1029 463 1017 450 q 1064 475 1042 475 q 1099 463 1086 475 q 1111 426 1111 450 q 1106 399 1111 411 q 1090 381 1100 388 q 1064 375 1079 375 q 1039 381 1050 375 q 1022 399 1028 388 q 1017 426 1017 411 m 824 158 q 858 62 824 101 q 949 3 893 22 q 1064 -17 1004 -17 q 1180 3 1125 -17 q 1269 62 1235 22 q 1304 158 1304 101 q 1281 242 1304 208 q 1220 295 1257 275 q 1142 324 1183 315 q 1064 333 1100 333 q 986 324 1028 333 q 908 295 944 315 q 847 242 871 275 q 824 158 824 208 m 1008 188 q 1015 215 1008 203 q 1035 235 1022 228 q 1064 242 1047 242 q 1093 235 1081 242 q 1113 215 1106 228 q 1119 188 1119 203 q 1104 144 1119 158 q 1064 129 1089 129 q 1024 144 1039 129 q 1008 188 1008 158 z "},"⅜":{"ha":1413,"x_min":25,"x_max":1369,"o":"m 965 972 l 243 0 l 458 0 l 1181 972 l 965 972 m 232 668 q 374 683 310 668 q 476 731 438 697 q 514 819 514 764 q 454 938 514 890 q 282 985 394 985 q 113 927 176 985 q 50 786 50 869 l 218 786 q 235 828 218 813 q 281 843 253 843 q 321 833 308 843 q 333 807 333 824 q 320 775 333 790 q 284 751 307 760 q 232 742 261 742 l 232 668 m 274 372 q 465 424 399 372 q 531 551 531 475 q 493 649 531 611 q 389 703 456 686 q 232 721 322 721 l 232 635 q 303 625 278 635 q 340 601 329 615 q 350 568 350 586 q 330 525 350 536 q 282 514 310 514 q 230 531 254 514 q 206 593 206 549 l 25 593 q 54 487 25 538 q 139 404 83 436 q 274 372 194 372 m 910 443 q 944 349 910 386 q 1031 296 979 313 q 1129 279 1082 279 q 1228 296 1178 279 q 1314 349 1279 313 q 1349 443 1349 386 q 1318 532 1349 497 q 1238 583 1288 567 q 1129 600 1188 600 q 1021 583 1071 600 q 940 532 971 567 q 910 443 910 497 m 1082 426 q 1094 463 1082 450 q 1129 475 1107 475 q 1164 463 1151 475 q 1176 426 1176 450 q 1171 399 1176 411 q 1155 381 1165 388 q 1129 375 1144 375 q 1104 381 1115 375 q 1088 399 1093 388 q 1082 426 1082 411 m 889 158 q 924 62 889 101 q 1014 3 958 22 q 1129 -17 1069 -17 q 1245 3 1190 -17 q 1335 62 1300 22 q 1369 158 1369 101 q 1346 242 1369 208 q 1285 295 1322 275 q 1207 324 1249 315 q 1129 333 1165 333 q 1051 324 1093 333 q 973 295 1010 315 q 913 242 936 275 q 889 158 889 208 m 1074 188 q 1081 215 1074 203 q 1100 235 1088 228 q 1129 242 1113 242 q 1158 235 1146 242 q 1178 215 1171 228 q 1185 188 1185 203 q 1169 144 1185 158 q 1129 129 1154 129 q 1089 144 1104 129 q 1074 188 1074 158 z "},"⅝":{"ha":1419,"x_min":28,"x_max":1376,"o":"m 972 972 l 250 0 l 465 0 l 1188 972 l 972 972 m 531 569 q 504 674 531 632 q 437 736 478 715 q 351 757 396 757 q 263 746 303 757 q 186 697 222 735 l 54 617 q 148 639 99 633 q 226 644 197 644 q 295 635 261 644 q 329 594 329 626 q 301 551 329 563 q 226 540 274 540 q 164 549 204 540 q 79 583 124 558 l 28 421 q 136 388 76 403 q 276 374 196 374 q 392 393 333 374 q 490 456 450 413 q 531 569 531 500 m 271 811 l 513 811 l 513 969 l 138 969 l 54 617 l 219 683 l 271 811 m 917 443 q 951 349 917 386 q 1038 296 986 313 q 1136 279 1089 279 q 1235 296 1185 279 q 1321 349 1286 313 q 1356 443 1356 386 q 1325 532 1356 497 q 1244 583 1294 567 q 1136 600 1194 600 q 1028 583 1078 600 q 947 532 978 567 q 917 443 917 497 m 1089 426 q 1101 463 1089 450 q 1136 475 1114 475 q 1171 463 1158 475 q 1183 426 1183 450 q 1178 399 1183 411 q 1162 381 1172 388 q 1136 375 1151 375 q 1111 381 1122 375 q 1094 399 1100 388 q 1089 426 1089 411 m 896 158 q 931 62 896 101 q 1021 3 965 22 q 1136 -17 1076 -17 q 1252 3 1197 -17 q 1342 62 1307 22 q 1376 158 1376 101 q 1353 242 1376 208 q 1292 295 1329 275 q 1214 324 1256 315 q 1136 333 1172 333 q 1058 324 1100 333 q 980 295 1017 315 q 919 242 943 275 q 896 158 896 208 m 1081 188 q 1088 215 1081 203 q 1107 235 1094 228 q 1136 242 1119 242 q 1165 235 1153 242 q 1185 215 1178 228 q 1192 188 1192 203 q 1176 144 1192 158 q 1136 129 1161 129 q 1096 144 1111 129 q 1081 188 1081 158 z "},"⅞":{"ha":1267,"x_min":26,"x_max":1224,"o":"m 806 972 l 83 0 l 299 0 l 1021 972 l 806 972 m 26 801 l 275 801 l 61 389 l 260 389 l 543 972 l 26 972 l 26 801 m 764 443 q 799 349 764 386 q 885 296 833 313 q 983 279 936 279 q 1083 296 1032 279 q 1168 349 1133 313 q 1203 443 1203 386 q 1172 532 1203 497 q 1092 583 1142 567 q 983 600 1042 600 q 875 583 925 600 q 794 532 825 567 q 764 443 764 497 m 936 426 q 949 463 936 450 q 983 475 961 475 q 1018 463 1006 475 q 1031 426 1031 450 q 1025 399 1031 411 q 1009 381 1019 388 q 983 375 999 375 q 958 381 969 375 q 942 399 947 388 q 936 426 936 411 m 743 158 q 778 62 743 101 q 868 3 813 22 q 983 -17 924 -17 q 1099 3 1044 -17 q 1189 62 1154 22 q 1224 158 1224 101 q 1200 242 1224 208 q 1140 295 1176 275 q 1061 324 1103 315 q 983 333 1019 333 q 906 324 947 333 q 827 295 864 315 q 767 242 790 275 q 743 158 743 208 m 928 188 q 935 215 928 203 q 954 235 942 228 q 983 242 967 242 q 1013 235 1000 242 q 1032 215 1025 228 q 1039 188 1039 203 q 1024 144 1039 158 q 983 129 1008 129 q 943 144 958 129 q 928 188 928 158 z "},"_":{"ha":764,"x_min":0,"x_max":764,"o":"m 0 -231 l 764 -231 l 764 -62 l 0 -62 l 0 -231 z "},"-":{"ha":319,"x_min":7,"x_max":313,"o":"m 7 215 l 313 215 l 313 444 l 7 444 l 7 215 z "},"‐":{"ha":319,"x_min":7,"x_max":313,"o":"m 7 215 l 313 215 l 313 444 l 7 444 l 7 215 z "},"‒":{"ha":903,"x_min":97,"x_max":785,"o":"m 97 215 l 785 215 l 785 444 l 97 444 l 97 215 z "},"–":{"ha":1125,"x_min":97,"x_max":1014,"o":"m 97 215 l 1014 215 l 1014 444 l 97 444 l 97 215 z "},"—":{"ha":1347,"x_min":97,"x_max":1243,"o":"m 97 215 l 1243 215 l 1243 444 l 97 444 l 97 215 z "},"(":{"ha":500,"x_min":76,"x_max":493,"o":"m 250 1083 q 122 754 167 928 q 76 403 76 581 q 122 53 76 226 q 250 -278 167 -121 l 493 -278 q 377 53 421 -121 q 333 403 333 226 q 377 754 333 581 q 493 1083 421 928 l 250 1083 z "},")":{"ha":500,"x_min":7,"x_max":424,"o":"m 250 -278 q 378 53 333 -121 q 424 403 424 226 q 378 754 424 581 q 250 1083 333 928 l 7 1083 q 124 754 81 928 q 167 403 167 581 q 124 53 167 226 q 7 -278 81 -121 l 250 -278 z "},"[":{"ha":556,"x_min":118,"x_max":528,"o":"m 388 854 l 528 854 l 528 1083 l 118 1083 l 118 -306 l 528 -306 l 528 -76 l 388 -76 l 388 854 z "},"]":{"ha":556,"x_min":28,"x_max":438,"o":"m 168 -76 l 28 -76 l 28 -306 l 438 -306 l 438 1083 l 28 1083 l 28 854 l 168 854 l 168 -76 z "},"{":{"ha":626,"x_min":42,"x_max":557,"o":"m 442 806 q 460 854 442 833 q 508 875 478 875 l 557 875 l 557 1083 l 404 1083 q 271 1063 332 1083 q 173 1001 210 1043 q 136 889 136 958 l 136 653 q 115 542 136 574 q 42 500 94 511 l 42 306 q 115 264 94 296 q 136 153 136 232 l 136 -83 q 173 -194 136 -151 q 271 -258 210 -237 q 404 -278 332 -278 l 557 -278 l 557 -69 l 508 -69 q 460 -48 478 -69 q 442 0 442 -26 l 442 125 q 437 222 442 171 q 411 317 432 274 q 344 389 390 361 q 215 417 299 417 l 215 389 q 344 417 299 389 q 411 488 390 444 q 437 583 432 532 q 442 681 442 635 l 442 806 z "},"}":{"ha":626,"x_min":69,"x_max":585,"o":"m 185 0 q 167 -48 185 -26 q 118 -69 150 -69 l 69 -69 l 69 -278 l 222 -278 q 356 -258 294 -278 q 453 -194 417 -237 q 490 -83 490 -151 l 490 153 q 512 264 490 232 q 585 306 533 296 l 585 500 q 512 542 533 511 q 490 653 490 574 l 490 889 q 453 1001 490 958 q 356 1063 417 1043 q 222 1083 294 1083 l 69 1083 l 69 875 l 118 875 q 167 854 150 875 q 185 806 185 833 l 185 681 q 190 583 185 635 q 215 488 194 532 q 282 417 236 444 q 411 389 328 389 l 411 417 q 282 389 328 417 q 215 317 236 361 q 190 222 194 274 q 185 125 185 171 l 185 0 z "},"#":{"ha":979,"x_min":49,"x_max":931,"o":"m 104 549 l 308 549 l 356 563 l 650 563 l 703 549 l 931 549 l 931 764 l 104 764 l 104 549 m 49 215 l 875 215 l 875 431 l 706 431 l 656 417 l 311 417 l 253 431 l 49 431 l 49 215 m 674 972 l 603 683 l 604 628 l 536 350 l 513 308 l 438 0 l 667 0 l 903 972 l 674 972 m 313 972 l 76 0 l 306 0 l 382 314 l 378 356 l 443 625 l 471 683 l 542 972 l 313 972 z "},"%":{"ha":1418,"x_min":21,"x_max":1397,"o":"m 21 729 q 60 590 21 653 q 165 489 99 526 q 310 451 231 451 q 456 489 390 451 q 560 590 521 526 q 599 729 599 653 q 560 869 599 806 q 456 969 521 932 q 310 1007 390 1007 q 165 969 231 1007 q 60 869 99 932 q 21 729 21 806 m 239 729 q 249 764 239 749 q 274 788 258 779 q 310 797 290 797 q 345 788 329 797 q 371 764 361 779 q 381 729 381 749 q 371 695 381 711 q 345 670 361 679 q 310 661 329 661 q 274 670 290 661 q 249 695 258 679 q 239 729 239 711 m 819 244 q 858 105 819 168 q 963 4 897 42 q 1108 -33 1029 -33 q 1254 4 1189 -33 q 1358 105 1319 42 q 1397 244 1397 168 q 1358 384 1397 321 q 1254 485 1319 447 q 1108 522 1189 522 q 963 485 1029 522 q 858 384 897 447 q 819 244 819 321 m 1038 244 q 1047 279 1038 264 q 1073 303 1057 294 q 1108 313 1089 313 q 1144 303 1128 313 q 1169 279 1160 294 q 1179 244 1179 264 q 1169 210 1179 226 q 1144 185 1160 194 q 1108 176 1128 176 q 1073 185 1089 176 q 1047 210 1057 194 q 1038 244 1038 226 m 976 972 l 157 0 l 442 0 l 1261 972 l 976 972 z "},"‰":{"ha":2113,"x_min":21,"x_max":2092,"o":"m 1514 244 q 1553 105 1514 168 q 1658 4 1592 42 q 1803 -33 1724 -33 q 1949 4 1883 -33 q 2053 105 2014 42 q 2092 244 2092 168 q 2053 384 2092 321 q 1949 485 2014 447 q 1803 522 1883 522 q 1658 485 1724 522 q 1553 384 1592 447 q 1514 244 1514 321 m 1732 244 q 1742 279 1732 264 q 1767 303 1751 294 q 1803 313 1783 313 q 1838 303 1822 313 q 1864 279 1854 294 q 1874 244 1874 264 q 1864 210 1874 226 q 1838 185 1854 194 q 1803 176 1822 176 q 1767 185 1783 176 q 1742 210 1751 194 q 1732 244 1732 226 m 21 729 q 60 590 21 653 q 165 489 99 526 q 310 451 231 451 q 456 489 390 451 q 560 590 521 526 q 599 729 599 653 q 560 869 599 806 q 456 969 521 932 q 310 1007 390 1007 q 165 969 231 1007 q 60 869 99 932 q 21 729 21 806 m 239 729 q 249 764 239 749 q 274 788 258 779 q 310 797 290 797 q 345 788 329 797 q 371 764 361 779 q 381 729 381 749 q 371 695 381 711 q 345 670 361 679 q 310 661 329 661 q 274 670 290 661 q 249 695 258 679 q 239 729 239 711 m 819 244 q 858 105 819 168 q 963 4 897 42 q 1108 -33 1029 -33 q 1254 4 1189 -33 q 1358 105 1319 42 q 1397 244 1397 168 q 1358 384 1397 321 q 1254 485 1319 447 q 1108 522 1189 522 q 963 485 1029 522 q 858 384 897 447 q 819 244 819 321 m 1038 244 q 1047 279 1038 264 q 1073 303 1057 294 q 1108 313 1089 313 q 1144 303 1128 313 q 1169 279 1160 294 q 1179 244 1179 264 q 1169 210 1179 226 q 1144 185 1160 194 q 1108 176 1128 176 q 1073 185 1089 176 q 1047 210 1057 194 q 1038 244 1038 226 m 976 972 l 157 0 l 442 0 l 1261 972 l 976 972 z "},"‱":{"ha":2807,"x_min":21,"x_max":2786,"o":"m 2208 244 q 2247 105 2208 168 q 2352 4 2286 42 q 2497 -33 2418 -33 q 2643 4 2578 -33 q 2747 105 2708 42 q 2786 244 2786 168 q 2747 384 2786 321 q 2643 485 2708 447 q 2497 522 2578 522 q 2352 485 2418 522 q 2247 384 2286 447 q 2208 244 2208 321 m 2426 244 q 2436 279 2426 264 q 2462 303 2446 294 q 2497 313 2478 313 q 2533 303 2517 313 q 2558 279 2549 294 q 2568 244 2568 264 q 2558 210 2568 226 q 2533 185 2549 194 q 2497 176 2517 176 q 2462 185 2478 176 q 2436 210 2446 194 q 2426 244 2426 226 m 1514 244 q 1553 105 1514 168 q 1658 4 1592 42 q 1803 -33 1724 -33 q 1949 4 1883 -33 q 2053 105 2014 42 q 2092 244 2092 168 q 2053 384 2092 321 q 1949 485 2014 447 q 1803 522 1883 522 q 1658 485 1724 522 q 1553 384 1592 447 q 1514 244 1514 321 m 1732 244 q 1742 279 1732 264 q 1767 303 1751 294 q 1803 313 1783 313 q 1838 303 1822 313 q 1864 279 1854 294 q 1874 244 1874 264 q 1864 210 1874 226 q 1838 185 1854 194 q 1803 176 1822 176 q 1767 185 1783 176 q 1742 210 1751 194 q 1732 244 1732 226 m 21 729 q 60 590 21 653 q 165 489 99 526 q 310 451 231 451 q 456 489 390 451 q 560 590 521 526 q 599 729 599 653 q 560 869 599 806 q 456 969 521 932 q 310 1007 390 1007 q 165 969 231 1007 q 60 869 99 932 q 21 729 21 806 m 239 729 q 249 764 239 749 q 274 788 258 779 q 310 797 290 797 q 345 788 329 797 q 371 764 361 779 q 381 729 381 749 q 371 695 381 711 q 345 670 361 679 q 310 661 329 661 q 274 670 290 661 q 249 695 258 679 q 239 729 239 711 m 819 244 q 858 105 819 168 q 963 4 897 42 q 1108 -33 1029 -33 q 1254 4 1189 -33 q 1358 105 1319 42 q 1397 244 1397 168 q 1358 384 1397 321 q 1254 485 1319 447 q 1108 522 1189 522 q 963 485 1029 522 q 858 384 897 447 q 819 244 819 321 m 1038 244 q 1047 279 1038 264 q 1073 303 1057 294 q 1108 313 1089 313 q 1144 303 1128 313 q 1169 279 1160 294 q 1179 244 1179 264 q 1169 210 1179 226 q 1144 185 1160 194 q 1108 176 1128 176 q 1073 185 1089 176 q 1047 210 1057 194 q 1038 244 1038 226 m 976 972 l 157 0 l 442 0 l 1261 972 l 976 972 z "},"'":{"ha":444,"x_min":69,"x_max":403,"o":"m 125 972 l 69 514 l 243 514 l 403 972 l 125 972 z "},"\"":{"ha":764,"x_min":69,"x_max":722,"o":"m 125 972 l 69 514 l 243 514 l 403 972 l 125 972 m 444 972 l 389 514 l 563 514 l 722 972 l 444 972 z "},"‘":{"ha":507,"x_min":97,"x_max":438,"o":"m 368 597 l 438 972 l 243 972 l 97 597 l 368 597 z "},"’":{"ha":507,"x_min":69,"x_max":410,"o":"m 139 972 l 69 597 l 264 597 l 410 972 l 139 972 z "},"“":{"ha":854,"x_min":97,"x_max":785,"o":"m 368 597 l 438 972 l 243 972 l 97 597 l 368 597 m 715 597 l 785 972 l 590 972 l 444 597 l 715 597 z "},"”":{"ha":854,"x_min":69,"x_max":757,"o":"m 139 972 l 69 597 l 264 597 l 410 972 l 139 972 m 486 972 l 417 597 l 611 597 l 757 972 l 486 972 z "},"‚":{"ha":507,"x_min":83,"x_max":424,"o":"m 153 111 l 83 -264 l 278 -264 l 424 111 l 153 111 z "},"„":{"ha":854,"x_min":69,"x_max":757,"o":"m 139 111 l 69 -264 l 264 -264 l 410 111 l 139 111 m 486 111 l 417 -264 l 611 -264 l 757 111 l 486 111 z "},"‹":{"ha":486,"x_min":28,"x_max":431,"o":"m 222 360 l 431 618 l 264 722 l 28 354 l 264 -14 l 431 90 l 222 360 z "},"›":{"ha":486,"x_min":56,"x_max":458,"o":"m 264 349 l 56 90 l 222 -14 l 458 354 l 222 722 l 56 618 l 264 349 z "},"«":{"ha":778,"x_min":28,"x_max":750,"o":"m 542 360 l 750 618 l 583 722 l 347 354 l 583 -14 l 750 90 l 542 360 m 222 360 l 431 618 l 264 722 l 28 354 l 264 -14 l 431 90 l 222 360 z "},"»":{"ha":778,"x_min":28,"x_max":750,"o":"m 236 349 l 28 90 l 194 -14 l 431 354 l 194 722 l 28 618 l 236 349 m 556 349 l 347 90 l 514 -14 l 750 354 l 514 722 l 347 618 l 556 349 z "},"*":{"ha":822,"x_min":29,"x_max":793,"o":"m 715 842 l 392 671 l 431 551 l 793 604 l 715 842 m 725 393 l 461 647 l 361 575 l 522 246 l 725 393 m 300 246 l 461 575 l 361 647 l 97 393 l 300 246 m 29 604 l 392 551 l 431 671 l 107 842 l 29 604 m 286 972 l 349 611 l 474 611 l 536 972 l 286 972 z "},"†":{"ha":931,"x_min":125,"x_max":806,"o":"m 125 750 l 125 535 l 806 535 l 806 750 l 125 750 m 340 972 l 340 -208 l 590 -208 l 590 972 l 340 972 z "},"‡":{"ha":931,"x_min":125,"x_max":806,"o":"m 125 250 l 125 35 l 806 35 l 806 250 l 125 250 m 125 750 l 125 535 l 806 535 l 806 750 l 125 750 m 340 972 l 340 -208 l 590 -208 l 590 972 l 340 972 z "},".":{"ha":467,"x_min":69,"x_max":397,"o":"m 69 118 q 115 6 69 53 q 233 -42 161 -42 q 352 6 307 -42 q 397 118 397 53 q 352 231 397 183 q 233 278 307 278 q 115 231 161 278 q 69 118 69 183 z "},",":{"ha":463,"x_min":21,"x_max":414,"o":"m 143 153 l 21 -207 l 226 -242 l 414 106 l 143 153 z "},":":{"ha":467,"x_min":69,"x_max":397,"o":"m 69 118 q 115 6 69 53 q 233 -42 161 -42 q 352 6 307 -42 q 397 118 397 53 q 352 231 397 183 q 233 278 307 278 q 115 231 161 278 q 69 118 69 183 m 69 632 q 115 519 69 567 q 233 472 161 472 q 352 519 307 472 q 397 632 397 567 q 352 744 397 697 q 233 792 307 792 q 115 744 161 792 q 69 632 69 697 z "},";":{"ha":599,"x_min":69,"x_max":488,"o":"m 160 618 q 206 506 160 553 q 324 458 251 458 q 442 506 397 458 q 488 618 488 553 q 442 731 488 683 q 324 778 397 778 q 206 731 251 778 q 160 618 160 683 m 192 153 l 69 -207 l 275 -242 l 463 106 l 192 153 z "},"…":{"ha":1306,"x_min":69,"x_max":1231,"o":"m 69 118 q 115 6 69 53 q 233 -42 161 -42 q 352 6 307 -42 q 397 118 397 53 q 352 231 397 183 q 233 278 307 278 q 115 231 161 278 q 69 118 69 183 m 486 118 q 532 6 486 53 q 650 -42 578 -42 q 769 6 724 -42 q 814 118 814 53 q 769 231 814 183 q 650 278 724 278 q 532 231 578 278 q 486 118 486 183 m 903 118 q 949 6 903 53 q 1067 -42 994 -42 q 1185 6 1140 -42 q 1231 118 1231 53 q 1185 231 1231 183 q 1067 278 1140 278 q 949 231 994 278 q 903 118 903 183 z "},"!":{"ha":514,"x_min":90,"x_max":424,"o":"m 90 972 l 146 347 l 368 347 l 424 972 l 90 972 m 93 104 q 139 -1 93 39 q 257 -42 185 -42 q 376 -1 331 -42 q 421 104 421 39 q 376 210 421 169 q 257 250 331 250 q 139 210 185 250 q 93 104 93 169 z "},"¡":{"ha":514,"x_min":90,"x_max":424,"o":"m 424 -306 l 368 319 l 146 319 l 90 -306 l 424 -306 m 421 563 q 376 668 421 628 q 257 708 331 708 q 139 668 185 708 q 93 563 93 628 q 139 457 93 497 q 257 417 185 417 q 376 457 331 417 q 421 563 421 497 z "},"?":{"ha":929,"x_min":56,"x_max":860,"o":"m 588 694 q 565 637 588 669 q 490 580 542 604 q 356 556 439 556 l 306 556 l 333 306 l 556 306 l 560 392 q 702 447 633 410 q 815 545 771 483 q 860 694 860 607 q 826 831 860 772 q 737 928 793 889 q 613 988 681 968 q 474 1007 544 1007 q 319 985 392 1007 q 181 920 246 963 q 56 815 115 878 l 229 661 q 336 754 272 724 q 460 785 400 785 q 530 774 501 785 q 573 744 558 764 q 588 694 588 724 m 281 97 q 326 0 281 42 q 444 -42 372 -42 q 563 0 518 -42 q 608 97 608 42 q 563 194 608 153 q 444 236 518 236 q 326 194 372 236 q 281 97 281 153 z "},"¿":{"ha":929,"x_min":69,"x_max":874,"o":"m 342 278 q 365 335 342 303 q 440 392 389 368 q 574 417 490 417 l 624 417 l 596 667 l 374 667 l 369 581 q 228 526 297 564 q 114 428 158 489 q 69 278 69 367 q 103 142 69 200 q 192 44 136 83 q 317 -15 249 4 q 456 -35 385 -35 q 611 -12 539 -35 q 749 52 683 10 q 874 157 814 94 l 700 311 q 593 218 657 249 q 469 188 529 188 q 399 198 428 188 q 356 229 371 208 q 342 278 342 250 m 649 875 q 603 972 649 931 q 485 1014 558 1014 q 367 972 413 1014 q 321 875 321 931 q 367 778 321 819 q 485 736 413 736 q 603 778 558 736 q 649 875 649 819 z "},"/":{"ha":924,"x_min":21,"x_max":903,"o":"m 646 972 l 21 -208 l 292 -208 l 903 972 l 646 972 z "},"\\":{"ha":785,"x_min":21,"x_max":764,"o":"m 21 972 l 507 0 l 764 0 l 278 972 l 21 972 z "},"⁄":{"ha":1035,"x_min":83,"x_max":1021,"o":"m 806 972 l 83 0 l 299 0 l 1021 972 l 806 972 z "},"|":{"ha":556,"x_min":139,"x_max":417,"o":"m 139 1090 l 139 -299 l 417 -299 l 417 1090 l 139 1090 z "},"¦":{"ha":556,"x_min":139,"x_max":417,"o":"m 139 965 l 139 576 l 417 576 l 417 965 l 139 965 m 417 396 l 139 396 l 139 7 l 417 7 l 417 396 z "}}}
